%TF.GenerationSoftware,KiCad,Pcbnew,10.0.1*%
%TF.CreationDate,2026-07-23T20:58:12+05:30*%
%TF.ProjectId,Carbon,43617262-6f6e-42e6-9b69-6361645f7063,rev?*%
%TF.SameCoordinates,Original*%
%TF.FileFunction,Copper,L1,Top*%
%TF.FilePolarity,Positive*%
%FSLAX46Y46*%
G04 Gerber Fmt 4.6, Leading zero omitted, Abs format (unit mm)*
G04 Created by KiCad (PCBNEW 10.0.1) date 2026-07-23 20:58:12*
%MOMM*%
%LPD*%
G01*
G04 APERTURE LIST*
G04 Aperture macros list*
%AMRoundRect*
0 Rectangle with rounded corners*
0 $1 Rounding radius*
0 $2 $3 $4 $5 $6 $7 $8 $9 X,Y pos of 4 corners*
0 Add a 4 corners polygon primitive as box body*
4,1,4,$2,$3,$4,$5,$6,$7,$8,$9,$2,$3,0*
0 Add four circle primitives for the rounded corners*
1,1,$1+$1,$2,$3*
1,1,$1+$1,$4,$5*
1,1,$1+$1,$6,$7*
1,1,$1+$1,$8,$9*
0 Add four rect primitives between the rounded corners*
20,1,$1+$1,$2,$3,$4,$5,0*
20,1,$1+$1,$4,$5,$6,$7,0*
20,1,$1+$1,$6,$7,$8,$9,0*
20,1,$1+$1,$8,$9,$2,$3,0*%
%AMOutline5P*
0 Free polygon, 5 corners , with rotation*
0 The origin of the aperture is its center*
0 number of corners: always 5*
0 $1 to $10 corner X, Y*
0 $11 Rotation angle, in degrees counterclockwise*
0 create outline with 5 corners*
4,1,5,$1,$2,$3,$4,$5,$6,$7,$8,$9,$10,$1,$2,$11*%
%AMOutline6P*
0 Free polygon, 6 corners , with rotation*
0 The origin of the aperture is its center*
0 number of corners: always 6*
0 $1 to $12 corner X, Y*
0 $13 Rotation angle, in degrees counterclockwise*
0 create outline with 6 corners*
4,1,6,$1,$2,$3,$4,$5,$6,$7,$8,$9,$10,$11,$12,$1,$2,$13*%
%AMOutline7P*
0 Free polygon, 7 corners , with rotation*
0 The origin of the aperture is its center*
0 number of corners: always 7*
0 $1 to $14 corner X, Y*
0 $15 Rotation angle, in degrees counterclockwise*
0 create outline with 7 corners*
4,1,7,$1,$2,$3,$4,$5,$6,$7,$8,$9,$10,$11,$12,$13,$14,$1,$2,$15*%
%AMOutline8P*
0 Free polygon, 8 corners , with rotation*
0 The origin of the aperture is its center*
0 number of corners: always 8*
0 $1 to $16 corner X, Y*
0 $17 Rotation angle, in degrees counterclockwise*
0 create outline with 8 corners*
4,1,8,$1,$2,$3,$4,$5,$6,$7,$8,$9,$10,$11,$12,$13,$14,$15,$16,$1,$2,$17*%
G04 Aperture macros list end*
%TA.AperFunction,EtchedComponent*%
%ADD10C,0.000000*%
%TD*%
%TA.AperFunction,ComponentPad*%
%ADD11O,1.000000X1.600000*%
%TD*%
%TA.AperFunction,ComponentPad*%
%ADD12O,1.000000X2.100000*%
%TD*%
%TA.AperFunction,SMDPad,CuDef*%
%ADD13RoundRect,0.150000X0.150000X0.575000X-0.150000X0.575000X-0.150000X-0.575000X0.150000X-0.575000X0*%
%TD*%
%TA.AperFunction,SMDPad,CuDef*%
%ADD14RoundRect,0.075000X0.075000X0.650000X-0.075000X0.650000X-0.075000X-0.650000X0.075000X-0.650000X0*%
%TD*%
%TA.AperFunction,SMDPad,CuDef*%
%ADD15R,0.800000X1.000000*%
%TD*%
%TA.AperFunction,SMDPad,CuDef*%
%ADD16RoundRect,0.225000X0.225000X0.250000X-0.225000X0.250000X-0.225000X-0.250000X0.225000X-0.250000X0*%
%TD*%
%TA.AperFunction,SMDPad,CuDef*%
%ADD17R,0.800000X0.400000*%
%TD*%
%TA.AperFunction,SMDPad,CuDef*%
%ADD18R,1.105000X0.622000*%
%TD*%
%TA.AperFunction,SMDPad,CuDef*%
%ADD19RoundRect,0.225000X0.250000X-0.225000X0.250000X0.225000X-0.250000X0.225000X-0.250000X-0.225000X0*%
%TD*%
%TA.AperFunction,SMDPad,CuDef*%
%ADD20RoundRect,0.200000X0.275000X-0.200000X0.275000X0.200000X-0.275000X0.200000X-0.275000X-0.200000X0*%
%TD*%
%TA.AperFunction,SMDPad,CuDef*%
%ADD21RoundRect,0.225000X-0.250000X0.225000X-0.250000X-0.225000X0.250000X-0.225000X0.250000X0.225000X0*%
%TD*%
%TA.AperFunction,SMDPad,CuDef*%
%ADD22RoundRect,0.250000X0.250000X-0.525000X0.250000X0.525000X-0.250000X0.525000X-0.250000X-0.525000X0*%
%TD*%
%TA.AperFunction,SMDPad,CuDef*%
%ADD23RoundRect,0.200000X-0.275000X0.200000X-0.275000X-0.200000X0.275000X-0.200000X0.275000X0.200000X0*%
%TD*%
%TA.AperFunction,SMDPad,CuDef*%
%ADD24RoundRect,0.200000X0.200000X0.275000X-0.200000X0.275000X-0.200000X-0.275000X0.200000X-0.275000X0*%
%TD*%
%TA.AperFunction,SMDPad,CuDef*%
%ADD25RoundRect,0.200000X-0.200000X-0.275000X0.200000X-0.275000X0.200000X0.275000X-0.200000X0.275000X0*%
%TD*%
%TA.AperFunction,SMDPad,CuDef*%
%ADD26R,1.600000X0.850000*%
%TD*%
%TA.AperFunction,SMDPad,CuDef*%
%ADD27R,0.400000X0.800000*%
%TD*%
%TA.AperFunction,HeatsinkPad*%
%ADD28Outline5P,-0.725000X0.130500X-0.130500X0.725000X0.725000X0.725000X0.725000X-0.725000X-0.725000X-0.725000X90.000000*%
%TD*%
%TA.AperFunction,HeatsinkPad*%
%ADD29R,1.450000X1.450000*%
%TD*%
%TA.AperFunction,SMDPad,CuDef*%
%ADD30R,0.700000X0.700000*%
%TD*%
%TA.AperFunction,SMDPad,CuDef*%
%ADD31RoundRect,0.225000X-0.225000X-0.250000X0.225000X-0.250000X0.225000X0.250000X-0.225000X0.250000X0*%
%TD*%
%TA.AperFunction,SMDPad,CuDef*%
%ADD32R,0.889000X0.448000*%
%TD*%
%TA.AperFunction,SMDPad,CuDef*%
%ADD33R,0.400000X0.600000*%
%TD*%
%TA.AperFunction,SMDPad,CuDef*%
%ADD34R,1.600000X0.700000*%
%TD*%
%TA.AperFunction,ViaPad*%
%ADD35C,0.600000*%
%TD*%
%TA.AperFunction,Conductor*%
%ADD36C,0.200000*%
%TD*%
%TA.AperFunction,Conductor*%
%ADD37C,0.660000*%
%TD*%
%TA.AperFunction,Conductor*%
%ADD38C,0.400000*%
%TD*%
G04 APERTURE END LIST*
D10*
%TA.AperFunction,EtchedComponent*%
%TO.C,G\u002A\u002A\u002A*%
G36*
X92930977Y-90414017D02*
G01*
X92930977Y-90513365D01*
X92517027Y-90513365D01*
X92103076Y-90513365D01*
X92103076Y-90761735D01*
X92103076Y-91010105D01*
X92517027Y-91010105D01*
X92930977Y-91010105D01*
X92930977Y-91109453D01*
X92930977Y-91208801D01*
X92434237Y-91208801D01*
X91937496Y-91208801D01*
X91937496Y-90850721D01*
X91938232Y-90692100D01*
X91942467Y-90585062D01*
X91953245Y-90514961D01*
X91973609Y-90467149D01*
X92006602Y-90426978D01*
X92030377Y-90403654D01*
X92072141Y-90366299D01*
X92114022Y-90341198D01*
X92169603Y-90325917D01*
X92252469Y-90318025D01*
X92376201Y-90315088D01*
X92527118Y-90314668D01*
X92930977Y-90314668D01*
X92930977Y-90414017D01*
G37*
%TD.AperFunction*%
%TA.AperFunction,EtchedComponent*%
G36*
X92087520Y-94408219D02*
G01*
X92098683Y-94455086D01*
X92102618Y-94545595D01*
X92103076Y-94650566D01*
X92103076Y-94917798D01*
X92517027Y-94917798D01*
X92930977Y-94917798D01*
X92930977Y-95017146D01*
X92930977Y-95116494D01*
X92523222Y-95116494D01*
X92352693Y-95116022D01*
X92235053Y-95112920D01*
X92156957Y-95104659D01*
X92105062Y-95088710D01*
X92066025Y-95062545D01*
X92026502Y-95023633D01*
X92025000Y-95022066D01*
X91979585Y-94969896D01*
X91953451Y-94918633D01*
X91942286Y-94849248D01*
X91941773Y-94742710D01*
X91944293Y-94666069D01*
X91950628Y-94534865D01*
X91960449Y-94455805D01*
X91978119Y-94414807D01*
X92007998Y-94397790D01*
X92028565Y-94393917D01*
X92065394Y-94392121D01*
X92087520Y-94408219D01*
G37*
%TD.AperFunction*%
%TA.AperFunction,EtchedComponent*%
G36*
X92930977Y-88294590D02*
G01*
X92930977Y-88393938D01*
X92517027Y-88393938D01*
X92103076Y-88393938D01*
X92103076Y-88642309D01*
X92103076Y-88890679D01*
X92517027Y-88890679D01*
X92930977Y-88890679D01*
X92930977Y-89007332D01*
X92930977Y-89123985D01*
X92326609Y-89114959D01*
X91722242Y-89105933D01*
X91722242Y-89006585D01*
X91730629Y-88936928D01*
X91769478Y-88906468D01*
X91829869Y-88896860D01*
X91937496Y-88886483D01*
X91937496Y-88629848D01*
X91939405Y-88497209D01*
X91948560Y-88411633D01*
X91970105Y-88353983D01*
X92009181Y-88305123D01*
X92030377Y-88284228D01*
X92072141Y-88246872D01*
X92114022Y-88221771D01*
X92169603Y-88206491D01*
X92252469Y-88198599D01*
X92376201Y-88195661D01*
X92527118Y-88195242D01*
X92930977Y-88195242D01*
X92930977Y-88294590D01*
G37*
%TD.AperFunction*%
%TA.AperFunction,EtchedComponent*%
G36*
X92930977Y-95381422D02*
G01*
X92930977Y-95480770D01*
X92517027Y-95480770D01*
X92103076Y-95480770D01*
X92103076Y-95729140D01*
X92103076Y-95977511D01*
X92517027Y-95977511D01*
X92930977Y-95977511D01*
X92930977Y-96094164D01*
X92930977Y-96210817D01*
X92326609Y-96201791D01*
X91722242Y-96192765D01*
X91722242Y-96093417D01*
X91730629Y-96023760D01*
X91769478Y-95993300D01*
X91829869Y-95983692D01*
X91937496Y-95973314D01*
X91937496Y-95716680D01*
X91939405Y-95584041D01*
X91948560Y-95498465D01*
X91970105Y-95440815D01*
X92009181Y-95391955D01*
X92030377Y-95371060D01*
X92072141Y-95333704D01*
X92114022Y-95308603D01*
X92169603Y-95293323D01*
X92252469Y-95285431D01*
X92376201Y-95282493D01*
X92527118Y-95282074D01*
X92930977Y-95282074D01*
X92930977Y-95381422D01*
G37*
%TD.AperFunction*%
%TA.AperFunction,EtchedComponent*%
G36*
X94520547Y-94354825D02*
G01*
X94520547Y-94454173D01*
X94106596Y-94454173D01*
X93692646Y-94454173D01*
X93692646Y-94702543D01*
X93692646Y-94950914D01*
X94106596Y-94950914D01*
X94520547Y-94950914D01*
X94520547Y-95050262D01*
X94520547Y-95149610D01*
X93907900Y-95149610D01*
X93295253Y-95149610D01*
X93295253Y-95050262D01*
X93301715Y-94983514D01*
X93334488Y-94956136D01*
X93411160Y-94950914D01*
X93527066Y-94950914D01*
X93527066Y-94690451D01*
X93530409Y-94547241D01*
X93542921Y-94451171D01*
X93568327Y-94383375D01*
X93595701Y-94342733D01*
X93625944Y-94307056D01*
X93658725Y-94282730D01*
X93706417Y-94267584D01*
X93781394Y-94259442D01*
X93896030Y-94256132D01*
X94062699Y-94255480D01*
X94092442Y-94255477D01*
X94520547Y-94255477D01*
X94520547Y-94354825D01*
G37*
%TD.AperFunction*%
%TA.AperFunction,EtchedComponent*%
G36*
X92665505Y-96344165D02*
G01*
X92752255Y-96354127D01*
X92809212Y-96375919D01*
X92854555Y-96413788D01*
X92858972Y-96418433D01*
X92890100Y-96457229D01*
X92910743Y-96503766D01*
X92923016Y-96571655D01*
X92929033Y-96674508D01*
X92930907Y-96825938D01*
X92930977Y-96882057D01*
X92930977Y-97269036D01*
X92848187Y-97269036D01*
X92765397Y-97269036D01*
X92765397Y-96903029D01*
X92765397Y-96537022D01*
X92591848Y-96547032D01*
X92478654Y-96560357D01*
X92422044Y-96585659D01*
X92411614Y-96606715D01*
X92406614Y-96659859D01*
X92398665Y-96761891D01*
X92389072Y-96895603D01*
X92383376Y-96979271D01*
X92361823Y-97302152D01*
X92105758Y-97302152D01*
X91971068Y-97299772D01*
X91884341Y-97289799D01*
X91827393Y-97267986D01*
X91782040Y-97230083D01*
X91777688Y-97225507D01*
X91746561Y-97186710D01*
X91725917Y-97140173D01*
X91713645Y-97072285D01*
X91707628Y-96969431D01*
X91705754Y-96818001D01*
X91705684Y-96761882D01*
X91705684Y-96374903D01*
X91788474Y-96374903D01*
X91871264Y-96374903D01*
X91871264Y-96740910D01*
X91871264Y-97106917D01*
X92045123Y-97096908D01*
X92147176Y-97088047D01*
X92200156Y-97070820D01*
X92221220Y-97036407D01*
X92225655Y-97004108D01*
X92231089Y-96933591D01*
X92239728Y-96818195D01*
X92249988Y-96679100D01*
X92253465Y-96631552D01*
X92274602Y-96341787D01*
X92530785Y-96341787D01*
X92665505Y-96344165D01*
G37*
%TD.AperFunction*%
%TA.AperFunction,EtchedComponent*%
G36*
X94255075Y-96344165D02*
G01*
X94341824Y-96354127D01*
X94398782Y-96375919D01*
X94444125Y-96413788D01*
X94448542Y-96418433D01*
X94479670Y-96457229D01*
X94500313Y-96503766D01*
X94512586Y-96571655D01*
X94518602Y-96674508D01*
X94520476Y-96825938D01*
X94520547Y-96882057D01*
X94520547Y-97269036D01*
X94437757Y-97269036D01*
X94354967Y-97269036D01*
X94354967Y-96903029D01*
X94354967Y-96537022D01*
X94181418Y-96547032D01*
X94068224Y-96560357D01*
X94011614Y-96585659D01*
X94001183Y-96606715D01*
X93996184Y-96659859D01*
X93988235Y-96761891D01*
X93978641Y-96895603D01*
X93972946Y-96979271D01*
X93951393Y-97302152D01*
X93695328Y-97302152D01*
X93560638Y-97299772D01*
X93473911Y-97289799D01*
X93416963Y-97267986D01*
X93371610Y-97230083D01*
X93367258Y-97225507D01*
X93336130Y-97186710D01*
X93315487Y-97140173D01*
X93303214Y-97072285D01*
X93297198Y-96969431D01*
X93295324Y-96818001D01*
X93295253Y-96761882D01*
X93295253Y-96374903D01*
X93378044Y-96374903D01*
X93460834Y-96374903D01*
X93460834Y-96740910D01*
X93460834Y-97106917D01*
X93634693Y-97096908D01*
X93736746Y-97088047D01*
X93789725Y-97070820D01*
X93810790Y-97036407D01*
X93815225Y-97004108D01*
X93820659Y-96933591D01*
X93829297Y-96818195D01*
X93839558Y-96679100D01*
X93843034Y-96631552D01*
X93864172Y-96341787D01*
X94120355Y-96341787D01*
X94255075Y-96344165D01*
G37*
%TD.AperFunction*%
%TA.AperFunction,EtchedComponent*%
G36*
X94195471Y-92170392D02*
G01*
X94298788Y-92175928D01*
X94365585Y-92188565D01*
X94410709Y-92211095D01*
X94448542Y-92245812D01*
X94483628Y-92291163D01*
X94505178Y-92346828D01*
X94516347Y-92429235D01*
X94520288Y-92554810D01*
X94520547Y-92620874D01*
X94518918Y-92766251D01*
X94511801Y-92861612D01*
X94495847Y-92923138D01*
X94467707Y-92967012D01*
X94443901Y-92991295D01*
X94401391Y-93024713D01*
X94349756Y-93045931D01*
X94273787Y-93057634D01*
X94158270Y-93062509D01*
X94036147Y-93063299D01*
X94023806Y-93063224D01*
X93884264Y-93062374D01*
X93783064Y-93057308D01*
X93717003Y-93044663D01*
X93670536Y-93021003D01*
X93628116Y-92982890D01*
X93616052Y-92970418D01*
X93570786Y-92917164D01*
X93544114Y-92861851D01*
X93531207Y-92785262D01*
X93527237Y-92668179D01*
X93527066Y-92616233D01*
X93692646Y-92616233D01*
X93692646Y-92864603D01*
X94023806Y-92864603D01*
X94354967Y-92864603D01*
X94354967Y-92616233D01*
X94354967Y-92367863D01*
X94023806Y-92367863D01*
X93692646Y-92367863D01*
X93692646Y-92616233D01*
X93527066Y-92616233D01*
X93529111Y-92481177D01*
X93538467Y-92393090D01*
X93559962Y-92332754D01*
X93598423Y-92280953D01*
X93616052Y-92262048D01*
X93659602Y-92219943D01*
X93703184Y-92192970D01*
X93762175Y-92177766D01*
X93851957Y-92170968D01*
X93987907Y-92169213D01*
X94040787Y-92169167D01*
X94195471Y-92170392D01*
G37*
%TD.AperFunction*%
%TA.AperFunction,EtchedComponent*%
G36*
X94195471Y-93196989D02*
G01*
X94298788Y-93202525D01*
X94365585Y-93215162D01*
X94410709Y-93237692D01*
X94448542Y-93272409D01*
X94483628Y-93317760D01*
X94505178Y-93373425D01*
X94516347Y-93455832D01*
X94520288Y-93581408D01*
X94520547Y-93647471D01*
X94518918Y-93792848D01*
X94511801Y-93888209D01*
X94495847Y-93949736D01*
X94467707Y-93993609D01*
X94443901Y-94017892D01*
X94401391Y-94051311D01*
X94349756Y-94072528D01*
X94273787Y-94084231D01*
X94158270Y-94089106D01*
X94036147Y-94089897D01*
X94023806Y-94089822D01*
X93884264Y-94088972D01*
X93783064Y-94083905D01*
X93717003Y-94071260D01*
X93670536Y-94047600D01*
X93628116Y-94009487D01*
X93616052Y-93997015D01*
X93570786Y-93943761D01*
X93544114Y-93888448D01*
X93531207Y-93811859D01*
X93527237Y-93694776D01*
X93527066Y-93642830D01*
X93692646Y-93642830D01*
X93692646Y-93891200D01*
X94023806Y-93891200D01*
X94354967Y-93891200D01*
X94354967Y-93642830D01*
X94354967Y-93394460D01*
X94023806Y-93394460D01*
X93692646Y-93394460D01*
X93692646Y-93642830D01*
X93527066Y-93642830D01*
X93529111Y-93507774D01*
X93538467Y-93419687D01*
X93559962Y-93359351D01*
X93598423Y-93307550D01*
X93616052Y-93288645D01*
X93659602Y-93246540D01*
X93703184Y-93219567D01*
X93762175Y-93204363D01*
X93851957Y-93197565D01*
X93987907Y-93195810D01*
X94040787Y-93195764D01*
X94195471Y-93196989D01*
G37*
%TD.AperFunction*%
%TA.AperFunction,EtchedComponent*%
G36*
X92700933Y-89258986D02*
G01*
X92779797Y-89274957D01*
X92835443Y-89308684D01*
X92858972Y-89331601D01*
X92890632Y-89371241D01*
X92911421Y-89418919D01*
X92923578Y-89488608D01*
X92929343Y-89594285D01*
X92930955Y-89749923D01*
X92930977Y-89780970D01*
X92930504Y-89942109D01*
X92927567Y-90048080D01*
X92919889Y-90109948D01*
X92905193Y-90138777D01*
X92881205Y-90145633D01*
X92856466Y-90143113D01*
X92822817Y-90134641D01*
X92800684Y-90112503D01*
X92787118Y-90064402D01*
X92779170Y-89978043D01*
X92773890Y-89841131D01*
X92772517Y-89793091D01*
X92763080Y-89453652D01*
X92649491Y-89453652D01*
X92535902Y-89453652D01*
X92526464Y-89793091D01*
X92517027Y-90132530D01*
X92317574Y-90142194D01*
X92202162Y-90144673D01*
X92128771Y-90133421D01*
X92073528Y-90101394D01*
X92026593Y-90056323D01*
X91985688Y-90010793D01*
X91959675Y-89966942D01*
X91945707Y-89909510D01*
X91940942Y-89823236D01*
X91942536Y-89692861D01*
X91944559Y-89616151D01*
X91949595Y-89461847D01*
X91956410Y-89361569D01*
X91967891Y-89303116D01*
X91986920Y-89274293D01*
X92016384Y-89262899D01*
X92028565Y-89260931D01*
X92061628Y-89258778D01*
X92083100Y-89271190D01*
X92095481Y-89309556D01*
X92101273Y-89385270D01*
X92102976Y-89509723D01*
X92103076Y-89600370D01*
X92103076Y-89950392D01*
X92235540Y-89950392D01*
X92368004Y-89950392D01*
X92368004Y-89602674D01*
X92368004Y-89254955D01*
X92577486Y-89254955D01*
X92700933Y-89258986D01*
G37*
%TD.AperFunction*%
%TA.AperFunction,EtchedComponent*%
G36*
X92500469Y-93773955D02*
G01*
X92500469Y-94123013D01*
X92631734Y-94123013D01*
X92762998Y-94123013D01*
X92772477Y-93800131D01*
X92777741Y-93651618D01*
X92785112Y-93556706D01*
X92797770Y-93502777D01*
X92818892Y-93477209D01*
X92851658Y-93467380D01*
X92856466Y-93466668D01*
X92889123Y-93464486D01*
X92910499Y-93476536D01*
X92922982Y-93514049D01*
X92928965Y-93588258D01*
X92930835Y-93710397D01*
X92930977Y-93816892D01*
X92929945Y-93977694D01*
X92925184Y-94086384D01*
X92914194Y-94157070D01*
X92894479Y-94203862D01*
X92863538Y-94240869D01*
X92854332Y-94249704D01*
X92811821Y-94283123D01*
X92760187Y-94304341D01*
X92684217Y-94316044D01*
X92568700Y-94320918D01*
X92446577Y-94321709D01*
X92294789Y-94320807D01*
X92235540Y-94317863D01*
X92193655Y-94315781D01*
X92127599Y-94303149D01*
X92081044Y-94279432D01*
X92038415Y-94241149D01*
X92025266Y-94227559D01*
X91984940Y-94182504D01*
X91959314Y-94138660D01*
X91945587Y-94080799D01*
X91940957Y-93993692D01*
X91942465Y-93874642D01*
X92103076Y-93874642D01*
X92103076Y-94123013D01*
X92235540Y-94123013D01*
X92368004Y-94123013D01*
X92367552Y-93949153D01*
X92363516Y-93833688D01*
X92353757Y-93735227D01*
X92347132Y-93700783D01*
X92317096Y-93647416D01*
X92252444Y-93627552D01*
X92215120Y-93626272D01*
X92103076Y-93626272D01*
X92103076Y-93874642D01*
X91942465Y-93874642D01*
X91942624Y-93862113D01*
X91944559Y-93788771D01*
X91954054Y-93444134D01*
X92227261Y-93434516D01*
X92500469Y-93424897D01*
X92500469Y-93773955D01*
G37*
%TD.AperFunction*%
%TA.AperFunction,EtchedComponent*%
G36*
X92020865Y-92347396D02*
G01*
X92117098Y-92375475D01*
X92254583Y-92417752D01*
X92422511Y-92470905D01*
X92599817Y-92528262D01*
X93179347Y-92717602D01*
X93188869Y-93022915D01*
X93198391Y-93328228D01*
X93114358Y-93328228D01*
X93070222Y-93324897D01*
X93045090Y-93305214D01*
X93033617Y-93254641D01*
X93030458Y-93158639D01*
X93030325Y-93099655D01*
X93029083Y-92979151D01*
X93020922Y-92907975D01*
X92999188Y-92869223D01*
X92957226Y-92845993D01*
X92926035Y-92834727D01*
X92851964Y-92809994D01*
X92811325Y-92798478D01*
X92810129Y-92798371D01*
X92803144Y-92827967D01*
X92799003Y-92902694D01*
X92798513Y-92944651D01*
X92798513Y-93090930D01*
X92392793Y-93226137D01*
X92238708Y-93276879D01*
X92107523Y-93318937D01*
X92011889Y-93348338D01*
X91964458Y-93361108D01*
X91962284Y-93361344D01*
X91941489Y-93334738D01*
X91938562Y-93274852D01*
X91951495Y-93211588D01*
X91974682Y-93176690D01*
X92020544Y-93156147D01*
X92113178Y-93119852D01*
X92236822Y-93073871D01*
X92314121Y-93046014D01*
X92454428Y-92994555D01*
X92543811Y-92955960D01*
X92594278Y-92922437D01*
X92617834Y-92886193D01*
X92626082Y-92843509D01*
X92627708Y-92800979D01*
X92615254Y-92768573D01*
X92578041Y-92739495D01*
X92505387Y-92706949D01*
X92386612Y-92664138D01*
X92294922Y-92632791D01*
X92143958Y-92580214D01*
X92044812Y-92540885D01*
X91986140Y-92508120D01*
X91956596Y-92475237D01*
X91944837Y-92435553D01*
X91943575Y-92425816D01*
X91948735Y-92354349D01*
X91976691Y-92336834D01*
X92020865Y-92347396D01*
G37*
%TD.AperFunction*%
%TA.AperFunction,EtchedComponent*%
G36*
X92930977Y-91749443D02*
G01*
X92930036Y-91913672D01*
X92925642Y-92025410D01*
X92915442Y-92098390D01*
X92897082Y-92146345D01*
X92868206Y-92183007D01*
X92854332Y-92196510D01*
X92794184Y-92239222D01*
X92715952Y-92261308D01*
X92653824Y-92265030D01*
X92597641Y-92268396D01*
X92572845Y-92268515D01*
X92368004Y-92268515D01*
X92368004Y-92024284D01*
X92365174Y-91887238D01*
X92357753Y-91762413D01*
X92349837Y-91697263D01*
X92500833Y-91697263D01*
X92507085Y-91821032D01*
X92521620Y-91945001D01*
X92521724Y-91945633D01*
X92540716Y-92027112D01*
X92574693Y-92062024D01*
X92644312Y-92069787D01*
X92653824Y-92069818D01*
X92765397Y-92069818D01*
X92765397Y-91821448D01*
X92765397Y-91573078D01*
X92632933Y-91573078D01*
X92548151Y-91576401D01*
X92510537Y-91598318D01*
X92501028Y-91656747D01*
X92500833Y-91697263D01*
X92349837Y-91697263D01*
X92347346Y-91676762D01*
X92347307Y-91676565D01*
X92324441Y-91605258D01*
X92279217Y-91577231D01*
X92214843Y-91573078D01*
X92103076Y-91573078D01*
X92103076Y-91906541D01*
X92102476Y-92057358D01*
X92098883Y-92153592D01*
X92089609Y-92206892D01*
X92071966Y-92228909D01*
X92043266Y-92231291D01*
X92028565Y-92229423D01*
X91994432Y-92220726D01*
X91972153Y-92197966D01*
X91958623Y-92148624D01*
X91950735Y-92060184D01*
X91945380Y-91920130D01*
X91944514Y-91890809D01*
X91941014Y-91739861D01*
X91943082Y-91639278D01*
X91953741Y-91573240D01*
X91976015Y-91525927D01*
X92012929Y-91481521D01*
X92025220Y-91468579D01*
X92064923Y-91429287D01*
X92103758Y-91402796D01*
X92155066Y-91386583D01*
X92232187Y-91378125D01*
X92348460Y-91374899D01*
X92517227Y-91374382D01*
X92523222Y-91374382D01*
X92930977Y-91374382D01*
X92930977Y-91749443D01*
G37*
%TD.AperFunction*%
%TA.AperFunction,EtchedComponent*%
G36*
X94520547Y-95690252D02*
G01*
X94519606Y-95854480D01*
X94515212Y-95966218D01*
X94505012Y-96039198D01*
X94486652Y-96087153D01*
X94457776Y-96123815D01*
X94443901Y-96137318D01*
X94383753Y-96180030D01*
X94305522Y-96202117D01*
X94243393Y-96205839D01*
X94187211Y-96209205D01*
X94162415Y-96209323D01*
X93957574Y-96209323D01*
X93957574Y-95965092D01*
X93954744Y-95828046D01*
X93947323Y-95703222D01*
X93939407Y-95638071D01*
X94090403Y-95638071D01*
X94096655Y-95761841D01*
X94111190Y-95885809D01*
X94111294Y-95886442D01*
X94130286Y-95967921D01*
X94164263Y-96002832D01*
X94233882Y-96010596D01*
X94243393Y-96010627D01*
X94354967Y-96010627D01*
X94354967Y-95762256D01*
X94354967Y-95513886D01*
X94222502Y-95513886D01*
X94137721Y-95517210D01*
X94100106Y-95539126D01*
X94090598Y-95597555D01*
X94090403Y-95638071D01*
X93939407Y-95638071D01*
X93936916Y-95617570D01*
X93936877Y-95617374D01*
X93914011Y-95546067D01*
X93868787Y-95518039D01*
X93804413Y-95513886D01*
X93692646Y-95513886D01*
X93692646Y-95847350D01*
X93692046Y-95998166D01*
X93688453Y-96094400D01*
X93679179Y-96147701D01*
X93661536Y-96169717D01*
X93632836Y-96172099D01*
X93618135Y-96170231D01*
X93584001Y-96161535D01*
X93561723Y-96138774D01*
X93548193Y-96089432D01*
X93540304Y-96000992D01*
X93534950Y-95860938D01*
X93534083Y-95831617D01*
X93530584Y-95680670D01*
X93532651Y-95580086D01*
X93543311Y-95514048D01*
X93565585Y-95466735D01*
X93602498Y-95422329D01*
X93614790Y-95409388D01*
X93654493Y-95370095D01*
X93693328Y-95343604D01*
X93744636Y-95327391D01*
X93821757Y-95318934D01*
X93938030Y-95315708D01*
X94106797Y-95315190D01*
X94112792Y-95315190D01*
X94520547Y-95315190D01*
X94520547Y-95690252D01*
G37*
%TD.AperFunction*%
%TD*%
D11*
%TO.P,J1,SH,SHIELD_SH*%
%TO.N,GND*%
X114170000Y-57335000D03*
D12*
X114170000Y-61515000D03*
D11*
X122810000Y-57335000D03*
D12*
X122810000Y-61515000D03*
D13*
%TO.P,J1,B12,GND_B12*%
X121740000Y-62430000D03*
%TO.P,J1,B9,VBUS_B9*%
%TO.N,VCC*%
X120940000Y-62430000D03*
D14*
%TO.P,J1,B8*%
%TO.N,N/C*%
X120240000Y-62430000D03*
%TO.P,J1,B7,D-_B7*%
%TO.N,USB_D_N*%
X119240000Y-62430000D03*
%TO.P,J1,B6,D+_B6*%
%TO.N,USB_D_P*%
X117740000Y-62430000D03*
%TO.P,J1,B5,CC2_B5*%
%TO.N,Net-(J1-CC2)*%
X116740000Y-62430000D03*
D13*
%TO.P,J1,B4,VBUS_B4*%
%TO.N,VCC*%
X116040000Y-62430000D03*
%TO.P,J1,B1,GND_B1*%
%TO.N,GND*%
X115240000Y-62430000D03*
%TO.P,J1,A12,GND_A12*%
X115240000Y-62430000D03*
%TO.P,J1,A9,VBUS_A9*%
%TO.N,VCC*%
X116040000Y-62430000D03*
D14*
%TO.P,J1,A8*%
%TO.N,N/C*%
X117240000Y-62430000D03*
%TO.P,J1,A7,D-_A7*%
%TO.N,USB_D_N*%
X118240000Y-62430000D03*
%TO.P,J1,A6,D+_A6*%
%TO.N,USB_D_P*%
X118740000Y-62430000D03*
%TO.P,J1,A5,CC1_A5*%
%TO.N,Net-(J1-CC1)*%
X119740000Y-62430000D03*
D13*
%TO.P,J1,A4,VBUS_A4*%
%TO.N,VCC*%
X120940000Y-62430000D03*
%TO.P,J1,A1,GND_A1*%
%TO.N,GND*%
X121740000Y-62430000D03*
%TD*%
D15*
%TO.P,U4,3,VIN_3*%
%TO.N,+3V3*%
X128778000Y-73152000D03*
%TO.P,U4,2,VOUT_2*%
%TO.N,+1V8*%
X127828000Y-70852000D03*
%TO.P,U4,1,GND_1*%
%TO.N,GND*%
X129728000Y-70852000D03*
%TD*%
D16*
%TO.P,C3,1,~_1*%
%TO.N,EN*%
X101305000Y-87270000D03*
%TO.P,C3,2,~_2*%
%TO.N,GND*%
X99755000Y-87270000D03*
%TD*%
D17*
%TO.P,U7,1,~{OE}_1*%
%TO.N,GND*%
X109950000Y-69810000D03*
%TO.P,U7,2,A_2*%
%TO.N,LED*%
X109950000Y-70460000D03*
%TO.P,U7,3,GND_3*%
%TO.N,GND*%
X109950000Y-71110000D03*
%TO.P,U7,4,Y_4*%
%TO.N,Net-(U7-Y)*%
X112050000Y-71110000D03*
%TO.P,U7,5,VCC_5*%
%TO.N,VCC*%
X112050000Y-69810000D03*
%TD*%
D18*
%TO.P,U5,1,VIN_1*%
%TO.N,VCC*%
X121098000Y-74046000D03*
%TO.P,U5,2,GND_2*%
%TO.N,GND*%
X121098000Y-74996000D03*
%TO.P,U5,3,EN_3*%
%TO.N,VCC*%
X121098000Y-75946000D03*
%TO.P,U5,4,NC_4*%
%TO.N,unconnected-(U5-NC-Pad4)*%
X123698000Y-75946000D03*
%TO.P,U5,5,VOUT_5*%
%TO.N,+3V3*%
X123698000Y-74046000D03*
%TD*%
D19*
%TO.P,C11,1,~_1*%
%TO.N,+3V3*%
X124206000Y-72390000D03*
%TO.P,C11,2,~_2*%
%TO.N,GND*%
X124206000Y-70840000D03*
%TD*%
D20*
%TO.P,R10,1*%
%TO.N,+3V3*%
X122450000Y-83950000D03*
%TO.P,R10,2*%
%TO.N,SDA*%
X122450000Y-82300000D03*
%TD*%
D21*
%TO.P,C5,1,~_1*%
%TO.N,+3V3*%
X95758000Y-85471000D03*
%TO.P,C5,2,~_2*%
%TO.N,GND*%
X95758000Y-87021000D03*
%TD*%
D22*
%TO.P,Reset1,1,1_1*%
%TO.N,GND*%
X98100000Y-94850000D03*
X98100000Y-89600000D03*
%TO.P,Reset1,2,2_2*%
%TO.N,EN*%
X101300000Y-94850000D03*
X101300000Y-89600000D03*
%TD*%
D23*
%TO.P,R9,1*%
%TO.N,+3V3*%
X120610000Y-79635000D03*
%TO.P,R9,2*%
%TO.N,SCL*%
X120610000Y-81285000D03*
%TD*%
D19*
%TO.P,C10,1,~_1*%
%TO.N,+1V8*%
X125984000Y-72390000D03*
%TO.P,C10,2,~_2*%
%TO.N,GND*%
X125984000Y-70840000D03*
%TD*%
D23*
%TO.P,R6,1*%
%TO.N,Net-(J1-CC1)*%
X119680000Y-64650000D03*
%TO.P,R6,2*%
%TO.N,GND*%
X119680000Y-66300000D03*
%TD*%
D19*
%TO.P,C9,1,~_1*%
%TO.N,VCC*%
X119634000Y-72644000D03*
%TO.P,C9,2,~_2*%
%TO.N,GND*%
X119634000Y-71094000D03*
%TD*%
D24*
%TO.P,R1,1*%
%TO.N,+3V3*%
X109220000Y-87630000D03*
%TO.P,R1,2*%
%TO.N,Net-(U3-IO9)*%
X107570000Y-87630000D03*
%TD*%
D25*
%TO.P,R2,1*%
%TO.N,+3V3*%
X99715000Y-85580000D03*
%TO.P,R2,2*%
%TO.N,EN*%
X101365000Y-85580000D03*
%TD*%
D19*
%TO.P,C8,1,~_1*%
%TO.N,VCC*%
X110490000Y-63246000D03*
%TO.P,C8,2,~_2*%
%TO.N,GND*%
X110490000Y-61696000D03*
%TD*%
D20*
%TO.P,R5,1*%
%TO.N,Net-(U7-Y)*%
X113700000Y-70900000D03*
%TO.P,R5,2*%
%TO.N,Net-(D1-DIN)*%
X113700000Y-69250000D03*
%TD*%
D22*
%TO.P,Boot1,1,1_1*%
%TO.N,GND*%
X104242000Y-94996000D03*
X104242000Y-89746000D03*
%TO.P,Boot1,2,2_2*%
%TO.N,Net-(U3-IO9)*%
X107442000Y-94996000D03*
X107442000Y-89746000D03*
%TD*%
D21*
%TO.P,C6,1,~_1*%
%TO.N,+3V3*%
X97409000Y-85470400D03*
%TO.P,C6,2,~_2*%
%TO.N,GND*%
X97409000Y-87020400D03*
%TD*%
D26*
%TO.P,D1,1,DOUT_1*%
%TO.N,Net-(D1-DOUT)*%
X108768000Y-65306000D03*
%TO.P,D1,2,VSS_2*%
%TO.N,GND*%
X108768000Y-67056000D03*
%TO.P,D1,3,DIN_3*%
%TO.N,Net-(D1-DIN)*%
X112268000Y-67056000D03*
%TO.P,D1,4,VDD_4*%
%TO.N,VCC*%
X112268000Y-65306000D03*
%TD*%
D27*
%TO.P,U3,1,GND_1*%
%TO.N,GND*%
X95900000Y-83300000D03*
%TO.P,U3,2,GND_2*%
X96700000Y-83300000D03*
%TO.P,U3,3,3V3_3*%
%TO.N,+3V3*%
X97500000Y-83300000D03*
%TO.P,U3,4,NC_4*%
%TO.N,unconnected-(U3-NC-Pad4)*%
X98300000Y-83300000D03*
%TO.P,U3,5,IO2_5*%
%TO.N,unconnected-(U3-IO2-Pad5)*%
X99100000Y-83300000D03*
%TO.P,U3,6,IO3_6*%
%TO.N,unconnected-(U3-IO3-Pad6)*%
X99900000Y-83300000D03*
%TO.P,U3,7,NC_7*%
%TO.N,unconnected-(U3-NC-Pad7)*%
X100700000Y-83300000D03*
%TO.P,U3,8,EN_8*%
%TO.N,EN*%
X101500000Y-83300000D03*
%TO.P,U3,9,IO4_9*%
%TO.N,unconnected-(U3-IO4-Pad9)*%
X102300000Y-83300000D03*
%TO.P,U3,10,IO5_10*%
%TO.N,unconnected-(U3-IO5-Pad10)*%
X103100000Y-83300000D03*
%TO.P,U3,11,GND_11*%
%TO.N,GND*%
X103900000Y-83300000D03*
D17*
%TO.P,U3,12,IO0_12*%
%TO.N,SDA*%
X104800000Y-82200000D03*
%TO.P,U3,13,IO1_13*%
%TO.N,SCL*%
X104800000Y-81400000D03*
%TO.P,U3,14,GND_14*%
%TO.N,GND*%
X104800000Y-80600000D03*
%TO.P,U3,15,IO6_15*%
%TO.N,unconnected-(U3-IO6-Pad15)*%
X104800000Y-79800000D03*
%TO.P,U3,16,IO7_16*%
%TO.N,unconnected-(U3-IO7-Pad16)*%
X104800000Y-79000000D03*
%TO.P,U3,17,IO12_17*%
%TO.N,USB_D_N*%
X104800000Y-78200000D03*
%TO.P,U3,18,IO13_18*%
%TO.N,USB_D_P*%
X104800000Y-77400000D03*
%TO.P,U3,19,IO14_19*%
%TO.N,unconnected-(U3-IO14-Pad19)*%
X104800000Y-76600000D03*
%TO.P,U3,20,IO15_20*%
%TO.N,unconnected-(U3-IO15-Pad20)*%
X104800000Y-75800000D03*
%TO.P,U3,21,NC_21*%
%TO.N,unconnected-(U3-NC-Pad21)*%
X104800000Y-75000000D03*
%TO.P,U3,22,IO8_22*%
%TO.N,unconnected-(U3-IO8-Pad22)*%
X104800000Y-74200000D03*
%TO.P,U3,23,IO9_23*%
%TO.N,Net-(U3-IO9)*%
X104800000Y-73400000D03*
%TO.P,U3,24,IO18_24*%
%TO.N,LED*%
X104800000Y-72600000D03*
D27*
%TO.P,U3,25,IO19_25*%
%TO.N,unconnected-(U3-IO19-Pad25)*%
X103900000Y-71500000D03*
%TO.P,U3,26,IO20_26*%
%TO.N,unconnected-(U3-IO20-Pad26)*%
X103100000Y-71500000D03*
%TO.P,U3,27,IO21_27*%
%TO.N,unconnected-(U3-IO21-Pad27)*%
X102300000Y-71500000D03*
%TO.P,U3,28,IO22_28*%
%TO.N,unconnected-(U3-IO22-Pad28)*%
X101500000Y-71500000D03*
%TO.P,U3,29,IO23_29*%
%TO.N,unconnected-(U3-IO23-Pad29)*%
X100700000Y-71500000D03*
%TO.P,U3,30,RXD0_30*%
%TO.N,unconnected-(U3-RXD0-Pad30)*%
X99900000Y-71500000D03*
%TO.P,U3,31,TXD0_31*%
%TO.N,unconnected-(U3-TXD0-Pad31)*%
X99100000Y-71500000D03*
%TO.P,U3,32,NC_32*%
%TO.N,unconnected-(U3-NC-Pad32)*%
X98300000Y-71500000D03*
%TO.P,U3,33,NC_33*%
%TO.N,unconnected-(U3-NC-Pad33)*%
X97500000Y-71500000D03*
%TO.P,U3,34,NC_34*%
%TO.N,unconnected-(U3-NC-Pad34)*%
X96700000Y-71500000D03*
%TO.P,U3,35,NC_35*%
%TO.N,unconnected-(U3-NC-Pad35)*%
X95900000Y-71500000D03*
D17*
%TO.P,U3,36,GND_36*%
%TO.N,GND*%
X95000000Y-72600000D03*
%TO.P,U3,37,GND_37*%
X95000000Y-73400000D03*
%TO.P,U3,38,GND_38*%
X95000000Y-74200000D03*
%TO.P,U3,39,GND_39*%
X95000000Y-75000000D03*
%TO.P,U3,40,GND_40*%
X95000000Y-75800000D03*
%TO.P,U3,41,GND_41*%
X95000000Y-76600000D03*
%TO.P,U3,42,GND_42*%
X95000000Y-77400000D03*
%TO.P,U3,43,GND_43*%
X95000000Y-78200000D03*
%TO.P,U3,44,GND_44*%
X95000000Y-79000000D03*
%TO.P,U3,45,GND_45*%
X95000000Y-79800000D03*
%TO.P,U3,46,GND_46*%
X95000000Y-80600000D03*
%TO.P,U3,47,GND_47*%
X95000000Y-81400000D03*
%TO.P,U3,48,GND_48*%
X95000000Y-82200000D03*
D28*
%TO.P,U3,49,GND_49*%
X97925000Y-79375000D03*
D29*
X99900000Y-79375000D03*
X101875000Y-79375000D03*
X97925000Y-77400000D03*
X99900000Y-77400000D03*
X101875000Y-77400000D03*
X97925000Y-75425000D03*
X99900000Y-75425000D03*
X101875000Y-75425000D03*
D30*
%TO.P,U3,50,GND_50*%
X94950000Y-71450000D03*
%TO.P,U3,51,GND_51*%
X104850000Y-71450000D03*
%TO.P,U3,52,GND_52*%
X104850000Y-83350000D03*
%TO.P,U3,53,GND_53*%
X94950000Y-83350000D03*
%TD*%
D26*
%TO.P,D2,1,DOUT_1*%
%TO.N,unconnected-(D2-DOUT-Pad1)*%
X102418000Y-65306000D03*
%TO.P,D2,2,VSS_2*%
%TO.N,GND*%
X102418000Y-67056000D03*
%TO.P,D2,3,DIN_3*%
%TO.N,Net-(D1-DOUT)*%
X105918000Y-67056000D03*
%TO.P,D2,4,VDD_4*%
%TO.N,VCC*%
X105918000Y-65306000D03*
%TD*%
D23*
%TO.P,R7,1*%
%TO.N,Net-(J1-CC2)*%
X116720000Y-64535000D03*
%TO.P,R7,2*%
%TO.N,GND*%
X116720000Y-66185000D03*
%TD*%
D19*
%TO.P,C7,1,~_1*%
%TO.N,VCC*%
X108712000Y-63259000D03*
%TO.P,C7,2,~_2*%
%TO.N,GND*%
X108712000Y-61709000D03*
%TD*%
%TO.P,C12,1,~_1*%
%TO.N,+3V3*%
X122428000Y-72390000D03*
%TO.P,C12,2,~_2*%
%TO.N,GND*%
X122428000Y-70840000D03*
%TD*%
D31*
%TO.P,C14,1,~_1*%
%TO.N,+1V8*%
X129850000Y-59780000D03*
%TO.P,C14,2,~_2*%
%TO.N,GND*%
X131400000Y-59780000D03*
%TD*%
%TO.P,C13,1,~_1*%
%TO.N,+1V8*%
X129825000Y-58020000D03*
%TO.P,C13,2,~_2*%
%TO.N,GND*%
X131375000Y-58020000D03*
%TD*%
D19*
%TO.P,C15,1,~_1*%
%TO.N,GND*%
X128400000Y-64650000D03*
%TO.P,C15,2,~_2*%
%TO.N,+3V3*%
X128400000Y-63100000D03*
%TD*%
D32*
%TO.P,U6,1,GND_1*%
%TO.N,GND*%
X132690000Y-61530000D03*
%TO.P,U6,2,CSB_2*%
%TO.N,+3V3*%
X132690000Y-62330000D03*
%TO.P,U6,3,SDI_3*%
%TO.N,SDA*%
X132690000Y-63130000D03*
%TO.P,U6,4,SCK_4*%
%TO.N,SCL*%
X132690000Y-63930000D03*
%TO.P,U6,5,SDO_5*%
%TO.N,GND*%
X129850000Y-63930000D03*
%TO.P,U6,6,VDDIO_6*%
%TO.N,+3V3*%
X129850000Y-63130000D03*
%TO.P,U6,7,GND_7*%
%TO.N,GND*%
X129850000Y-62330000D03*
%TO.P,U6,8,VDD_8*%
%TO.N,+1V8*%
X129850000Y-61530000D03*
%TD*%
D19*
%TO.P,C4,1,~_1*%
%TO.N,+3V3*%
X126492000Y-95504000D03*
%TO.P,C4,2,~_2*%
%TO.N,GND*%
X126492000Y-93954000D03*
%TD*%
D33*
%TO.P,U1,1,VDD_1*%
%TO.N,+3V3*%
X128623000Y-95471000D03*
%TO.P,U1,2,SCL_2*%
%TO.N,SCL*%
X129573000Y-95471000D03*
%TO.P,U1,3,SDA_3*%
%TO.N,SDA*%
X129573000Y-93571000D03*
%TO.P,U1,4,GND_4*%
%TO.N,GND*%
X128623000Y-93571000D03*
D34*
%TO.P,U1,5,GND_5*%
X129098000Y-94521000D03*
%TD*%
D35*
%TO.N,+3V3*%
X121051042Y-87630000D03*
%TO.N,GND*%
X125490000Y-69430000D03*
X119634000Y-69490000D03*
X112620000Y-74380000D03*
X118270000Y-73620000D03*
X131770000Y-69440000D03*
%TO.N,+3V3*%
X98386880Y-87718880D03*
%TO.N,SDA*%
X124360000Y-82820000D03*
X131318000Y-82296000D03*
%TO.N,SCL*%
X124400000Y-80840000D03*
X132588000Y-81280000D03*
%TO.N,Net-(U3-IO9)*%
X108966000Y-85344000D03*
X109000000Y-74990000D03*
%TO.N,GND*%
X129438400Y-86283800D03*
%TO.N,SCL*%
X132900000Y-65030000D03*
%TO.N,GND*%
X130378200Y-92240000D03*
%TD*%
%TO.N,VCC*%
D36*
X115125676Y-69011972D02*
X115125676Y-64725676D01*
X114318824Y-69818824D02*
X115125676Y-69011972D01*
X114318824Y-69818824D02*
X114187648Y-69950000D01*
X116040000Y-63811352D02*
X115125676Y-64725676D01*
X113374000Y-65306000D02*
X112268000Y-64200000D01*
X114545352Y-65306000D02*
X113374000Y-65306000D01*
X116040000Y-62430000D02*
X116040000Y-63811352D01*
X115125676Y-64725676D02*
X114545352Y-65306000D01*
D37*
X112268000Y-64200000D02*
X112268000Y-65306000D01*
%TO.N,SDA*%
D36*
X131318000Y-82296000D02*
X132842000Y-83820000D01*
%TO.N,+1V8*%
X125984000Y-72390000D02*
X127670000Y-72390000D01*
X127828000Y-72208000D02*
X127828000Y-70852000D01*
%TO.N,EN*%
X101472000Y-86520000D02*
X101500000Y-86492000D01*
X101472000Y-86520000D02*
X101472000Y-89536000D01*
X101500000Y-86492000D02*
X101500000Y-83300000D01*
X101346000Y-94912000D02*
X101346000Y-89662000D01*
X101472000Y-89536000D02*
X101346000Y-89662000D01*
X101472000Y-85852000D02*
X101472000Y-86520000D01*
%TO.N,GND*%
X121740000Y-62430000D02*
X121895000Y-62430000D01*
X125510000Y-69450000D02*
X125490000Y-69430000D01*
X103950000Y-83350000D02*
X103900000Y-83300000D01*
X99755000Y-87270000D02*
X99755000Y-87945000D01*
X119634000Y-66103000D02*
X119634000Y-68960000D01*
X113370000Y-74380000D02*
X112620000Y-74380000D01*
X132103524Y-64733524D02*
X132103524Y-69106476D01*
X116720000Y-66185000D02*
X117340000Y-66805000D01*
X132103524Y-69106476D02*
X131770000Y-69440000D01*
X115240000Y-62430000D02*
X115085000Y-62430000D01*
X123904986Y-56240014D02*
X122810000Y-57335000D01*
X119634000Y-68960000D02*
X119634000Y-71094000D01*
X118861800Y-74996000D02*
X118270000Y-74404200D01*
X125510000Y-69480000D02*
X125510000Y-69450000D01*
X117340000Y-70410000D02*
X113370000Y-74380000D01*
X122428000Y-70840000D02*
X123190000Y-70840000D01*
X125984000Y-70840000D02*
X125984000Y-69954000D01*
X118270000Y-74404200D02*
X118270000Y-73620000D01*
X121098000Y-74996000D02*
X118861800Y-74996000D01*
X125984000Y-69954000D02*
X125510000Y-69480000D01*
X129645186Y-56240014D02*
X123904986Y-56240014D01*
X123190000Y-70840000D02*
X124206000Y-70840000D01*
X104850000Y-83350000D02*
X103950000Y-83350000D01*
X115085000Y-62430000D02*
X114170000Y-61515000D01*
X103100000Y-80600000D02*
X101875000Y-79375000D01*
X123190000Y-70840000D02*
X125984000Y-70840000D01*
X104800000Y-80600000D02*
X103100000Y-80600000D01*
X117340000Y-66805000D02*
X117340000Y-70410000D01*
X99755000Y-87945000D02*
X98100000Y-89600000D01*
X122428000Y-70840000D02*
X125984000Y-70840000D01*
X121895000Y-62430000D02*
X122810000Y-61515000D01*
%TO.N,LED*%
X104844000Y-72644000D02*
X104800000Y-72600000D01*
X109040000Y-70460000D02*
X106900000Y-72600000D01*
X106900000Y-72600000D02*
X104800000Y-72600000D01*
X109950000Y-70460000D02*
X109040000Y-70460000D01*
%TO.N,Net-(U7-Y)*%
X112260000Y-70900000D02*
X112050000Y-71110000D01*
X113700000Y-70900000D02*
X112260000Y-70900000D01*
%TO.N,VCC*%
X112190000Y-69950000D02*
X112050000Y-69810000D01*
X120239999Y-61005000D02*
X116534594Y-61005000D01*
D37*
X122180500Y-75837000D02*
X122071500Y-75946000D01*
X121098000Y-73680000D02*
X120670000Y-73680000D01*
X121098000Y-74046000D02*
X122071500Y-74046000D01*
X122180500Y-74155000D02*
X122180500Y-75837000D01*
D36*
X120940000Y-62430000D02*
X120940000Y-61705001D01*
D37*
X122071500Y-74046000D02*
X122180500Y-74155000D01*
X112268000Y-63754000D02*
X112268000Y-64200000D01*
X111760000Y-63246000D02*
X112268000Y-63754000D01*
X121098000Y-63478822D02*
X121098000Y-73680000D01*
D36*
X116040000Y-61499594D02*
X116040000Y-62430000D01*
D37*
X122071500Y-75946000D02*
X121098000Y-75946000D01*
D36*
X120940000Y-61705001D02*
X120239999Y-61005000D01*
D37*
X105918000Y-64008000D02*
X106680000Y-63246000D01*
X120920000Y-63300822D02*
X121098000Y-63478822D01*
X106680000Y-63246000D02*
X111760000Y-63246000D01*
X121098000Y-73680000D02*
X121098000Y-74046000D01*
D36*
X120940000Y-62430000D02*
X120940000Y-64226000D01*
X116534594Y-61005000D02*
X116040000Y-61499594D01*
D37*
X120670000Y-73680000D02*
X119634000Y-72644000D01*
D36*
X114187648Y-69950000D02*
X112190000Y-69950000D01*
D37*
X105918000Y-65306000D02*
X105918000Y-64008000D01*
%TO.N,+3V3*%
D36*
X125355623Y-67910000D02*
X125356440Y-67910812D01*
X125851261Y-67910000D02*
X127670000Y-67910000D01*
X124206000Y-72390000D02*
X124206000Y-74554000D01*
X124206000Y-74554000D02*
X124648000Y-74996000D01*
X97409000Y-85470400D02*
X98272600Y-85470400D01*
X124580000Y-78670000D02*
X125222000Y-78028000D01*
D38*
X111506000Y-87630000D02*
X116078000Y-87630000D01*
D36*
X125002998Y-67310566D02*
X125002551Y-67557441D01*
X125003451Y-66716356D02*
X125003189Y-67061283D01*
X127348528Y-57400000D02*
X125461472Y-57400000D01*
X125354283Y-67909811D02*
X125354472Y-67910000D01*
X99822000Y-85852000D02*
X98552000Y-87122000D01*
X121040000Y-78670000D02*
X124580000Y-78670000D01*
X125356440Y-67910812D02*
X125603516Y-67910002D01*
X125002551Y-67557441D02*
X125002811Y-67557702D01*
X123698000Y-74046000D02*
X125222000Y-75570000D01*
X95758600Y-85470400D02*
X95758000Y-85471000D01*
X125354016Y-67909811D02*
X125354283Y-67909811D01*
X97409000Y-85470400D02*
X95758600Y-85470400D01*
X99440400Y-85470400D02*
X99822000Y-85852000D01*
D38*
X125222000Y-77860000D02*
X125222000Y-78028000D01*
D36*
X125003000Y-67061472D02*
X125003000Y-67062623D01*
X125003818Y-67560494D02*
X125179062Y-67734593D01*
X125003000Y-67558261D02*
X125003000Y-67558528D01*
X97500000Y-84697800D02*
X98272600Y-85470400D01*
X125851072Y-67910189D02*
X125851261Y-67910000D01*
X125353385Y-67909549D02*
X125353755Y-67909550D01*
X125603516Y-67910002D02*
X125850441Y-67910449D01*
D38*
X125222000Y-76708000D02*
X125222000Y-77860000D01*
D36*
X124648000Y-74996000D02*
X128204000Y-74996000D01*
X98272600Y-85470400D02*
X99440400Y-85470400D01*
X122428000Y-72776000D02*
X123698000Y-74046000D01*
X125222000Y-75570000D02*
X125222000Y-76708000D01*
X120610000Y-79635000D02*
X120610000Y-79100000D01*
D38*
X116078000Y-87630000D02*
X117070000Y-87630000D01*
X109220000Y-87630000D02*
X111506000Y-87630000D01*
D36*
X122450000Y-83950000D02*
X122450000Y-86231042D01*
X125002811Y-67558072D02*
X125003000Y-67558261D01*
X125003000Y-67558528D02*
X125003814Y-67559342D01*
X125003000Y-67062623D02*
X125002188Y-67063440D01*
X125003814Y-67559342D02*
X125003818Y-67560494D01*
X125353755Y-67909550D02*
X125354016Y-67909811D01*
X98552000Y-87553760D02*
X98386880Y-87718880D01*
X125002811Y-67557702D02*
X125002811Y-67558072D01*
X125003451Y-57858021D02*
X125003451Y-66716356D01*
X122428000Y-72390000D02*
X122428000Y-72776000D01*
X125850441Y-67910449D02*
X125850702Y-67910189D01*
X97500000Y-83300000D02*
X97500000Y-84697800D01*
X125354472Y-67910000D02*
X125355623Y-67910000D01*
X125461472Y-57400000D02*
X125003451Y-57858021D01*
D38*
X125222000Y-78028000D02*
X125222000Y-83459042D01*
D36*
X125002188Y-67063440D02*
X125002998Y-67310566D01*
D38*
X125222000Y-83459042D02*
X122450000Y-86231042D01*
D36*
X123698000Y-74046000D02*
X124206000Y-74554000D01*
X125850702Y-67910189D02*
X125851072Y-67910189D01*
X125179062Y-67734593D02*
X125353385Y-67909549D01*
X98552000Y-87122000D02*
X98552000Y-87553760D01*
X120610000Y-79100000D02*
X121040000Y-78670000D01*
X127670000Y-67910000D02*
X128778000Y-69018000D01*
X125003189Y-67061283D02*
X125003000Y-67061472D01*
%TO.N,SDA*%
X104800000Y-82200000D02*
X123740000Y-82200000D01*
X131318000Y-81280000D02*
X133800000Y-78798000D01*
X123740000Y-82200000D02*
X124360000Y-82820000D01*
X133800000Y-78798000D02*
X133800000Y-63680000D01*
X131318000Y-82296000D02*
X131318000Y-81280000D01*
%TO.N,SCL*%
X133258000Y-92186000D02*
X133258000Y-81950000D01*
X133258000Y-81950000D02*
X132588000Y-81280000D01*
X104800000Y-81400000D02*
X123840000Y-81400000D01*
X123840000Y-81400000D02*
X124400000Y-80840000D01*
%TO.N,Net-(J1-CC1)*%
X119740000Y-62430000D02*
X119740000Y-64590000D01*
X119740000Y-64590000D02*
X119680000Y-64650000D01*
%TO.N,USB_D_P*%
X118740000Y-61672590D02*
X118740000Y-62430000D01*
X118007590Y-61405000D02*
X118472410Y-61405000D01*
X110836802Y-77575000D02*
X117765000Y-70646802D01*
X117765000Y-70646802D02*
X117765000Y-63542501D01*
X117765000Y-63542501D02*
X117740000Y-63517501D01*
X117740000Y-62430000D02*
X117740000Y-61672590D01*
X118472410Y-61405000D02*
X118740000Y-61672590D01*
X105575001Y-77575000D02*
X110836802Y-77575000D01*
X104800000Y-77400000D02*
X105400001Y-77400000D01*
X105400001Y-77400000D02*
X105575001Y-77575000D01*
X117740000Y-61672590D02*
X118007590Y-61405000D01*
X117740000Y-63517501D02*
X117740000Y-62430000D01*
%TO.N,USB_D_N*%
X118215000Y-63542501D02*
X118240000Y-63517501D01*
X119240000Y-63187410D02*
X119240000Y-62430000D01*
X118240000Y-62430000D02*
X118240000Y-63187410D01*
X118240000Y-63517501D02*
X118240000Y-62430000D01*
X118972410Y-63455000D02*
X119240000Y-63187410D01*
X105400001Y-78200000D02*
X105575001Y-78025000D01*
X118507590Y-63455000D02*
X118972410Y-63455000D01*
X118215000Y-70833198D02*
X118215000Y-63542501D01*
X104800000Y-78200000D02*
X105400001Y-78200000D01*
X111023198Y-78025000D02*
X118215000Y-70833198D01*
X105575001Y-78025000D02*
X111023198Y-78025000D01*
X118240000Y-63187410D02*
X118507590Y-63455000D01*
%TO.N,Net-(J1-CC2)*%
X116740000Y-62430000D02*
X116740000Y-64299000D01*
X116720000Y-62450000D02*
X116740000Y-62430000D01*
%TO.N,Net-(U3-IO9)*%
X108966000Y-85344000D02*
X107442000Y-86868000D01*
X107442000Y-86868000D02*
X107442000Y-89746000D01*
X108760000Y-73400000D02*
X109000000Y-73640000D01*
X109000000Y-73640000D02*
X109000000Y-74990000D01*
X107442000Y-94996000D02*
X107442000Y-86868000D01*
X104800000Y-73400000D02*
X108760000Y-73400000D01*
%TO.N,Net-(D1-DIN)*%
X113700000Y-69250000D02*
X113700000Y-67346000D01*
X113700000Y-67346000D02*
X113410000Y-67056000D01*
X112268000Y-67056000D02*
X113410000Y-67056000D01*
%TO.N,Net-(D1-DOUT)*%
X107018000Y-67056000D02*
X108768000Y-65306000D01*
X105918000Y-67056000D02*
X107018000Y-67056000D01*
%TO.N,+3V3*%
X128204000Y-74996000D02*
X128778000Y-74422000D01*
X128778000Y-74422000D02*
X128778000Y-73152000D01*
X128778000Y-69018000D02*
X128778000Y-73152000D01*
%TO.N,+1V8*%
X127840000Y-72220000D02*
X127828000Y-72208000D01*
X127670000Y-72390000D02*
X127840000Y-72220000D01*
X127828000Y-70852000D02*
X127828000Y-70752000D01*
X124959986Y-56640014D02*
X129150014Y-56640014D01*
X124206000Y-57394000D02*
X124959986Y-56640014D01*
X124206000Y-67564000D02*
X124206000Y-57394000D01*
X124982000Y-68340000D02*
X124206000Y-67564000D01*
X125416000Y-68340000D02*
X124982000Y-68340000D01*
X127828000Y-70752000D02*
X125416000Y-68340000D01*
%TO.N,+3V3*%
D38*
X122450000Y-86231042D02*
X121051042Y-87630000D01*
X117070000Y-87630000D02*
X119020000Y-87630000D01*
X119020000Y-87630000D02*
X121051042Y-87630000D01*
X123784528Y-98298000D02*
X124038528Y-98044000D01*
X116078000Y-89120000D02*
X116078000Y-97282000D01*
X117094000Y-98298000D02*
X123784528Y-98298000D01*
X116078000Y-88622000D02*
X117070000Y-87630000D01*
X116078000Y-89120000D02*
X116078000Y-88622000D01*
X116078000Y-97282000D02*
X117094000Y-98298000D01*
%TO.N,SDA*%
D36*
X132842000Y-83820000D02*
X132842000Y-91330213D01*
%TO.N,+3V3*%
X124552000Y-97530528D02*
X124038528Y-98044000D01*
%TO.N,SCL*%
X129973000Y-95471000D02*
X133258000Y-92186000D01*
%TO.N,SDA*%
X132842000Y-91330213D02*
X130601213Y-93571000D01*
%TO.N,+3V3*%
X124552000Y-97530528D02*
X124552000Y-97190000D01*
X124552000Y-97190000D02*
X126271000Y-95471000D01*
%TO.N,SCL*%
X132900000Y-64140000D02*
X132690000Y-63930000D01*
%TO.N,+1V8*%
X129150014Y-56640014D02*
X129850000Y-57340000D01*
%TO.N,+3V3*%
X129200000Y-63140000D02*
X129840000Y-63140000D01*
%TO.N,SDA*%
X133800000Y-63680000D02*
X133250000Y-63130000D01*
%TO.N,+3V3*%
X129200000Y-63140000D02*
X128400000Y-62340000D01*
%TO.N,SCL*%
X132900000Y-65030000D02*
X132900000Y-64140000D01*
%TO.N,+3V3*%
X128440000Y-63140000D02*
X129200000Y-63140000D01*
X128400000Y-58451472D02*
X127348528Y-57400000D01*
%TO.N,SDA*%
X133250000Y-63130000D02*
X132690000Y-63130000D01*
%TO.N,+3V3*%
X128400000Y-62340000D02*
X128400000Y-58451472D01*
%TO.N,+1V8*%
X129850000Y-57340000D02*
X129850000Y-61530000D01*
%TO.N,+3V3*%
X129850000Y-63130000D02*
X131421500Y-63130000D01*
X129840000Y-63140000D02*
X129850000Y-63130000D01*
X132221500Y-62330000D02*
X132690000Y-62330000D01*
X131421500Y-63130000D02*
X132221500Y-62330000D01*
%TO.N,GND*%
X131785750Y-61965750D02*
X132221500Y-61530000D01*
X129850000Y-63930000D02*
X131300000Y-63930000D01*
X128310000Y-64570000D02*
X129210000Y-64570000D01*
X129210000Y-64570000D02*
X129850000Y-63930000D01*
X131400000Y-59780000D02*
X131400000Y-57911870D01*
X132221500Y-61530000D02*
X132690000Y-61530000D01*
X131400000Y-57911870D02*
X129730000Y-56241870D01*
X131421500Y-62330000D02*
X131785750Y-61965750D01*
X131300000Y-63930000D02*
X132103524Y-64733524D01*
X129850000Y-62330000D02*
X131421500Y-62330000D01*
X131785750Y-61965750D02*
X131400000Y-61580000D01*
X131400000Y-61580000D02*
X131400000Y-59780000D01*
X129730000Y-56241870D02*
X129645186Y-56240014D01*
%TO.N,SDA*%
X130601213Y-93571000D02*
X129573000Y-93571000D01*
%TO.N,SCL*%
X129573000Y-95471000D02*
X129973000Y-95471000D01*
%TO.N,+3V3*%
X128623000Y-95471000D02*
X126271000Y-95471000D01*
%TO.N,GND*%
X128623000Y-94046000D02*
X129098000Y-94521000D01*
X128240000Y-93954000D02*
X128623000Y-93571000D01*
X128623000Y-93571000D02*
X128623000Y-94046000D01*
X129954000Y-92240000D02*
X130378200Y-92240000D01*
X126492000Y-93954000D02*
X128240000Y-93954000D01*
X128623000Y-93571000D02*
X129954000Y-92240000D01*
%TD*%
%TA.AperFunction,Conductor*%
%TO.N,GND*%
G36*
X113362981Y-56128459D02*
G01*
X113430014Y-56148149D01*
X113475763Y-56200957D01*
X113485700Y-56270117D01*
X113456669Y-56333670D01*
X113450646Y-56340139D01*
X113393248Y-56397537D01*
X113283814Y-56561315D01*
X113283807Y-56561328D01*
X113208430Y-56743306D01*
X113208427Y-56743318D01*
X113170000Y-56936504D01*
X113170000Y-57085000D01*
X113870000Y-57085000D01*
X113870000Y-57585000D01*
X113170000Y-57585000D01*
X113170000Y-57733495D01*
X113208427Y-57926681D01*
X113208430Y-57926693D01*
X113283807Y-58108671D01*
X113283814Y-58108684D01*
X113393248Y-58272462D01*
X113393251Y-58272466D01*
X113532533Y-58411748D01*
X113532537Y-58411751D01*
X113696315Y-58521185D01*
X113696328Y-58521192D01*
X113878308Y-58596569D01*
X113920000Y-58604862D01*
X113920000Y-57801988D01*
X113929940Y-57819205D01*
X113985795Y-57875060D01*
X114054204Y-57914556D01*
X114130504Y-57935000D01*
X114209496Y-57935000D01*
X114285796Y-57914556D01*
X114354205Y-57875060D01*
X114410060Y-57819205D01*
X114420000Y-57801988D01*
X114420000Y-58604862D01*
X114461690Y-58596569D01*
X114461692Y-58596569D01*
X114643671Y-58521192D01*
X114643684Y-58521185D01*
X114807462Y-58411751D01*
X114807466Y-58411748D01*
X114946748Y-58272466D01*
X114946751Y-58272462D01*
X115056185Y-58108684D01*
X115056192Y-58108671D01*
X115131569Y-57926693D01*
X115131572Y-57926681D01*
X115169999Y-57733495D01*
X115170000Y-57733492D01*
X115170000Y-57585000D01*
X114470000Y-57585000D01*
X114470000Y-57085000D01*
X115170000Y-57085000D01*
X115170000Y-56936508D01*
X115169999Y-56936504D01*
X115131572Y-56743318D01*
X115131569Y-56743306D01*
X115056192Y-56561328D01*
X115056185Y-56561315D01*
X114946751Y-56397537D01*
X114946748Y-56397533D01*
X114889512Y-56340297D01*
X114856027Y-56278974D01*
X114861011Y-56209282D01*
X114902883Y-56153349D01*
X114968347Y-56128932D01*
X114977201Y-56128616D01*
X122002141Y-56129297D01*
X122069176Y-56148987D01*
X122114925Y-56201795D01*
X122124862Y-56270955D01*
X122095831Y-56334508D01*
X122089808Y-56340977D01*
X122033248Y-56397537D01*
X121923814Y-56561315D01*
X121923807Y-56561328D01*
X121848430Y-56743306D01*
X121848427Y-56743318D01*
X121810000Y-56936504D01*
X121810000Y-57085000D01*
X122510000Y-57085000D01*
X122510000Y-57585000D01*
X121810000Y-57585000D01*
X121810000Y-57733495D01*
X121848427Y-57926681D01*
X121848430Y-57926693D01*
X121923807Y-58108671D01*
X121923814Y-58108684D01*
X122033248Y-58272462D01*
X122033251Y-58272466D01*
X122172533Y-58411748D01*
X122172537Y-58411751D01*
X122336315Y-58521185D01*
X122336328Y-58521192D01*
X122518308Y-58596569D01*
X122560000Y-58604862D01*
X122560000Y-57801988D01*
X122569940Y-57819205D01*
X122625795Y-57875060D01*
X122694204Y-57914556D01*
X122770504Y-57935000D01*
X122849496Y-57935000D01*
X122925796Y-57914556D01*
X122994205Y-57875060D01*
X123050060Y-57819205D01*
X123060000Y-57801988D01*
X123060000Y-58604862D01*
X123101690Y-58596569D01*
X123101692Y-58596569D01*
X123283671Y-58521192D01*
X123283684Y-58521185D01*
X123412609Y-58435040D01*
X123479286Y-58414162D01*
X123546666Y-58432646D01*
X123593357Y-58484625D01*
X123605500Y-58538142D01*
X123605500Y-60061857D01*
X123585815Y-60128896D01*
X123533011Y-60174651D01*
X123463853Y-60184595D01*
X123412609Y-60164959D01*
X123283684Y-60078814D01*
X123283671Y-60078807D01*
X123101691Y-60003429D01*
X123101683Y-60003427D01*
X123060000Y-59995135D01*
X123060000Y-60798011D01*
X123050060Y-60780795D01*
X122994205Y-60724940D01*
X122925796Y-60685444D01*
X122849496Y-60665000D01*
X122770504Y-60665000D01*
X122694204Y-60685444D01*
X122625795Y-60724940D01*
X122569940Y-60780795D01*
X122560000Y-60798011D01*
X122560000Y-59995136D01*
X122559999Y-59995135D01*
X122518316Y-60003427D01*
X122518308Y-60003429D01*
X122336328Y-60078807D01*
X122336315Y-60078814D01*
X122172537Y-60188248D01*
X122172533Y-60188251D01*
X122033248Y-60327536D01*
X121920427Y-60496387D01*
X121919003Y-60495435D01*
X121875742Y-60539451D01*
X121807600Y-60554892D01*
X121741927Y-60531041D01*
X121739907Y-60529306D01*
X121739811Y-60529432D01*
X121733367Y-60524487D01*
X121733365Y-60524485D01*
X121661587Y-60483044D01*
X121602136Y-60448719D01*
X121528950Y-60429109D01*
X121455766Y-60409500D01*
X121304234Y-60409500D01*
X121157863Y-60448719D01*
X121026635Y-60524485D01*
X121026632Y-60524487D01*
X120919486Y-60631633D01*
X120917154Y-60634673D01*
X120914534Y-60636585D01*
X120913738Y-60637382D01*
X120913613Y-60637257D01*
X120903339Y-60644759D01*
X120893090Y-60658451D01*
X120875708Y-60664934D01*
X120860725Y-60675874D01*
X120843651Y-60676890D01*
X120827626Y-60682868D01*
X120809497Y-60678924D01*
X120790978Y-60680027D01*
X120775718Y-60671576D01*
X120759353Y-60668016D01*
X120731099Y-60646865D01*
X120727589Y-60643355D01*
X120727587Y-60643352D01*
X120608716Y-60524481D01*
X120608715Y-60524480D01*
X120521903Y-60474360D01*
X120521903Y-60474359D01*
X120521899Y-60474358D01*
X120471784Y-60445423D01*
X120319056Y-60404499D01*
X120160942Y-60404499D01*
X120153346Y-60404499D01*
X120153330Y-60404500D01*
X116621264Y-60404500D01*
X116621248Y-60404499D01*
X116613652Y-60404499D01*
X116455537Y-60404499D01*
X116379173Y-60424961D01*
X116302808Y-60445423D01*
X116302803Y-60445426D01*
X116165884Y-60524475D01*
X116165876Y-60524481D01*
X116147300Y-60543058D01*
X116085977Y-60576543D01*
X116016285Y-60571559D01*
X115971938Y-60543058D01*
X115953367Y-60524487D01*
X115953365Y-60524485D01*
X115881587Y-60483044D01*
X115822136Y-60448719D01*
X115748950Y-60429109D01*
X115675766Y-60409500D01*
X115524234Y-60409500D01*
X115377863Y-60448719D01*
X115246635Y-60524485D01*
X115240189Y-60529432D01*
X115238099Y-60526709D01*
X115190217Y-60552466D01*
X115120558Y-60547043D01*
X115064888Y-60504821D01*
X115059299Y-60495976D01*
X114946751Y-60327537D01*
X114946748Y-60327533D01*
X114807466Y-60188251D01*
X114807462Y-60188248D01*
X114643684Y-60078814D01*
X114643671Y-60078807D01*
X114461691Y-60003429D01*
X114461683Y-60003427D01*
X114420000Y-59995135D01*
X114420000Y-60798011D01*
X114410060Y-60780795D01*
X114354205Y-60724940D01*
X114285796Y-60685444D01*
X114209496Y-60665000D01*
X114130504Y-60665000D01*
X114054204Y-60685444D01*
X113985795Y-60724940D01*
X113929940Y-60780795D01*
X113920000Y-60798011D01*
X113920000Y-59995136D01*
X113919999Y-59995135D01*
X113878316Y-60003427D01*
X113878308Y-60003429D01*
X113696328Y-60078807D01*
X113696315Y-60078814D01*
X113532537Y-60188248D01*
X113532533Y-60188251D01*
X113393251Y-60327533D01*
X113393248Y-60327537D01*
X113283814Y-60491315D01*
X113283807Y-60491328D01*
X113208430Y-60673306D01*
X113208427Y-60673318D01*
X113170000Y-60866504D01*
X113170000Y-61265000D01*
X113870000Y-61265000D01*
X113870000Y-61765000D01*
X113170000Y-61765000D01*
X113170000Y-62163495D01*
X113208427Y-62356681D01*
X113208430Y-62356693D01*
X113283807Y-62538671D01*
X113283814Y-62538684D01*
X113393248Y-62702462D01*
X113393251Y-62702466D01*
X113532533Y-62841748D01*
X113532537Y-62841751D01*
X113696315Y-62951185D01*
X113696328Y-62951192D01*
X113878308Y-63026569D01*
X113920000Y-63034862D01*
X113920000Y-62231988D01*
X113929940Y-62249205D01*
X113985795Y-62305060D01*
X114054204Y-62344556D01*
X114130504Y-62365000D01*
X114209496Y-62365000D01*
X114285796Y-62344556D01*
X114354205Y-62305060D01*
X114410060Y-62249205D01*
X114420000Y-62231988D01*
X114420000Y-63049390D01*
X114436894Y-63074193D01*
X114442511Y-63102563D01*
X114442898Y-63107482D01*
X114442900Y-63107495D01*
X114488716Y-63265193D01*
X114488717Y-63265196D01*
X114572314Y-63406552D01*
X114572321Y-63406561D01*
X114688438Y-63522678D01*
X114688447Y-63522685D01*
X114829803Y-63606282D01*
X114829806Y-63606283D01*
X114987504Y-63652099D01*
X114987510Y-63652100D01*
X115024350Y-63654999D01*
X115024366Y-63655000D01*
X115047755Y-63655000D01*
X115114794Y-63674685D01*
X115160549Y-63727489D01*
X115170493Y-63796647D01*
X115141468Y-63860203D01*
X115135442Y-63866674D01*
X114756962Y-64245154D01*
X114756960Y-64245156D01*
X114645156Y-64356960D01*
X114645154Y-64356962D01*
X114478662Y-64523455D01*
X114332936Y-64669181D01*
X114271613Y-64702666D01*
X114245255Y-64705500D01*
X113674097Y-64705500D01*
X113607058Y-64685815D01*
X113586416Y-64669181D01*
X113134819Y-64217584D01*
X113101334Y-64156261D01*
X113098500Y-64129903D01*
X113098500Y-63672200D01*
X113066585Y-63511757D01*
X113066584Y-63511756D01*
X113066584Y-63511752D01*
X113003979Y-63360611D01*
X113003978Y-63360610D01*
X113003975Y-63360604D01*
X112913092Y-63224588D01*
X112913091Y-63224587D01*
X112797413Y-63108909D01*
X112551150Y-62862646D01*
X112289416Y-62600911D01*
X112289412Y-62600908D01*
X112153395Y-62510024D01*
X112153386Y-62510019D01*
X112002248Y-62447416D01*
X112002242Y-62447414D01*
X111841799Y-62415500D01*
X111841797Y-62415500D01*
X111508986Y-62415500D01*
X111441947Y-62395815D01*
X111396192Y-62343011D01*
X111386248Y-62273853D01*
X111399744Y-62236615D01*
X111398493Y-62236032D01*
X111401547Y-62229481D01*
X111454855Y-62068606D01*
X111464999Y-61969322D01*
X111465000Y-61969309D01*
X111465000Y-61946000D01*
X109797614Y-61946000D01*
X109778996Y-61956166D01*
X109752638Y-61959000D01*
X107737001Y-61959000D01*
X107737001Y-61982322D01*
X107747144Y-62081607D01*
X107802725Y-62249339D01*
X107800539Y-62250063D01*
X107809364Y-62308177D01*
X107780842Y-62371960D01*
X107722364Y-62410197D01*
X107686491Y-62415500D01*
X106598201Y-62415500D01*
X106437758Y-62447414D01*
X106437750Y-62447416D01*
X106286618Y-62510016D01*
X106286600Y-62510026D01*
X106150591Y-62600904D01*
X106150583Y-62600910D01*
X105514922Y-63236574D01*
X105388587Y-63362909D01*
X105354471Y-63397025D01*
X105272907Y-63478588D01*
X105182024Y-63614604D01*
X105182019Y-63614613D01*
X105119416Y-63765751D01*
X105119414Y-63765757D01*
X105087500Y-63926200D01*
X105087500Y-64272100D01*
X105067815Y-64339139D01*
X105015011Y-64384894D01*
X105006833Y-64388282D01*
X104875671Y-64437202D01*
X104875664Y-64437206D01*
X104760455Y-64523452D01*
X104760452Y-64523455D01*
X104674206Y-64638664D01*
X104674202Y-64638671D01*
X104623908Y-64773517D01*
X104617501Y-64833116D01*
X104617501Y-64833123D01*
X104617500Y-64833135D01*
X104617500Y-65778870D01*
X104617501Y-65778876D01*
X104623908Y-65838483D01*
X104674202Y-65973328D01*
X104674206Y-65973335D01*
X104760452Y-66088544D01*
X104765227Y-66093319D01*
X104798712Y-66154642D01*
X104793728Y-66224334D01*
X104765227Y-66268681D01*
X104760452Y-66273455D01*
X104674206Y-66388664D01*
X104674202Y-66388671D01*
X104623908Y-66523517D01*
X104617501Y-66583116D01*
X104617500Y-66583135D01*
X104617500Y-67528870D01*
X104617501Y-67528876D01*
X104623908Y-67588483D01*
X104674202Y-67723328D01*
X104674206Y-67723335D01*
X104760452Y-67838544D01*
X104760455Y-67838547D01*
X104875664Y-67924793D01*
X104875671Y-67924797D01*
X105010517Y-67975091D01*
X105010516Y-67975091D01*
X105017444Y-67975835D01*
X105070127Y-67981500D01*
X106765872Y-67981499D01*
X106825483Y-67975091D01*
X106960331Y-67924796D01*
X107075546Y-67838546D01*
X107161796Y-67723331D01*
X107174389Y-67689566D01*
X107190091Y-67668588D01*
X107202563Y-67645545D01*
X107212158Y-67639108D01*
X107216257Y-67633633D01*
X107230738Y-67624289D01*
X107243490Y-67617263D01*
X107249785Y-67615577D01*
X107317108Y-67576707D01*
X107318164Y-67576126D01*
X107351081Y-67568836D01*
X107383895Y-67560875D01*
X107385118Y-67561298D01*
X107386381Y-67561019D01*
X107418018Y-67572684D01*
X107449922Y-67583726D01*
X107450722Y-67584743D01*
X107451936Y-67585191D01*
X107472242Y-67612106D01*
X107493114Y-67638646D01*
X107494006Y-67640955D01*
X107494016Y-67640968D01*
X107494017Y-67640983D01*
X107494179Y-67641402D01*
X107524645Y-67723086D01*
X107524649Y-67723093D01*
X107610809Y-67838187D01*
X107610812Y-67838190D01*
X107725906Y-67924350D01*
X107725913Y-67924354D01*
X107860620Y-67974596D01*
X107860627Y-67974598D01*
X107920155Y-67980999D01*
X107920172Y-67981000D01*
X108518000Y-67981000D01*
X109018000Y-67981000D01*
X109615828Y-67981000D01*
X109615844Y-67980999D01*
X109675372Y-67974598D01*
X109675379Y-67974596D01*
X109810086Y-67924354D01*
X109810093Y-67924350D01*
X109925187Y-67838190D01*
X109925190Y-67838187D01*
X110011350Y-67723093D01*
X110011354Y-67723086D01*
X110061596Y-67588379D01*
X110061598Y-67588372D01*
X110067999Y-67528844D01*
X110068000Y-67528827D01*
X110068000Y-67306000D01*
X109018000Y-67306000D01*
X109018000Y-67981000D01*
X108518000Y-67981000D01*
X108518000Y-67180000D01*
X108537685Y-67112961D01*
X108590489Y-67067206D01*
X108642000Y-67056000D01*
X108768000Y-67056000D01*
X108768000Y-66930000D01*
X108787685Y-66862961D01*
X108840489Y-66817206D01*
X108892000Y-66806000D01*
X110068000Y-66806000D01*
X110068000Y-66583172D01*
X110067999Y-66583155D01*
X110061598Y-66523627D01*
X110061596Y-66523620D01*
X110011354Y-66388913D01*
X110011350Y-66388906D01*
X109925190Y-66273812D01*
X109920416Y-66269038D01*
X109886931Y-66207715D01*
X109891915Y-66138023D01*
X109920416Y-66093676D01*
X109925542Y-66088548D01*
X109925546Y-66088546D01*
X110011796Y-65973331D01*
X110062091Y-65838483D01*
X110068500Y-65778873D01*
X110068499Y-64833128D01*
X110062091Y-64773517D01*
X110036722Y-64705500D01*
X110011797Y-64638671D01*
X110011793Y-64638664D01*
X109925547Y-64523455D01*
X109925544Y-64523452D01*
X109810335Y-64437206D01*
X109810328Y-64437202D01*
X109675482Y-64386908D01*
X109675483Y-64386908D01*
X109615883Y-64380501D01*
X109615881Y-64380500D01*
X109615873Y-64380500D01*
X109615865Y-64380500D01*
X109327143Y-64380500D01*
X109325813Y-64380109D01*
X109324477Y-64380471D01*
X109292388Y-64370294D01*
X109260104Y-64360815D01*
X109259197Y-64359769D01*
X109257876Y-64359350D01*
X109236369Y-64333423D01*
X109214349Y-64308011D01*
X109214151Y-64306640D01*
X109213267Y-64305574D01*
X109209193Y-64272158D01*
X109204405Y-64238853D01*
X109204980Y-64237592D01*
X109204813Y-64236218D01*
X109219443Y-64205923D01*
X109233430Y-64175297D01*
X109234791Y-64174142D01*
X109235198Y-64173301D01*
X109239717Y-64169965D01*
X109262362Y-64150767D01*
X109269478Y-64146406D01*
X109270697Y-64146003D01*
X109353763Y-64094767D01*
X109361725Y-64092613D01*
X109418544Y-64076500D01*
X109804532Y-64076500D01*
X109869628Y-64094961D01*
X109931303Y-64133003D01*
X110092292Y-64186349D01*
X110191655Y-64196500D01*
X110788344Y-64196499D01*
X110788352Y-64196498D01*
X110788355Y-64196498D01*
X110849343Y-64190268D01*
X110887708Y-64186349D01*
X111048697Y-64133003D01*
X111110371Y-64094961D01*
X111126928Y-64090265D01*
X111140533Y-64081523D01*
X111175468Y-64076500D01*
X111313500Y-64076500D01*
X111380539Y-64096185D01*
X111426294Y-64148989D01*
X111437500Y-64200500D01*
X111437500Y-64272100D01*
X111417815Y-64339139D01*
X111365011Y-64384894D01*
X111356833Y-64388282D01*
X111225671Y-64437202D01*
X111225664Y-64437206D01*
X111110455Y-64523452D01*
X111110452Y-64523455D01*
X111024206Y-64638664D01*
X111024202Y-64638671D01*
X110973908Y-64773517D01*
X110967501Y-64833116D01*
X110967501Y-64833123D01*
X110967500Y-64833135D01*
X110967500Y-65778870D01*
X110967501Y-65778876D01*
X110973908Y-65838483D01*
X111024202Y-65973328D01*
X111024206Y-65973335D01*
X111110452Y-66088544D01*
X111115227Y-66093319D01*
X111148712Y-66154642D01*
X111143728Y-66224334D01*
X111115227Y-66268681D01*
X111110452Y-66273455D01*
X111024206Y-66388664D01*
X111024202Y-66388671D01*
X110973908Y-66523517D01*
X110967501Y-66583116D01*
X110967500Y-66583135D01*
X110967500Y-67528870D01*
X110967501Y-67528876D01*
X110973908Y-67588483D01*
X111024202Y-67723328D01*
X111024206Y-67723335D01*
X111110452Y-67838544D01*
X111110455Y-67838547D01*
X111225664Y-67924793D01*
X111225671Y-67924797D01*
X111360517Y-67975091D01*
X111360516Y-67975091D01*
X111367444Y-67975835D01*
X111420127Y-67981500D01*
X112975500Y-67981499D01*
X113042539Y-68001184D01*
X113088294Y-68053987D01*
X113099500Y-68105499D01*
X113099500Y-68358284D01*
X113079815Y-68425323D01*
X113039652Y-68464400D01*
X112989811Y-68494530D01*
X112869530Y-68614811D01*
X112781522Y-68760393D01*
X112730913Y-68922807D01*
X112724500Y-68993386D01*
X112724500Y-68999608D01*
X112704815Y-69066647D01*
X112652011Y-69112402D01*
X112582853Y-69122346D01*
X112559419Y-69116366D01*
X112557483Y-69115908D01*
X112497883Y-69109501D01*
X112497881Y-69109500D01*
X112497873Y-69109500D01*
X112497864Y-69109500D01*
X111602129Y-69109500D01*
X111602123Y-69109501D01*
X111542516Y-69115908D01*
X111407671Y-69166202D01*
X111407664Y-69166206D01*
X111292455Y-69252452D01*
X111292452Y-69252455D01*
X111206206Y-69367664D01*
X111206202Y-69367671D01*
X111155910Y-69502513D01*
X111155909Y-69502517D01*
X111149500Y-69562127D01*
X111149500Y-69562134D01*
X111149500Y-69562135D01*
X111149500Y-70057870D01*
X111149501Y-70057876D01*
X111155908Y-70117483D01*
X111206202Y-70252328D01*
X111206206Y-70252335D01*
X111292452Y-70367544D01*
X111297227Y-70372319D01*
X111330712Y-70433642D01*
X111325728Y-70503334D01*
X111297227Y-70547681D01*
X111292452Y-70552455D01*
X111206206Y-70667664D01*
X111206202Y-70667671D01*
X111155910Y-70802513D01*
X111155909Y-70802517D01*
X111149500Y-70862127D01*
X111149500Y-70862134D01*
X111149500Y-70862135D01*
X111149500Y-71357870D01*
X111149501Y-71357876D01*
X111155908Y-71417483D01*
X111206202Y-71552328D01*
X111206206Y-71552335D01*
X111292452Y-71667544D01*
X111292455Y-71667547D01*
X111407664Y-71753793D01*
X111407671Y-71753797D01*
X111542517Y-71804091D01*
X111542516Y-71804091D01*
X111549444Y-71804835D01*
X111602127Y-71810500D01*
X112497872Y-71810499D01*
X112557483Y-71804091D01*
X112692331Y-71753796D01*
X112807546Y-71667546D01*
X112807547Y-71667544D01*
X112807549Y-71667543D01*
X112813818Y-71661275D01*
X112815581Y-71663038D01*
X112860894Y-71629102D01*
X112930584Y-71624102D01*
X112982611Y-71652495D01*
X112983906Y-71650843D01*
X112989811Y-71655469D01*
X112989813Y-71655470D01*
X112989815Y-71655472D01*
X113135394Y-71743478D01*
X113297804Y-71794086D01*
X113368384Y-71800500D01*
X113368387Y-71800500D01*
X114031613Y-71800500D01*
X114031616Y-71800500D01*
X114102196Y-71794086D01*
X114264606Y-71743478D01*
X114410185Y-71655472D01*
X114530472Y-71535185D01*
X114618478Y-71389606D01*
X114669086Y-71227196D01*
X114675500Y-71156616D01*
X114675500Y-70643384D01*
X114669086Y-70572804D01*
X114630802Y-70449947D01*
X114630564Y-70435476D01*
X114625504Y-70421911D01*
X114630000Y-70401235D01*
X114629652Y-70380088D01*
X114637549Y-70366522D01*
X114640352Y-70353638D01*
X114661498Y-70325388D01*
X114661502Y-70325382D01*
X114661502Y-70325381D01*
X114668168Y-70318716D01*
X114668168Y-70318714D01*
X114678375Y-70308507D01*
X114678376Y-70308506D01*
X114678375Y-70308506D01*
X114799343Y-70187540D01*
X115494389Y-69492493D01*
X115494392Y-69492492D01*
X115606196Y-69380688D01*
X115656315Y-69293876D01*
X115685253Y-69243757D01*
X115726177Y-69091029D01*
X115726177Y-68932915D01*
X115726177Y-68925320D01*
X115726176Y-68925302D01*
X115726176Y-65306196D01*
X115745861Y-65239157D01*
X115798665Y-65193402D01*
X115867823Y-65183458D01*
X115931379Y-65212483D01*
X115937857Y-65218515D01*
X116009811Y-65290469D01*
X116009813Y-65290470D01*
X116009815Y-65290472D01*
X116155394Y-65378478D01*
X116317804Y-65429086D01*
X116388384Y-65435500D01*
X116388387Y-65435500D01*
X117040500Y-65435500D01*
X117107539Y-65455185D01*
X117153294Y-65507989D01*
X117164500Y-65559500D01*
X117164500Y-70346704D01*
X117144815Y-70413743D01*
X117128181Y-70434385D01*
X110624386Y-76938181D01*
X110563063Y-76971666D01*
X110536705Y-76974500D01*
X105875099Y-76974500D01*
X105850963Y-76967413D01*
X105825995Y-76964363D01*
X105814875Y-76956816D01*
X105808060Y-76954815D01*
X105795905Y-76945917D01*
X105791487Y-76942250D01*
X105768717Y-76919480D01*
X105753392Y-76910632D01*
X105745305Y-76903920D01*
X105731429Y-76883304D01*
X105714285Y-76865325D01*
X105711443Y-76853611D01*
X105706291Y-76845957D01*
X105705974Y-76831072D01*
X105700499Y-76808506D01*
X105700499Y-76352128D01*
X105694091Y-76292517D01*
X105675747Y-76243334D01*
X105670762Y-76173643D01*
X105675747Y-76156665D01*
X105694089Y-76107488D01*
X105694088Y-76107488D01*
X105694091Y-76107483D01*
X105700500Y-76047873D01*
X105700499Y-75552128D01*
X105694091Y-75492517D01*
X105694089Y-75492511D01*
X105675747Y-75443334D01*
X105670762Y-75373643D01*
X105675747Y-75356665D01*
X105694089Y-75307488D01*
X105694088Y-75307488D01*
X105694091Y-75307483D01*
X105700500Y-75247873D01*
X105700499Y-74752128D01*
X105694091Y-74692517D01*
X105679645Y-74653785D01*
X105675747Y-74643334D01*
X105670762Y-74573643D01*
X105675747Y-74556665D01*
X105694089Y-74507488D01*
X105694088Y-74507488D01*
X105694091Y-74507483D01*
X105700500Y-74447873D01*
X105700499Y-74124499D01*
X105720183Y-74057461D01*
X105772987Y-74011706D01*
X105824499Y-74000500D01*
X108275500Y-74000500D01*
X108342539Y-74020185D01*
X108388294Y-74072989D01*
X108399500Y-74124500D01*
X108399500Y-74410234D01*
X108379815Y-74477273D01*
X108378602Y-74479125D01*
X108290609Y-74610814D01*
X108290602Y-74610827D01*
X108230264Y-74756498D01*
X108230261Y-74756510D01*
X108199500Y-74911153D01*
X108199500Y-75068846D01*
X108230261Y-75223489D01*
X108230264Y-75223501D01*
X108290602Y-75369172D01*
X108290609Y-75369185D01*
X108378210Y-75500288D01*
X108378213Y-75500292D01*
X108489707Y-75611786D01*
X108489711Y-75611789D01*
X108620814Y-75699390D01*
X108620827Y-75699397D01*
X108766498Y-75759735D01*
X108766503Y-75759737D01*
X108921153Y-75790499D01*
X108921156Y-75790500D01*
X108921158Y-75790500D01*
X109078844Y-75790500D01*
X109078845Y-75790499D01*
X109233497Y-75759737D01*
X109379179Y-75699394D01*
X109510289Y-75611789D01*
X109621789Y-75500289D01*
X109709394Y-75369179D01*
X109711244Y-75364714D01*
X109734949Y-75307483D01*
X109769737Y-75223497D01*
X109800500Y-75068842D01*
X109800500Y-74911158D01*
X109800500Y-74911155D01*
X109800499Y-74911153D01*
X109792893Y-74872917D01*
X109769737Y-74756503D01*
X109743277Y-74692622D01*
X109709397Y-74610827D01*
X109709390Y-74610814D01*
X109621398Y-74479125D01*
X109600520Y-74412447D01*
X109600500Y-74410234D01*
X109600500Y-73560946D01*
X109600500Y-73560943D01*
X109584037Y-73499500D01*
X109559577Y-73408215D01*
X109529671Y-73356416D01*
X109480520Y-73271284D01*
X109368716Y-73159480D01*
X109368715Y-73159479D01*
X109364385Y-73155149D01*
X109364374Y-73155139D01*
X109247590Y-73038355D01*
X109247588Y-73038352D01*
X109128717Y-72919481D01*
X109128716Y-72919480D01*
X109041904Y-72869360D01*
X109041904Y-72869359D01*
X109041900Y-72869358D01*
X108991785Y-72840423D01*
X108839057Y-72799499D01*
X108680943Y-72799499D01*
X108673347Y-72799499D01*
X108673331Y-72799500D01*
X107849097Y-72799500D01*
X107782058Y-72779815D01*
X107736303Y-72727011D01*
X107726359Y-72657853D01*
X107755384Y-72594297D01*
X107761416Y-72587819D01*
X108005439Y-72343796D01*
X108886135Y-71463098D01*
X108947456Y-71429615D01*
X109017147Y-71434599D01*
X109073081Y-71476470D01*
X109089996Y-71507447D01*
X109106646Y-71552087D01*
X109106649Y-71552093D01*
X109192809Y-71667187D01*
X109192812Y-71667190D01*
X109307906Y-71753350D01*
X109307913Y-71753354D01*
X109442620Y-71803596D01*
X109442627Y-71803598D01*
X109502155Y-71809999D01*
X109502172Y-71810000D01*
X109750000Y-71810000D01*
X109750000Y-71284499D01*
X109752550Y-71275813D01*
X109751262Y-71266852D01*
X109762240Y-71242811D01*
X109769685Y-71217460D01*
X109776525Y-71211532D01*
X109780287Y-71203296D01*
X109802521Y-71189006D01*
X109822489Y-71171705D01*
X109833003Y-71169417D01*
X109839065Y-71165522D01*
X109873995Y-71160499D01*
X110026001Y-71160499D01*
X110093039Y-71180184D01*
X110138794Y-71232988D01*
X110150000Y-71284499D01*
X110150000Y-71810000D01*
X110397828Y-71810000D01*
X110397844Y-71809999D01*
X110457372Y-71803598D01*
X110457379Y-71803596D01*
X110592086Y-71753354D01*
X110592093Y-71753350D01*
X110707187Y-71667190D01*
X110707190Y-71667187D01*
X110793350Y-71552093D01*
X110793354Y-71552086D01*
X110843596Y-71417379D01*
X110843598Y-71417372D01*
X110849999Y-71357844D01*
X110850000Y-71357827D01*
X110850000Y-71310000D01*
X110689435Y-71310000D01*
X110666587Y-71303291D01*
X110642891Y-71300933D01*
X110633677Y-71293627D01*
X110622396Y-71290315D01*
X110606803Y-71272319D01*
X110588142Y-71257524D01*
X110584340Y-71246396D01*
X110576641Y-71237511D01*
X110573252Y-71213941D01*
X110565553Y-71191407D01*
X110568370Y-71179991D01*
X110566697Y-71168353D01*
X110576590Y-71146689D01*
X110582296Y-71123573D01*
X110592247Y-71112406D01*
X110595722Y-71104797D01*
X110604223Y-71095917D01*
X110609409Y-71091011D01*
X110707546Y-71017546D01*
X110757212Y-70951200D01*
X110764912Y-70943917D01*
X110786967Y-70932657D01*
X110806791Y-70917818D01*
X110821088Y-70915238D01*
X110827142Y-70912148D01*
X110834280Y-70912858D01*
X110849972Y-70910027D01*
X110850000Y-70910000D01*
X110850000Y-70862172D01*
X110849999Y-70862160D01*
X110843380Y-70800604D01*
X110843380Y-70774090D01*
X110844090Y-70767485D01*
X110844091Y-70767483D01*
X110850500Y-70707873D01*
X110850499Y-70212128D01*
X110844091Y-70152517D01*
X110844090Y-70152516D01*
X110843380Y-70145904D01*
X110843381Y-70119393D01*
X110849999Y-70057842D01*
X110850000Y-70057827D01*
X110850000Y-70010000D01*
X110849948Y-70009948D01*
X110783085Y-69990315D01*
X110764912Y-69976083D01*
X110757212Y-69968799D01*
X110707546Y-69902454D01*
X110609409Y-69828988D01*
X110604223Y-69824083D01*
X110590081Y-69799812D01*
X110573253Y-69777332D01*
X110572731Y-69770035D01*
X110569048Y-69763714D01*
X110570272Y-69735654D01*
X110568269Y-69707641D01*
X110571774Y-69701220D01*
X110572094Y-69693910D01*
X110588297Y-69670963D01*
X110601755Y-69646318D01*
X110608175Y-69642812D01*
X110612396Y-69636835D01*
X110638432Y-69626291D01*
X110663078Y-69612834D01*
X110674766Y-69611577D01*
X110677157Y-69610609D01*
X110679558Y-69611061D01*
X110689435Y-69610000D01*
X110850000Y-69610000D01*
X110850000Y-69562172D01*
X110849999Y-69562155D01*
X110843598Y-69502627D01*
X110843596Y-69502620D01*
X110793354Y-69367913D01*
X110793350Y-69367906D01*
X110707190Y-69252812D01*
X110707187Y-69252809D01*
X110592093Y-69166649D01*
X110592086Y-69166645D01*
X110457379Y-69116403D01*
X110457372Y-69116401D01*
X110397844Y-69110000D01*
X110150000Y-69110000D01*
X110150000Y-69635500D01*
X110147449Y-69644185D01*
X110148738Y-69653147D01*
X110137759Y-69677187D01*
X110130315Y-69702539D01*
X110123474Y-69708466D01*
X110119713Y-69716703D01*
X110097478Y-69730992D01*
X110077511Y-69748294D01*
X110066996Y-69750581D01*
X110060935Y-69754477D01*
X110026000Y-69759500D01*
X109874000Y-69759500D01*
X109806961Y-69739815D01*
X109761206Y-69687011D01*
X109750000Y-69635500D01*
X109750000Y-69110000D01*
X109502155Y-69110000D01*
X109442627Y-69116401D01*
X109442620Y-69116403D01*
X109307913Y-69166645D01*
X109307906Y-69166649D01*
X109192812Y-69252809D01*
X109192809Y-69252812D01*
X109106649Y-69367906D01*
X109106645Y-69367913D01*
X109056403Y-69502620D01*
X109056401Y-69502627D01*
X109050000Y-69562155D01*
X109050000Y-69610000D01*
X109210565Y-69610000D01*
X109240003Y-69618644D01*
X109269998Y-69625171D01*
X109273226Y-69628399D01*
X109277604Y-69629685D01*
X109297692Y-69652868D01*
X109319401Y-69674579D01*
X109320371Y-69679041D01*
X109323359Y-69682489D01*
X109327725Y-69712856D01*
X109334249Y-69742853D01*
X109332653Y-69747129D01*
X109333303Y-69751647D01*
X109320554Y-69779561D01*
X109309828Y-69808316D01*
X109305402Y-69812741D01*
X109304278Y-69815203D01*
X109284875Y-69833266D01*
X109284870Y-69833271D01*
X109282866Y-69834771D01*
X109217400Y-69859185D01*
X109208561Y-69859500D01*
X109126669Y-69859500D01*
X109126653Y-69859499D01*
X109119057Y-69859499D01*
X108960943Y-69859499D01*
X108853587Y-69888265D01*
X108808210Y-69900424D01*
X108808209Y-69900425D01*
X108758096Y-69929359D01*
X108758095Y-69929360D01*
X108714689Y-69954420D01*
X108671285Y-69979479D01*
X108671282Y-69979481D01*
X108608340Y-70042424D01*
X108559480Y-70091284D01*
X108559478Y-70091286D01*
X107609929Y-71040836D01*
X106687584Y-71963181D01*
X106626261Y-71996666D01*
X106599903Y-71999500D01*
X105821740Y-71999500D01*
X105754701Y-71979815D01*
X105708946Y-71927011D01*
X105698450Y-71862245D01*
X105699999Y-71847828D01*
X105700000Y-71847827D01*
X105700000Y-71700000D01*
X104974000Y-71700000D01*
X104906961Y-71680315D01*
X104861206Y-71627511D01*
X104850000Y-71576000D01*
X104850000Y-71450000D01*
X104724499Y-71450000D01*
X104657460Y-71430315D01*
X104611705Y-71377511D01*
X104600499Y-71326000D01*
X104600499Y-71200000D01*
X105100000Y-71200000D01*
X105700000Y-71200000D01*
X105700000Y-71052172D01*
X105699999Y-71052155D01*
X105693598Y-70992627D01*
X105693596Y-70992620D01*
X105643354Y-70857913D01*
X105643350Y-70857906D01*
X105557190Y-70742812D01*
X105557187Y-70742809D01*
X105442093Y-70656649D01*
X105442086Y-70656645D01*
X105307379Y-70606403D01*
X105307372Y-70606401D01*
X105247844Y-70600000D01*
X105100000Y-70600000D01*
X105100000Y-71200000D01*
X104600499Y-71200000D01*
X104600499Y-71052129D01*
X104600321Y-71048804D01*
X104600426Y-71048798D01*
X104600000Y-71040836D01*
X104600000Y-70600000D01*
X104452155Y-70600000D01*
X104392627Y-70606401D01*
X104392623Y-70606402D01*
X104344046Y-70624520D01*
X104274354Y-70629503D01*
X104257382Y-70624519D01*
X104207488Y-70605910D01*
X104207484Y-70605909D01*
X104207483Y-70605909D01*
X104147873Y-70599500D01*
X104147863Y-70599500D01*
X103652129Y-70599500D01*
X103652123Y-70599501D01*
X103592516Y-70605908D01*
X103543332Y-70624253D01*
X103473640Y-70629237D01*
X103456667Y-70624253D01*
X103407486Y-70605910D01*
X103407485Y-70605909D01*
X103407483Y-70605909D01*
X103347873Y-70599500D01*
X103347863Y-70599500D01*
X102852129Y-70599500D01*
X102852123Y-70599501D01*
X102792516Y-70605908D01*
X102743332Y-70624253D01*
X102673640Y-70629237D01*
X102656667Y-70624253D01*
X102607486Y-70605910D01*
X102607485Y-70605909D01*
X102607483Y-70605909D01*
X102547873Y-70599500D01*
X102547863Y-70599500D01*
X102052129Y-70599500D01*
X102052123Y-70599501D01*
X101992516Y-70605908D01*
X101943332Y-70624253D01*
X101873640Y-70629237D01*
X101856667Y-70624253D01*
X101807486Y-70605910D01*
X101807485Y-70605909D01*
X101807483Y-70605909D01*
X101747873Y-70599500D01*
X101747863Y-70599500D01*
X101252129Y-70599500D01*
X101252123Y-70599501D01*
X101192516Y-70605908D01*
X101143332Y-70624253D01*
X101073640Y-70629237D01*
X101056667Y-70624253D01*
X101007486Y-70605910D01*
X101007485Y-70605909D01*
X101007483Y-70605909D01*
X100947873Y-70599500D01*
X100947863Y-70599500D01*
X100452129Y-70599500D01*
X100452123Y-70599501D01*
X100392516Y-70605908D01*
X100343332Y-70624253D01*
X100273640Y-70629237D01*
X100256667Y-70624253D01*
X100207486Y-70605910D01*
X100207485Y-70605909D01*
X100207483Y-70605909D01*
X100147873Y-70599500D01*
X100147863Y-70599500D01*
X99652129Y-70599500D01*
X99652123Y-70599501D01*
X99592516Y-70605908D01*
X99543332Y-70624253D01*
X99473640Y-70629237D01*
X99456667Y-70624253D01*
X99407486Y-70605910D01*
X99407485Y-70605909D01*
X99407483Y-70605909D01*
X99347873Y-70599500D01*
X99347863Y-70599500D01*
X98852129Y-70599500D01*
X98852123Y-70599501D01*
X98792516Y-70605908D01*
X98743332Y-70624253D01*
X98673640Y-70629237D01*
X98656667Y-70624253D01*
X98607486Y-70605910D01*
X98607485Y-70605909D01*
X98607483Y-70605909D01*
X98547873Y-70599500D01*
X98547863Y-70599500D01*
X98052129Y-70599500D01*
X98052123Y-70599501D01*
X97992516Y-70605908D01*
X97943332Y-70624253D01*
X97873640Y-70629237D01*
X97856667Y-70624253D01*
X97807486Y-70605910D01*
X97807485Y-70605909D01*
X97807483Y-70605909D01*
X97747873Y-70599500D01*
X97747863Y-70599500D01*
X97252129Y-70599500D01*
X97252123Y-70599501D01*
X97192516Y-70605908D01*
X97143332Y-70624253D01*
X97073640Y-70629237D01*
X97056667Y-70624253D01*
X97007486Y-70605910D01*
X97007485Y-70605909D01*
X97007483Y-70605909D01*
X96947873Y-70599500D01*
X96947863Y-70599500D01*
X96452129Y-70599500D01*
X96452123Y-70599501D01*
X96392516Y-70605908D01*
X96343332Y-70624253D01*
X96273640Y-70629237D01*
X96256667Y-70624253D01*
X96207486Y-70605910D01*
X96207485Y-70605909D01*
X96207483Y-70605909D01*
X96147873Y-70599500D01*
X96147863Y-70599500D01*
X95652129Y-70599500D01*
X95652123Y-70599501D01*
X95592517Y-70605908D01*
X95542616Y-70624520D01*
X95472925Y-70629503D01*
X95455953Y-70624519D01*
X95407383Y-70606403D01*
X95407372Y-70606401D01*
X95347844Y-70600000D01*
X95200000Y-70600000D01*
X95200000Y-71040826D01*
X95199572Y-71048798D01*
X95199678Y-71048804D01*
X95199500Y-71052128D01*
X95199500Y-71947863D01*
X95199679Y-71951180D01*
X95199572Y-71951185D01*
X95200000Y-71959156D01*
X95200000Y-72400000D01*
X95640833Y-72400000D01*
X95648811Y-72400427D01*
X95648817Y-72400322D01*
X95652102Y-72400497D01*
X95652127Y-72400500D01*
X96147872Y-72400499D01*
X96207483Y-72394091D01*
X96256665Y-72375746D01*
X96326355Y-72370761D01*
X96343333Y-72375747D01*
X96392508Y-72394088D01*
X96392511Y-72394089D01*
X96392517Y-72394091D01*
X96452127Y-72400500D01*
X96947872Y-72400499D01*
X97007483Y-72394091D01*
X97056665Y-72375746D01*
X97126355Y-72370761D01*
X97143333Y-72375747D01*
X97192508Y-72394088D01*
X97192511Y-72394089D01*
X97192517Y-72394091D01*
X97252127Y-72400500D01*
X97747872Y-72400499D01*
X97807483Y-72394091D01*
X97856665Y-72375746D01*
X97926355Y-72370761D01*
X97943333Y-72375747D01*
X97992508Y-72394088D01*
X97992511Y-72394089D01*
X97992517Y-72394091D01*
X98052127Y-72400500D01*
X98547872Y-72400499D01*
X98607483Y-72394091D01*
X98656665Y-72375746D01*
X98726355Y-72370761D01*
X98743333Y-72375747D01*
X98792508Y-72394088D01*
X98792511Y-72394089D01*
X98792517Y-72394091D01*
X98852127Y-72400500D01*
X99347872Y-72400499D01*
X99407483Y-72394091D01*
X99456665Y-72375746D01*
X99526355Y-72370761D01*
X99543333Y-72375747D01*
X99592508Y-72394088D01*
X99592511Y-72394089D01*
X99592517Y-72394091D01*
X99652127Y-72400500D01*
X100147872Y-72400499D01*
X100207483Y-72394091D01*
X100256665Y-72375746D01*
X100326355Y-72370761D01*
X100343333Y-72375747D01*
X100392508Y-72394088D01*
X100392511Y-72394089D01*
X100392517Y-72394091D01*
X100452127Y-72400500D01*
X100947872Y-72400499D01*
X101007483Y-72394091D01*
X101056665Y-72375746D01*
X101126355Y-72370761D01*
X101143333Y-72375747D01*
X101192508Y-72394088D01*
X101192511Y-72394089D01*
X101192517Y-72394091D01*
X101252127Y-72400500D01*
X101747872Y-72400499D01*
X101807483Y-72394091D01*
X101856665Y-72375746D01*
X101926355Y-72370761D01*
X101943333Y-72375747D01*
X101992508Y-72394088D01*
X101992511Y-72394089D01*
X101992517Y-72394091D01*
X102052127Y-72400500D01*
X102547872Y-72400499D01*
X102607483Y-72394091D01*
X102656665Y-72375746D01*
X102726355Y-72370761D01*
X102743333Y-72375747D01*
X102792508Y-72394088D01*
X102792511Y-72394089D01*
X102792517Y-72394091D01*
X102852127Y-72400500D01*
X103347872Y-72400499D01*
X103407483Y-72394091D01*
X103456665Y-72375746D01*
X103526355Y-72370761D01*
X103543333Y-72375747D01*
X103592508Y-72394088D01*
X103592511Y-72394089D01*
X103592517Y-72394091D01*
X103652127Y-72400500D01*
X103775500Y-72400499D01*
X103842539Y-72420183D01*
X103888294Y-72472987D01*
X103899500Y-72524499D01*
X103899500Y-72847869D01*
X103899501Y-72847876D01*
X103905908Y-72907482D01*
X103919004Y-72942593D01*
X103924252Y-72956665D01*
X103924253Y-72956666D01*
X103929237Y-73026358D01*
X103924253Y-73043331D01*
X103905910Y-73092511D01*
X103905909Y-73092515D01*
X103905909Y-73092517D01*
X103899500Y-73152127D01*
X103899500Y-73152134D01*
X103899500Y-73152135D01*
X103899500Y-73647870D01*
X103899501Y-73647876D01*
X103905908Y-73707482D01*
X103919004Y-73742593D01*
X103924252Y-73756665D01*
X103924253Y-73756666D01*
X103929237Y-73826358D01*
X103924253Y-73843331D01*
X103905910Y-73892511D01*
X103905909Y-73892515D01*
X103905909Y-73892517D01*
X103899500Y-73952127D01*
X103899500Y-73952134D01*
X103899500Y-73952135D01*
X103899500Y-74447870D01*
X103899501Y-74447876D01*
X103905908Y-74507482D01*
X103914212Y-74529746D01*
X103924252Y-74556665D01*
X103924253Y-74556666D01*
X103929237Y-74626358D01*
X103924253Y-74643331D01*
X103905910Y-74692511D01*
X103905910Y-74692514D01*
X103905909Y-74692517D01*
X103899500Y-74752127D01*
X103899500Y-74752134D01*
X103899500Y-74752135D01*
X103899500Y-75247870D01*
X103899501Y-75247876D01*
X103905908Y-75307482D01*
X103919004Y-75342593D01*
X103924252Y-75356665D01*
X103924253Y-75356666D01*
X103929237Y-75426358D01*
X103924253Y-75443331D01*
X103905910Y-75492511D01*
X103905910Y-75492514D01*
X103905909Y-75492517D01*
X103899500Y-75552127D01*
X103899500Y-75552134D01*
X103899500Y-75552135D01*
X103899500Y-76047870D01*
X103899501Y-76047876D01*
X103905908Y-76107482D01*
X103919004Y-76142593D01*
X103924252Y-76156665D01*
X103924253Y-76156666D01*
X103929237Y-76226358D01*
X103924253Y-76243331D01*
X103905910Y-76292511D01*
X103905910Y-76292514D01*
X103905909Y-76292517D01*
X103899500Y-76352127D01*
X103899500Y-76352134D01*
X103899500Y-76352135D01*
X103899500Y-76847870D01*
X103899501Y-76847876D01*
X103905908Y-76907482D01*
X103915165Y-76932300D01*
X103924252Y-76956665D01*
X103924253Y-76956666D01*
X103929237Y-77026358D01*
X103924253Y-77043331D01*
X103905910Y-77092511D01*
X103905909Y-77092515D01*
X103905909Y-77092517D01*
X103899500Y-77152127D01*
X103899500Y-77152134D01*
X103899500Y-77152135D01*
X103899500Y-77647870D01*
X103899501Y-77647876D01*
X103905908Y-77707482D01*
X103919004Y-77742593D01*
X103924252Y-77756665D01*
X103924253Y-77756666D01*
X103929237Y-77826358D01*
X103924253Y-77843331D01*
X103905910Y-77892511D01*
X103905909Y-77892515D01*
X103905909Y-77892517D01*
X103899500Y-77952127D01*
X103899500Y-77952134D01*
X103899500Y-77952135D01*
X103899500Y-78447870D01*
X103899501Y-78447876D01*
X103905908Y-78507482D01*
X103919004Y-78542593D01*
X103924252Y-78556665D01*
X103924253Y-78556666D01*
X103929237Y-78626358D01*
X103924253Y-78643331D01*
X103905910Y-78692511D01*
X103905909Y-78692515D01*
X103905909Y-78692517D01*
X103899500Y-78752127D01*
X103899500Y-78752133D01*
X103899500Y-78752134D01*
X103899500Y-79247870D01*
X103899501Y-79247876D01*
X103905908Y-79307482D01*
X103913360Y-79327461D01*
X103924252Y-79356665D01*
X103924253Y-79356666D01*
X103929237Y-79426358D01*
X103924253Y-79443331D01*
X103905910Y-79492511D01*
X103905910Y-79492514D01*
X103905909Y-79492517D01*
X103899500Y-79552127D01*
X103899500Y-79552134D01*
X103899500Y-79552135D01*
X103899500Y-80047870D01*
X103899501Y-80047876D01*
X103905909Y-80107484D01*
X103924519Y-80157382D01*
X103929503Y-80227074D01*
X103924520Y-80244046D01*
X103906402Y-80292623D01*
X103906401Y-80292627D01*
X103900000Y-80352155D01*
X103900000Y-80400000D01*
X104057893Y-80400000D01*
X104066578Y-80402550D01*
X104075540Y-80401262D01*
X104108048Y-80414727D01*
X104124932Y-80419685D01*
X104127683Y-80422860D01*
X104132204Y-80424733D01*
X104157668Y-80443795D01*
X104157671Y-80443797D01*
X104264972Y-80483818D01*
X104320906Y-80525689D01*
X104345323Y-80591154D01*
X104330471Y-80659427D01*
X104281066Y-80708832D01*
X104264972Y-80716182D01*
X104157671Y-80756202D01*
X104157668Y-80756204D01*
X104132204Y-80775267D01*
X104119581Y-80779974D01*
X104109404Y-80788794D01*
X104087487Y-80791945D01*
X104066739Y-80799684D01*
X104057893Y-80800000D01*
X103900000Y-80800000D01*
X103900000Y-80847844D01*
X103906401Y-80907372D01*
X103906403Y-80907383D01*
X103924519Y-80955953D01*
X103929503Y-81025644D01*
X103924520Y-81042616D01*
X103905910Y-81092513D01*
X103905909Y-81092517D01*
X103899500Y-81152127D01*
X103899500Y-81152134D01*
X103899500Y-81152135D01*
X103899500Y-81647870D01*
X103899501Y-81647876D01*
X103905908Y-81707482D01*
X103910161Y-81718884D01*
X103924252Y-81756665D01*
X103924253Y-81756666D01*
X103929237Y-81826358D01*
X103924253Y-81843331D01*
X103905910Y-81892511D01*
X103905909Y-81892515D01*
X103905909Y-81892517D01*
X103899500Y-81952127D01*
X103899500Y-82198735D01*
X103899501Y-82276000D01*
X103879817Y-82343039D01*
X103827013Y-82388794D01*
X103775501Y-82400000D01*
X103652155Y-82400000D01*
X103592627Y-82406401D01*
X103592623Y-82406402D01*
X103544046Y-82424520D01*
X103474354Y-82429503D01*
X103457382Y-82424519D01*
X103407488Y-82405910D01*
X103407484Y-82405909D01*
X103407483Y-82405909D01*
X103347873Y-82399500D01*
X103347863Y-82399500D01*
X102852129Y-82399500D01*
X102852123Y-82399501D01*
X102792516Y-82405908D01*
X102743332Y-82424253D01*
X102673640Y-82429237D01*
X102656667Y-82424253D01*
X102607486Y-82405910D01*
X102607485Y-82405909D01*
X102607483Y-82405909D01*
X102547873Y-82399500D01*
X102547863Y-82399500D01*
X102052129Y-82399500D01*
X102052123Y-82399501D01*
X101992516Y-82405908D01*
X101943332Y-82424253D01*
X101873640Y-82429237D01*
X101856667Y-82424253D01*
X101807486Y-82405910D01*
X101807485Y-82405909D01*
X101807483Y-82405909D01*
X101747873Y-82399500D01*
X101747863Y-82399500D01*
X101252129Y-82399500D01*
X101252123Y-82399501D01*
X101192516Y-82405908D01*
X101143332Y-82424253D01*
X101073640Y-82429237D01*
X101056667Y-82424253D01*
X101007486Y-82405910D01*
X101007485Y-82405909D01*
X101007483Y-82405909D01*
X100947873Y-82399500D01*
X100947863Y-82399500D01*
X100452129Y-82399500D01*
X100452123Y-82399501D01*
X100392516Y-82405908D01*
X100343332Y-82424253D01*
X100273640Y-82429237D01*
X100256667Y-82424253D01*
X100207486Y-82405910D01*
X100207485Y-82405909D01*
X100207483Y-82405909D01*
X100147873Y-82399500D01*
X100147863Y-82399500D01*
X99652129Y-82399500D01*
X99652123Y-82399501D01*
X99592516Y-82405908D01*
X99543332Y-82424253D01*
X99473640Y-82429237D01*
X99456667Y-82424253D01*
X99407486Y-82405910D01*
X99407485Y-82405909D01*
X99407483Y-82405909D01*
X99347873Y-82399500D01*
X99347863Y-82399500D01*
X98852129Y-82399500D01*
X98852123Y-82399501D01*
X98792516Y-82405908D01*
X98743332Y-82424253D01*
X98673640Y-82429237D01*
X98656667Y-82424253D01*
X98607486Y-82405910D01*
X98607485Y-82405909D01*
X98607483Y-82405909D01*
X98547873Y-82399500D01*
X98547863Y-82399500D01*
X98052129Y-82399500D01*
X98052123Y-82399501D01*
X97992516Y-82405908D01*
X97943332Y-82424253D01*
X97873640Y-82429237D01*
X97856667Y-82424253D01*
X97807486Y-82405910D01*
X97807485Y-82405909D01*
X97807483Y-82405909D01*
X97747873Y-82399500D01*
X97747863Y-82399500D01*
X97252129Y-82399500D01*
X97252123Y-82399501D01*
X97192517Y-82405908D01*
X97142616Y-82424520D01*
X97072925Y-82429503D01*
X97055953Y-82424519D01*
X97007383Y-82406403D01*
X97007372Y-82406401D01*
X96947844Y-82400000D01*
X96900000Y-82400000D01*
X96900000Y-82557893D01*
X96880315Y-82624932D01*
X96875267Y-82632204D01*
X96856204Y-82657668D01*
X96856202Y-82657671D01*
X96805910Y-82792513D01*
X96805909Y-82792517D01*
X96799500Y-82852127D01*
X96799500Y-83224000D01*
X96799501Y-83300000D01*
X96799501Y-83747876D01*
X96805908Y-83807483D01*
X96856203Y-83942329D01*
X96874766Y-83967126D01*
X96899184Y-84032590D01*
X96899500Y-84041438D01*
X96899500Y-84483844D01*
X96897730Y-84489868D01*
X96898899Y-84496039D01*
X96888003Y-84522995D01*
X96879815Y-84550883D01*
X96874476Y-84556463D01*
X96872717Y-84560817D01*
X96856596Y-84575153D01*
X96847093Y-84585088D01*
X96843893Y-84587350D01*
X96705956Y-84672432D01*
X96663417Y-84714970D01*
X96654793Y-84721069D01*
X96631330Y-84729102D01*
X96609557Y-84740992D01*
X96598846Y-84740225D01*
X96588691Y-84743703D01*
X96564606Y-84737776D01*
X96539865Y-84736006D01*
X96528975Y-84729007D01*
X96520846Y-84727007D01*
X96513040Y-84718767D01*
X96495520Y-84707507D01*
X96461045Y-84673032D01*
X96461040Y-84673029D01*
X96316705Y-84584001D01*
X96316699Y-84583998D01*
X96316697Y-84583997D01*
X96314886Y-84583397D01*
X96155709Y-84530651D01*
X96056346Y-84520500D01*
X95459662Y-84520500D01*
X95459644Y-84520501D01*
X95360292Y-84530650D01*
X95360289Y-84530651D01*
X95199305Y-84583996D01*
X95199294Y-84584001D01*
X95054959Y-84673029D01*
X95054955Y-84673032D01*
X94935032Y-84792955D01*
X94935029Y-84792959D01*
X94846001Y-84937294D01*
X94845996Y-84937305D01*
X94792651Y-85098290D01*
X94782500Y-85197647D01*
X94782500Y-85744337D01*
X94782501Y-85744355D01*
X94792650Y-85843707D01*
X94792651Y-85843710D01*
X94845996Y-86004694D01*
X94846001Y-86004705D01*
X94935029Y-86149040D01*
X94935032Y-86149044D01*
X94944660Y-86158672D01*
X94978145Y-86219995D01*
X94973161Y-86289687D01*
X94944663Y-86334031D01*
X94935428Y-86343265D01*
X94935424Y-86343271D01*
X94846457Y-86487507D01*
X94846452Y-86487518D01*
X94793144Y-86648393D01*
X94783000Y-86747677D01*
X94783000Y-86771000D01*
X96350382Y-86771000D01*
X96355962Y-86770400D01*
X97285000Y-86770400D01*
X97352039Y-86790085D01*
X97397794Y-86842889D01*
X97409000Y-86894400D01*
X97409000Y-87020400D01*
X97535000Y-87020400D01*
X97543685Y-87022950D01*
X97552647Y-87021662D01*
X97576687Y-87032640D01*
X97602039Y-87040085D01*
X97607966Y-87046925D01*
X97616203Y-87050687D01*
X97630492Y-87072921D01*
X97647794Y-87092889D01*
X97650081Y-87103403D01*
X97653977Y-87109465D01*
X97659000Y-87144400D01*
X97659000Y-87359666D01*
X97649561Y-87407118D01*
X97617143Y-87485381D01*
X97617140Y-87485391D01*
X97586380Y-87640033D01*
X97586380Y-87797726D01*
X97617141Y-87952369D01*
X97617144Y-87952381D01*
X97677482Y-88098052D01*
X97677489Y-88098065D01*
X97720508Y-88162447D01*
X97741386Y-88229125D01*
X97722901Y-88296505D01*
X97670923Y-88343195D01*
X97656411Y-88349044D01*
X97530878Y-88390642D01*
X97530875Y-88390643D01*
X97381654Y-88482684D01*
X97257684Y-88606654D01*
X97165643Y-88755875D01*
X97165641Y-88755880D01*
X97110494Y-88922302D01*
X97110493Y-88922309D01*
X97100000Y-89025013D01*
X97100000Y-89350000D01*
X99099999Y-89350000D01*
X99099999Y-89025028D01*
X99099998Y-89025013D01*
X99089505Y-88922302D01*
X99034358Y-88755880D01*
X99034356Y-88755875D01*
X98942315Y-88606654D01*
X98871625Y-88535964D01*
X98838140Y-88474641D01*
X98843124Y-88404949D01*
X98869927Y-88362333D01*
X98879239Y-88352649D01*
X98897169Y-88340669D01*
X99008669Y-88229169D01*
X99033000Y-88192753D01*
X99040615Y-88184836D01*
X99061790Y-88172729D01*
X99080503Y-88157091D01*
X99091578Y-88155699D01*
X99101272Y-88150158D01*
X99125629Y-88151422D01*
X99149828Y-88148382D01*
X99163221Y-88153372D01*
X99171048Y-88153779D01*
X99178304Y-88158993D01*
X99195093Y-88165249D01*
X99221511Y-88181545D01*
X99382393Y-88234855D01*
X99481683Y-88244999D01*
X99505000Y-88244998D01*
X99505000Y-87394000D01*
X99524685Y-87326961D01*
X99577489Y-87281206D01*
X99629000Y-87270000D01*
X99881000Y-87270000D01*
X99948039Y-87289685D01*
X99993794Y-87342489D01*
X100005000Y-87394000D01*
X100005000Y-88244999D01*
X100028308Y-88244999D01*
X100028322Y-88244998D01*
X100127607Y-88234855D01*
X100288481Y-88181547D01*
X100288492Y-88181542D01*
X100432731Y-88092573D01*
X100441959Y-88083345D01*
X100503279Y-88049856D01*
X100572971Y-88054835D01*
X100598364Y-88067803D01*
X100608617Y-88074629D01*
X100626956Y-88092968D01*
X100752175Y-88170204D01*
X100753957Y-88171391D01*
X100775073Y-88196572D01*
X100797060Y-88221017D01*
X100797418Y-88223218D01*
X100798852Y-88224928D01*
X100803002Y-88257531D01*
X100808283Y-88289980D01*
X100807393Y-88292027D01*
X100807675Y-88294238D01*
X100793543Y-88323902D01*
X100780439Y-88354062D01*
X100778568Y-88355337D01*
X100777626Y-88357316D01*
X100756063Y-88370685D01*
X100735938Y-88384410D01*
X100737209Y-88387136D01*
X100730663Y-88390187D01*
X100581342Y-88482289D01*
X100457289Y-88606342D01*
X100365187Y-88755663D01*
X100365185Y-88755668D01*
X100365115Y-88755880D01*
X100310001Y-88922203D01*
X100310001Y-88922204D01*
X100310000Y-88922204D01*
X100299500Y-89024983D01*
X100299500Y-90175001D01*
X100299501Y-90175018D01*
X100310000Y-90277796D01*
X100310001Y-90277799D01*
X100358380Y-90423795D01*
X100365186Y-90444334D01*
X100457288Y-90593656D01*
X100581344Y-90717712D01*
X100686597Y-90782632D01*
X100733321Y-90834578D01*
X100745500Y-90888170D01*
X100745500Y-93561828D01*
X100725815Y-93628867D01*
X100686597Y-93667366D01*
X100581347Y-93732285D01*
X100581343Y-93732288D01*
X100457289Y-93856342D01*
X100365187Y-94005663D01*
X100365185Y-94005668D01*
X100355272Y-94035583D01*
X100310001Y-94172203D01*
X100310001Y-94172204D01*
X100310000Y-94172204D01*
X100299500Y-94274983D01*
X100299500Y-95425001D01*
X100299501Y-95425018D01*
X100310000Y-95527796D01*
X100310001Y-95527799D01*
X100358380Y-95673795D01*
X100365186Y-95694334D01*
X100457288Y-95843656D01*
X100581344Y-95967712D01*
X100730666Y-96059814D01*
X100897203Y-96114999D01*
X100999991Y-96125500D01*
X101600008Y-96125499D01*
X101600016Y-96125498D01*
X101600019Y-96125498D01*
X101656302Y-96119748D01*
X101702797Y-96114999D01*
X101869334Y-96059814D01*
X102018656Y-95967712D01*
X102142712Y-95843656D01*
X102234814Y-95694334D01*
X102275688Y-95570986D01*
X103242001Y-95570986D01*
X103252494Y-95673697D01*
X103307641Y-95840119D01*
X103307643Y-95840124D01*
X103399684Y-95989345D01*
X103523654Y-96113315D01*
X103672875Y-96205356D01*
X103672880Y-96205358D01*
X103839302Y-96260505D01*
X103839309Y-96260506D01*
X103942019Y-96270999D01*
X104492000Y-96270999D01*
X104541972Y-96270999D01*
X104541986Y-96270998D01*
X104644697Y-96260505D01*
X104811119Y-96205358D01*
X104811124Y-96205356D01*
X104960345Y-96113315D01*
X105084315Y-95989345D01*
X105176356Y-95840124D01*
X105176358Y-95840119D01*
X105231505Y-95673697D01*
X105231506Y-95673690D01*
X105241999Y-95570986D01*
X105242000Y-95570973D01*
X105242000Y-95246000D01*
X104492000Y-95246000D01*
X104492000Y-96270999D01*
X103942019Y-96270999D01*
X103991999Y-96270998D01*
X103992000Y-96270998D01*
X103992000Y-95246000D01*
X103242001Y-95246000D01*
X103242001Y-95570986D01*
X102275688Y-95570986D01*
X102289999Y-95527797D01*
X102300500Y-95425009D01*
X102300499Y-94841330D01*
X102300499Y-94421013D01*
X103242000Y-94421013D01*
X103242000Y-94746000D01*
X103992000Y-94746000D01*
X104492000Y-94746000D01*
X105241999Y-94746000D01*
X105241999Y-94421028D01*
X105241998Y-94421013D01*
X105231505Y-94318302D01*
X105176358Y-94151880D01*
X105176356Y-94151875D01*
X105084315Y-94002654D01*
X104960345Y-93878684D01*
X104811124Y-93786643D01*
X104811119Y-93786641D01*
X104644697Y-93731494D01*
X104644690Y-93731493D01*
X104541986Y-93721000D01*
X104492000Y-93721000D01*
X104492000Y-94746000D01*
X103992000Y-94746000D01*
X103992000Y-93721000D01*
X103991999Y-93720999D01*
X103942029Y-93721000D01*
X103942011Y-93721001D01*
X103839302Y-93731494D01*
X103672880Y-93786641D01*
X103672875Y-93786643D01*
X103523654Y-93878684D01*
X103399684Y-94002654D01*
X103307643Y-94151875D01*
X103307641Y-94151880D01*
X103252494Y-94318302D01*
X103252493Y-94318309D01*
X103242000Y-94421013D01*
X102300499Y-94421013D01*
X102300499Y-94417864D01*
X102300499Y-94274998D01*
X102300498Y-94274981D01*
X102289999Y-94172203D01*
X102289998Y-94172200D01*
X102283193Y-94151663D01*
X102234814Y-94005666D01*
X102142712Y-93856344D01*
X102018656Y-93732288D01*
X102017367Y-93731493D01*
X102005399Y-93724110D01*
X101958677Y-93672161D01*
X101946500Y-93618574D01*
X101946500Y-90831424D01*
X101966185Y-90764385D01*
X102005407Y-90725883D01*
X102018656Y-90717712D01*
X102142712Y-90593656D01*
X102234814Y-90444334D01*
X102275688Y-90320986D01*
X103242001Y-90320986D01*
X103252494Y-90423697D01*
X103307641Y-90590119D01*
X103307643Y-90590124D01*
X103399684Y-90739345D01*
X103523654Y-90863315D01*
X103672875Y-90955356D01*
X103672880Y-90955358D01*
X103839302Y-91010505D01*
X103839309Y-91010506D01*
X103942019Y-91020999D01*
X104492000Y-91020999D01*
X104541972Y-91020999D01*
X104541986Y-91020998D01*
X104644697Y-91010505D01*
X104811119Y-90955358D01*
X104811124Y-90955356D01*
X104960345Y-90863315D01*
X105084315Y-90739345D01*
X105176356Y-90590124D01*
X105176358Y-90590119D01*
X105231505Y-90423697D01*
X105231506Y-90423690D01*
X105241999Y-90320986D01*
X105242000Y-90320973D01*
X105242000Y-89996000D01*
X104492000Y-89996000D01*
X104492000Y-91020999D01*
X103942019Y-91020999D01*
X103991999Y-91020998D01*
X103992000Y-91020998D01*
X103992000Y-89996000D01*
X103242001Y-89996000D01*
X103242001Y-90320986D01*
X102275688Y-90320986D01*
X102289999Y-90277797D01*
X102300500Y-90175009D01*
X102300499Y-89596108D01*
X102300499Y-89171013D01*
X103242000Y-89171013D01*
X103242000Y-89496000D01*
X103992000Y-89496000D01*
X104492000Y-89496000D01*
X105241999Y-89496000D01*
X105241999Y-89171028D01*
X105241998Y-89171013D01*
X105231505Y-89068302D01*
X105176358Y-88901880D01*
X105176356Y-88901875D01*
X105084315Y-88752654D01*
X104960345Y-88628684D01*
X104811124Y-88536643D01*
X104811119Y-88536641D01*
X104644697Y-88481494D01*
X104644690Y-88481493D01*
X104541986Y-88471000D01*
X104492000Y-88471000D01*
X104492000Y-89496000D01*
X103992000Y-89496000D01*
X103992000Y-88471000D01*
X103991999Y-88470999D01*
X103942029Y-88471000D01*
X103942011Y-88471001D01*
X103839302Y-88481494D01*
X103672880Y-88536641D01*
X103672875Y-88536643D01*
X103523654Y-88628684D01*
X103399684Y-88752654D01*
X103307643Y-88901875D01*
X103307641Y-88901880D01*
X103252494Y-89068302D01*
X103252493Y-89068309D01*
X103242000Y-89171013D01*
X102300499Y-89171013D01*
X102300499Y-89167864D01*
X102300499Y-89024998D01*
X102300498Y-89024981D01*
X102289999Y-88922203D01*
X102289998Y-88922200D01*
X102274635Y-88875838D01*
X102234814Y-88755666D01*
X102142712Y-88606344D01*
X102108819Y-88572451D01*
X102075334Y-88511128D01*
X102072500Y-88484770D01*
X102072500Y-88054677D01*
X102092185Y-87987638D01*
X102099234Y-87977765D01*
X102102957Y-87973054D01*
X102102968Y-87973044D01*
X102192003Y-87828697D01*
X102245349Y-87667708D01*
X102255500Y-87568345D01*
X102255499Y-86971656D01*
X102250203Y-86919815D01*
X102245349Y-86872292D01*
X102245348Y-86872289D01*
X102234171Y-86838560D01*
X102192003Y-86711303D01*
X102118962Y-86592886D01*
X102114266Y-86576327D01*
X102105524Y-86562725D01*
X102100501Y-86527789D01*
X102100501Y-86480661D01*
X102100501Y-86447032D01*
X102100501Y-86412943D01*
X102100500Y-86412939D01*
X102100500Y-86357789D01*
X102118383Y-86293639D01*
X102120469Y-86290187D01*
X102120472Y-86290185D01*
X102208478Y-86144606D01*
X102259086Y-85982196D01*
X102265500Y-85911616D01*
X102265500Y-85248384D01*
X102259086Y-85177804D01*
X102208478Y-85015394D01*
X102120472Y-84869815D01*
X102120471Y-84869814D01*
X102118383Y-84866360D01*
X102100500Y-84802210D01*
X102100500Y-84324499D01*
X102120185Y-84257460D01*
X102172989Y-84211705D01*
X102224500Y-84200499D01*
X102547871Y-84200499D01*
X102547872Y-84200499D01*
X102607483Y-84194091D01*
X102656665Y-84175746D01*
X102726355Y-84170761D01*
X102743333Y-84175747D01*
X102792508Y-84194088D01*
X102792511Y-84194089D01*
X102792517Y-84194091D01*
X102852127Y-84200500D01*
X103347872Y-84200499D01*
X103407483Y-84194091D01*
X103457382Y-84175479D01*
X103527069Y-84170494D01*
X103544048Y-84175479D01*
X103592628Y-84193598D01*
X103592627Y-84193598D01*
X103652155Y-84199999D01*
X103652172Y-84200000D01*
X103700000Y-84200000D01*
X103700000Y-84042106D01*
X103719685Y-83975067D01*
X103724734Y-83967794D01*
X103726435Y-83965522D01*
X103743796Y-83942331D01*
X103743888Y-83942086D01*
X103757501Y-83905585D01*
X103794091Y-83807483D01*
X103800500Y-83747873D01*
X103800499Y-83423997D01*
X103803049Y-83415313D01*
X103801761Y-83406353D01*
X103812738Y-83382316D01*
X103820183Y-83356961D01*
X103827025Y-83351032D01*
X103830786Y-83342797D01*
X103853017Y-83328510D01*
X103872987Y-83311206D01*
X103883502Y-83308918D01*
X103889564Y-83305023D01*
X103924499Y-83300000D01*
X103976000Y-83300000D01*
X104043039Y-83319685D01*
X104088794Y-83372489D01*
X104100000Y-83424000D01*
X104100000Y-84200000D01*
X104147828Y-84200000D01*
X104147844Y-84199999D01*
X104207377Y-84193597D01*
X104207378Y-84193597D01*
X104256665Y-84175214D01*
X104326356Y-84170228D01*
X104343335Y-84175214D01*
X104392621Y-84193597D01*
X104452155Y-84199999D01*
X104452172Y-84200000D01*
X104600000Y-84200000D01*
X105100000Y-84200000D01*
X105247828Y-84200000D01*
X105247844Y-84199999D01*
X105307372Y-84193598D01*
X105307379Y-84193596D01*
X105442086Y-84143354D01*
X105442093Y-84143350D01*
X105557187Y-84057190D01*
X105557190Y-84057187D01*
X105643350Y-83942093D01*
X105643354Y-83942086D01*
X105693596Y-83807379D01*
X105693598Y-83807372D01*
X105699999Y-83747844D01*
X105700000Y-83747827D01*
X105700000Y-83600000D01*
X105100000Y-83600000D01*
X105100000Y-84200000D01*
X104600000Y-84200000D01*
X104600000Y-83474000D01*
X104619685Y-83406961D01*
X104672489Y-83361206D01*
X104724000Y-83350000D01*
X104850000Y-83350000D01*
X104850000Y-83224000D01*
X104869685Y-83156961D01*
X104922489Y-83111206D01*
X104974000Y-83100000D01*
X105700000Y-83100000D01*
X105700000Y-82952172D01*
X105699999Y-82952171D01*
X105698450Y-82937755D01*
X105710856Y-82868996D01*
X105758466Y-82817858D01*
X105821740Y-82800500D01*
X121468171Y-82800500D01*
X121535210Y-82820185D01*
X121574288Y-82860350D01*
X121619528Y-82935185D01*
X121619528Y-82935186D01*
X121721661Y-83037319D01*
X121755146Y-83098642D01*
X121750162Y-83168334D01*
X121721661Y-83212681D01*
X121619531Y-83314810D01*
X121619530Y-83314811D01*
X121531522Y-83460393D01*
X121480913Y-83622807D01*
X121477227Y-83663374D01*
X121474500Y-83693384D01*
X121474500Y-84206616D01*
X121475733Y-84220183D01*
X121480913Y-84277192D01*
X121480913Y-84277194D01*
X121480914Y-84277196D01*
X121531522Y-84439606D01*
X121619469Y-84585088D01*
X121619530Y-84585188D01*
X121739811Y-84705469D01*
X121739813Y-84705470D01*
X121739815Y-84705472D01*
X121789650Y-84735598D01*
X121836838Y-84787126D01*
X121849500Y-84841715D01*
X121849500Y-85789523D01*
X121829815Y-85856562D01*
X121813181Y-85877204D01*
X120856456Y-86833928D01*
X120849523Y-86838560D01*
X120846581Y-86842798D01*
X120816228Y-86860808D01*
X120673179Y-86920061D01*
X120625726Y-86929500D01*
X110036520Y-86929500D01*
X109969481Y-86909815D01*
X109948839Y-86893181D01*
X109855188Y-86799530D01*
X109837678Y-86788945D01*
X109709606Y-86711522D01*
X109547196Y-86660914D01*
X109547194Y-86660913D01*
X109547192Y-86660913D01*
X109497778Y-86656423D01*
X109476616Y-86654500D01*
X108963384Y-86654500D01*
X108910449Y-86659310D01*
X108892803Y-86660914D01*
X108800056Y-86689814D01*
X108730196Y-86690964D01*
X108670804Y-86654162D01*
X108640737Y-86591093D01*
X108649541Y-86521780D01*
X108675484Y-86483750D01*
X108980662Y-86178572D01*
X109041983Y-86145089D01*
X109044150Y-86144638D01*
X109102085Y-86133113D01*
X109199497Y-86113737D01*
X109345179Y-86053394D01*
X109476289Y-85965789D01*
X109587789Y-85854289D01*
X109675394Y-85723179D01*
X109735737Y-85577497D01*
X109766500Y-85422842D01*
X109766500Y-85265158D01*
X109766500Y-85265155D01*
X109766499Y-85265153D01*
X109753071Y-85197647D01*
X109735737Y-85110503D01*
X109696342Y-85015394D01*
X109675397Y-84964827D01*
X109675390Y-84964814D01*
X109587789Y-84833711D01*
X109587786Y-84833707D01*
X109476292Y-84722213D01*
X109476288Y-84722210D01*
X109345185Y-84634609D01*
X109345172Y-84634602D01*
X109199501Y-84574264D01*
X109199489Y-84574261D01*
X109044845Y-84543500D01*
X109044842Y-84543500D01*
X108887158Y-84543500D01*
X108887155Y-84543500D01*
X108732510Y-84574261D01*
X108732498Y-84574264D01*
X108586827Y-84634602D01*
X108586814Y-84634609D01*
X108455711Y-84722210D01*
X108455707Y-84722213D01*
X108344213Y-84833707D01*
X108344210Y-84833711D01*
X108256609Y-84964814D01*
X108256602Y-84964827D01*
X108196264Y-85110498D01*
X108196261Y-85110508D01*
X108165361Y-85265850D01*
X108132976Y-85327761D01*
X108131425Y-85329339D01*
X106961482Y-86499281D01*
X106961480Y-86499283D01*
X106954075Y-86512109D01*
X106948654Y-86521500D01*
X106882423Y-86636215D01*
X106841499Y-86788943D01*
X106841499Y-86788945D01*
X106841499Y-86842599D01*
X106821814Y-86909638D01*
X106815114Y-86919067D01*
X106814530Y-86919812D01*
X106726522Y-87065393D01*
X106675913Y-87227807D01*
X106669500Y-87298386D01*
X106669500Y-87961613D01*
X106675913Y-88032192D01*
X106675913Y-88032194D01*
X106675914Y-88032196D01*
X106726522Y-88194606D01*
X106814528Y-88340185D01*
X106814529Y-88340186D01*
X106814531Y-88340189D01*
X106815113Y-88340932D01*
X106815369Y-88341575D01*
X106818409Y-88346604D01*
X106817572Y-88347109D01*
X106823791Y-88362728D01*
X106836477Y-88382467D01*
X106839204Y-88401435D01*
X106840960Y-88405845D01*
X106841500Y-88417402D01*
X106841500Y-88486201D01*
X106821815Y-88553240D01*
X106782598Y-88591739D01*
X106723344Y-88628287D01*
X106599289Y-88752342D01*
X106507187Y-88901663D01*
X106507185Y-88901668D01*
X106486690Y-88963519D01*
X106452001Y-89068203D01*
X106452001Y-89068204D01*
X106452000Y-89068204D01*
X106441500Y-89170983D01*
X106441500Y-90321001D01*
X106441501Y-90321018D01*
X106452000Y-90423796D01*
X106452001Y-90423799D01*
X106507185Y-90590331D01*
X106507187Y-90590336D01*
X106542069Y-90646888D01*
X106599288Y-90739656D01*
X106723344Y-90863712D01*
X106782596Y-90900258D01*
X106829321Y-90952204D01*
X106841500Y-91005797D01*
X106841500Y-93736201D01*
X106821815Y-93803240D01*
X106782598Y-93841739D01*
X106723344Y-93878287D01*
X106599289Y-94002342D01*
X106507187Y-94151663D01*
X106507185Y-94151668D01*
X106496625Y-94183537D01*
X106452001Y-94318203D01*
X106452001Y-94318204D01*
X106452000Y-94318204D01*
X106441500Y-94420983D01*
X106441500Y-95571001D01*
X106441501Y-95571018D01*
X106452000Y-95673796D01*
X106452001Y-95673799D01*
X106507185Y-95840331D01*
X106507187Y-95840336D01*
X106528163Y-95874343D01*
X106599288Y-95989656D01*
X106723344Y-96113712D01*
X106872666Y-96205814D01*
X107039203Y-96260999D01*
X107141991Y-96271500D01*
X107742008Y-96271499D01*
X107742016Y-96271498D01*
X107742019Y-96271498D01*
X107804739Y-96265091D01*
X107844797Y-96260999D01*
X108011334Y-96205814D01*
X108160656Y-96113712D01*
X108284712Y-95989656D01*
X108376814Y-95840334D01*
X108431999Y-95673797D01*
X108442500Y-95571009D01*
X108442499Y-94420992D01*
X108442179Y-94417864D01*
X108431999Y-94318203D01*
X108431998Y-94318200D01*
X108417677Y-94274983D01*
X108376814Y-94151666D01*
X108284712Y-94002344D01*
X108160656Y-93878288D01*
X108160655Y-93878287D01*
X108101402Y-93841739D01*
X108054678Y-93789791D01*
X108042500Y-93736201D01*
X108042500Y-91005797D01*
X108062185Y-90938758D01*
X108101403Y-90900258D01*
X108160656Y-90863712D01*
X108284712Y-90739656D01*
X108376814Y-90590334D01*
X108431999Y-90423797D01*
X108442500Y-90321009D01*
X108442499Y-89170992D01*
X108442179Y-89167864D01*
X108431999Y-89068203D01*
X108431998Y-89068200D01*
X108417677Y-89024983D01*
X108376814Y-88901666D01*
X108284712Y-88752344D01*
X108184759Y-88652391D01*
X108151274Y-88591068D01*
X108156258Y-88521376D01*
X108186176Y-88475634D01*
X108196262Y-88465865D01*
X108205185Y-88460472D01*
X108308007Y-88357649D01*
X108308736Y-88356944D01*
X108338817Y-88341139D01*
X108368642Y-88324854D01*
X108369673Y-88324927D01*
X108370589Y-88324447D01*
X108404430Y-88327413D01*
X108438334Y-88329838D01*
X108439319Y-88330471D01*
X108440191Y-88330548D01*
X108443874Y-88333398D01*
X108482681Y-88358339D01*
X108584811Y-88460469D01*
X108584813Y-88460470D01*
X108584815Y-88460472D01*
X108730394Y-88548478D01*
X108892804Y-88599086D01*
X108963384Y-88605500D01*
X108963387Y-88605500D01*
X109476613Y-88605500D01*
X109476616Y-88605500D01*
X109547196Y-88599086D01*
X109709606Y-88548478D01*
X109855185Y-88460472D01*
X109898255Y-88417402D01*
X109948839Y-88366819D01*
X110010162Y-88333334D01*
X110036520Y-88330500D01*
X111437007Y-88330500D01*
X115270665Y-88330500D01*
X115337704Y-88350185D01*
X115383459Y-88402989D01*
X115393403Y-88472147D01*
X115392282Y-88478692D01*
X115377500Y-88553004D01*
X115377500Y-88553007D01*
X115377500Y-89051007D01*
X115377500Y-97213006D01*
X115377500Y-97350994D01*
X115377500Y-97350996D01*
X115377499Y-97350996D01*
X115404418Y-97486322D01*
X115404421Y-97486332D01*
X115457222Y-97613807D01*
X115533887Y-97728545D01*
X115533888Y-97728546D01*
X116153162Y-98347819D01*
X116186647Y-98409142D01*
X116181663Y-98478833D01*
X116139792Y-98534767D01*
X116074327Y-98559184D01*
X116065481Y-98559500D01*
X94424000Y-98559500D01*
X94356961Y-98539815D01*
X94311206Y-98487011D01*
X94300000Y-98435500D01*
X94300000Y-97898536D01*
X94319685Y-97831497D01*
X94372489Y-97785742D01*
X94424000Y-97774536D01*
X94520547Y-97774536D01*
X94592487Y-97769391D01*
X94730539Y-97728855D01*
X94851579Y-97651067D01*
X94945801Y-97542330D01*
X94993111Y-97438735D01*
X95005570Y-97411455D01*
X95005571Y-97411450D01*
X95014263Y-97350994D01*
X95026047Y-97269036D01*
X95026047Y-96881417D01*
X95025976Y-96825298D01*
X95025937Y-96819683D01*
X95024063Y-96668253D01*
X95023239Y-96644991D01*
X95022994Y-96640807D01*
X95021359Y-96612849D01*
X95017223Y-96542138D01*
X95010023Y-96481728D01*
X94997750Y-96413839D01*
X94968051Y-96317208D01*
X94967172Y-96247344D01*
X94970777Y-96236441D01*
X94977092Y-96219946D01*
X94977095Y-96219939D01*
X95005646Y-96109169D01*
X95010911Y-96071500D01*
X95015846Y-96036191D01*
X95020320Y-95986105D01*
X95020320Y-95986100D01*
X95020322Y-95986081D01*
X95024716Y-95874343D01*
X95025098Y-95857376D01*
X95026039Y-95693148D01*
X95026047Y-95690252D01*
X95026047Y-95424986D01*
X97100001Y-95424986D01*
X97110494Y-95527697D01*
X97165641Y-95694119D01*
X97165643Y-95694124D01*
X97257684Y-95843345D01*
X97381654Y-95967315D01*
X97530875Y-96059356D01*
X97530880Y-96059358D01*
X97697302Y-96114505D01*
X97697309Y-96114506D01*
X97800019Y-96124999D01*
X98350000Y-96124999D01*
X98399972Y-96124999D01*
X98399986Y-96124998D01*
X98502697Y-96114505D01*
X98669119Y-96059358D01*
X98669124Y-96059356D01*
X98818345Y-95967315D01*
X98942315Y-95843345D01*
X99034356Y-95694124D01*
X99034358Y-95694119D01*
X99089505Y-95527697D01*
X99089506Y-95527690D01*
X99099999Y-95424986D01*
X99100000Y-95424973D01*
X99100000Y-95100000D01*
X98350000Y-95100000D01*
X98350000Y-96124999D01*
X97800019Y-96124999D01*
X97849999Y-96124998D01*
X97850000Y-96124998D01*
X97850000Y-95100000D01*
X97100001Y-95100000D01*
X97100001Y-95424986D01*
X95026047Y-95424986D01*
X95026047Y-95315190D01*
X95020902Y-95243250D01*
X95020901Y-95243248D01*
X95019840Y-95237364D01*
X95018019Y-95209273D01*
X95018303Y-95203464D01*
X95026047Y-95149610D01*
X95026047Y-94950914D01*
X95020902Y-94878974D01*
X94980366Y-94740922D01*
X94980365Y-94740920D01*
X94977867Y-94732413D01*
X94981178Y-94731440D01*
X94973587Y-94678731D01*
X94983534Y-94644841D01*
X95005571Y-94596589D01*
X95026047Y-94454173D01*
X95026047Y-94275013D01*
X97100000Y-94275013D01*
X97100000Y-94600000D01*
X97850000Y-94600000D01*
X98350000Y-94600000D01*
X99099999Y-94600000D01*
X99099999Y-94275028D01*
X99099998Y-94275013D01*
X99089505Y-94172302D01*
X99034358Y-94005880D01*
X99034356Y-94005875D01*
X98942315Y-93856654D01*
X98818345Y-93732684D01*
X98669124Y-93640643D01*
X98669119Y-93640641D01*
X98502697Y-93585494D01*
X98502690Y-93585493D01*
X98399986Y-93575000D01*
X98350000Y-93575000D01*
X98350000Y-94600000D01*
X97850000Y-94600000D01*
X97850000Y-93575000D01*
X97849999Y-93574999D01*
X97800029Y-93575000D01*
X97800011Y-93575001D01*
X97697302Y-93585494D01*
X97530880Y-93640641D01*
X97530875Y-93640643D01*
X97381654Y-93732684D01*
X97257684Y-93856654D01*
X97165643Y-94005875D01*
X97165641Y-94005880D01*
X97110494Y-94172302D01*
X97110493Y-94172309D01*
X97100000Y-94275013D01*
X95026047Y-94275013D01*
X95026047Y-94255477D01*
X95020902Y-94183537D01*
X94994751Y-94094477D01*
X94993522Y-94087107D01*
X94996263Y-94064443D01*
X94995803Y-94035585D01*
X95001118Y-94015089D01*
X95015899Y-93925831D01*
X95023016Y-93830470D01*
X95024386Y-93798512D01*
X95026015Y-93653135D01*
X95026043Y-93645489D01*
X95025784Y-93579426D01*
X95025539Y-93565552D01*
X95021598Y-93439976D01*
X95017267Y-93387940D01*
X95017266Y-93387935D01*
X95017265Y-93387919D01*
X95006099Y-93305538D01*
X95006096Y-93305525D01*
X94984877Y-93223127D01*
X94976585Y-93190926D01*
X94970395Y-93174938D01*
X94964550Y-93105317D01*
X94971652Y-93082290D01*
X94985164Y-93050020D01*
X95001118Y-92988494D01*
X95015899Y-92899234D01*
X95023016Y-92803873D01*
X95024386Y-92771915D01*
X95026015Y-92626538D01*
X95026043Y-92618892D01*
X95025784Y-92552828D01*
X95025539Y-92538953D01*
X95021598Y-92413378D01*
X95017267Y-92361343D01*
X95017266Y-92361338D01*
X95017265Y-92361322D01*
X95006099Y-92278941D01*
X95006096Y-92278928D01*
X95002524Y-92265057D01*
X94976585Y-92164329D01*
X94955035Y-92108664D01*
X94954393Y-92107015D01*
X94954349Y-92106938D01*
X94883446Y-91981849D01*
X94883442Y-91981843D01*
X94848357Y-91936493D01*
X94848349Y-91936484D01*
X94790329Y-91873374D01*
X94790308Y-91873352D01*
X94752482Y-91838642D01*
X94636527Y-91758839D01*
X94636509Y-91758828D01*
X94591401Y-91736306D01*
X94591395Y-91736303D01*
X94459561Y-91691877D01*
X94459550Y-91691874D01*
X94414734Y-91683396D01*
X94400950Y-91680788D01*
X94338738Y-91648986D01*
X94303596Y-91588597D01*
X94300000Y-91558950D01*
X94300000Y-90174986D01*
X97100001Y-90174986D01*
X97110494Y-90277697D01*
X97165641Y-90444119D01*
X97165643Y-90444124D01*
X97257684Y-90593345D01*
X97381654Y-90717315D01*
X97530875Y-90809356D01*
X97530880Y-90809358D01*
X97697302Y-90864505D01*
X97697309Y-90864506D01*
X97800019Y-90874999D01*
X98350000Y-90874999D01*
X98399972Y-90874999D01*
X98399986Y-90874998D01*
X98502697Y-90864505D01*
X98669119Y-90809358D01*
X98669124Y-90809356D01*
X98818345Y-90717315D01*
X98942315Y-90593345D01*
X99034356Y-90444124D01*
X99034358Y-90444119D01*
X99089505Y-90277697D01*
X99089506Y-90277690D01*
X99099999Y-90174986D01*
X99100000Y-90174973D01*
X99100000Y-89850000D01*
X98350000Y-89850000D01*
X98350000Y-90874999D01*
X97800019Y-90874999D01*
X97849999Y-90874998D01*
X97850000Y-90874998D01*
X97850000Y-89850000D01*
X97100001Y-89850000D01*
X97100001Y-90174986D01*
X94300000Y-90174986D01*
X94300000Y-87294322D01*
X94783001Y-87294322D01*
X94793144Y-87393607D01*
X94846452Y-87554481D01*
X94846457Y-87554492D01*
X94935424Y-87698728D01*
X94935427Y-87698732D01*
X95055267Y-87818572D01*
X95055271Y-87818575D01*
X95199507Y-87907542D01*
X95199518Y-87907547D01*
X95360393Y-87960855D01*
X95459683Y-87970999D01*
X95507999Y-87970998D01*
X95508000Y-87970998D01*
X95508000Y-87271000D01*
X96008000Y-87271000D01*
X96008000Y-87970999D01*
X96056308Y-87970999D01*
X96056322Y-87970998D01*
X96155607Y-87960855D01*
X96316481Y-87907547D01*
X96316492Y-87907542D01*
X96460728Y-87818575D01*
X96460732Y-87818572D01*
X96496119Y-87783186D01*
X96557442Y-87749701D01*
X96627134Y-87754685D01*
X96671481Y-87783186D01*
X96706267Y-87817972D01*
X96706271Y-87817975D01*
X96850507Y-87906942D01*
X96850518Y-87906947D01*
X97011393Y-87960255D01*
X97110683Y-87970399D01*
X97158999Y-87970398D01*
X97159000Y-87970398D01*
X97159000Y-87270400D01*
X96816618Y-87270400D01*
X96811038Y-87271000D01*
X96008000Y-87271000D01*
X95508000Y-87271000D01*
X94783001Y-87271000D01*
X94783001Y-87294322D01*
X94300000Y-87294322D01*
X94300000Y-84300347D01*
X94319685Y-84233308D01*
X94372489Y-84187553D01*
X94441647Y-84177609D01*
X94467334Y-84184165D01*
X94492623Y-84193597D01*
X94492627Y-84193598D01*
X94552155Y-84199999D01*
X94552172Y-84200000D01*
X94700000Y-84200000D01*
X95200000Y-84200000D01*
X95347828Y-84200000D01*
X95347844Y-84199999D01*
X95407377Y-84193597D01*
X95407378Y-84193597D01*
X95456665Y-84175214D01*
X95526356Y-84170228D01*
X95543335Y-84175214D01*
X95592621Y-84193597D01*
X95652155Y-84199999D01*
X95652172Y-84200000D01*
X95700000Y-84200000D01*
X96100000Y-84200000D01*
X96147828Y-84200000D01*
X96147844Y-84199999D01*
X96207377Y-84193597D01*
X96207378Y-84193597D01*
X96256665Y-84175214D01*
X96326356Y-84170228D01*
X96343335Y-84175214D01*
X96392621Y-84193597D01*
X96452155Y-84199999D01*
X96452172Y-84200000D01*
X96500000Y-84200000D01*
X96500000Y-83500000D01*
X96100000Y-83500000D01*
X96100000Y-84200000D01*
X95700000Y-84200000D01*
X95700000Y-83600000D01*
X95200000Y-83600000D01*
X95200000Y-84200000D01*
X94700000Y-84200000D01*
X94700000Y-83100000D01*
X95200000Y-83100000D01*
X95700000Y-83100000D01*
X96100000Y-83100000D01*
X96500000Y-83100000D01*
X96500000Y-82400000D01*
X96452155Y-82400000D01*
X96392627Y-82406401D01*
X96392619Y-82406403D01*
X96343333Y-82424786D01*
X96273641Y-82429770D01*
X96256667Y-82424786D01*
X96207380Y-82406403D01*
X96207372Y-82406401D01*
X96147844Y-82400000D01*
X96100000Y-82400000D01*
X96100000Y-83100000D01*
X95700000Y-83100000D01*
X95700000Y-82400000D01*
X95200000Y-82400000D01*
X95200000Y-83100000D01*
X94700000Y-83100000D01*
X94700000Y-82494000D01*
X94719685Y-82426961D01*
X94721840Y-82423720D01*
X94800000Y-82310105D01*
X94800000Y-82000000D01*
X95200000Y-82000000D01*
X95900000Y-82000000D01*
X95900000Y-81952172D01*
X95899999Y-81952155D01*
X95893597Y-81892622D01*
X95893597Y-81892621D01*
X95875214Y-81843335D01*
X95870228Y-81773644D01*
X95875214Y-81756665D01*
X95893597Y-81707378D01*
X95893597Y-81707377D01*
X95899999Y-81647844D01*
X95900000Y-81647827D01*
X95900000Y-81600000D01*
X95200000Y-81600000D01*
X95200000Y-82000000D01*
X94800000Y-82000000D01*
X94800000Y-81200000D01*
X95200000Y-81200000D01*
X95900000Y-81200000D01*
X95900000Y-81152172D01*
X95899999Y-81152155D01*
X95893597Y-81092622D01*
X95893597Y-81092621D01*
X95875214Y-81043335D01*
X95870228Y-80973644D01*
X95875214Y-80956665D01*
X95893597Y-80907378D01*
X95893597Y-80907377D01*
X95899999Y-80847844D01*
X95900000Y-80847827D01*
X95900000Y-80800000D01*
X95200000Y-80800000D01*
X95200000Y-81200000D01*
X94800000Y-81200000D01*
X94800000Y-80400000D01*
X95200000Y-80400000D01*
X95900000Y-80400000D01*
X95900000Y-80352172D01*
X95899999Y-80352155D01*
X95893597Y-80292622D01*
X95893597Y-80292621D01*
X95875214Y-80243335D01*
X95870228Y-80173644D01*
X95875214Y-80156665D01*
X95893597Y-80107378D01*
X95893597Y-80107377D01*
X95899999Y-80047844D01*
X95900000Y-80047827D01*
X95900000Y-80000000D01*
X95200000Y-80000000D01*
X95200000Y-80400000D01*
X94800000Y-80400000D01*
X94800000Y-79600000D01*
X95200000Y-79600000D01*
X95900000Y-79600000D01*
X95900000Y-79552172D01*
X95899999Y-79552155D01*
X95893597Y-79492622D01*
X95893597Y-79492621D01*
X95875214Y-79443335D01*
X95870228Y-79373644D01*
X95875214Y-79356665D01*
X95893597Y-79307378D01*
X95893597Y-79307377D01*
X95899999Y-79247844D01*
X95900000Y-79247827D01*
X95900000Y-79200000D01*
X95200000Y-79200000D01*
X95200000Y-79600000D01*
X94800000Y-79600000D01*
X94800000Y-78800000D01*
X95200000Y-78800000D01*
X95900000Y-78800000D01*
X95900000Y-78752172D01*
X95899999Y-78752155D01*
X95893597Y-78692622D01*
X95893597Y-78692621D01*
X95875214Y-78643335D01*
X95870228Y-78573644D01*
X95875214Y-78556665D01*
X95893597Y-78507378D01*
X95893597Y-78507377D01*
X95899999Y-78447844D01*
X95900000Y-78447827D01*
X95900000Y-78400000D01*
X95200000Y-78400000D01*
X95200000Y-78800000D01*
X94800000Y-78800000D01*
X94800000Y-78000000D01*
X95200000Y-78000000D01*
X95900000Y-78000000D01*
X95900000Y-77952172D01*
X95899999Y-77952155D01*
X95893597Y-77892622D01*
X95893597Y-77892621D01*
X95875214Y-77843335D01*
X95870228Y-77773644D01*
X95875214Y-77756665D01*
X95893597Y-77707378D01*
X95893597Y-77707377D01*
X95899999Y-77647844D01*
X95900000Y-77647827D01*
X95900000Y-77600000D01*
X95200000Y-77600000D01*
X95200000Y-78000000D01*
X94800000Y-78000000D01*
X94800000Y-77200000D01*
X95200000Y-77200000D01*
X95900000Y-77200000D01*
X95900000Y-77152172D01*
X95899999Y-77152155D01*
X95893597Y-77092622D01*
X95893597Y-77092621D01*
X95875214Y-77043335D01*
X95870228Y-76973644D01*
X95875214Y-76956665D01*
X95893597Y-76907378D01*
X95893597Y-76907377D01*
X95899999Y-76847844D01*
X95900000Y-76847827D01*
X95900000Y-76800000D01*
X95200000Y-76800000D01*
X95200000Y-77200000D01*
X94800000Y-77200000D01*
X94800000Y-76400000D01*
X95200000Y-76400000D01*
X95900000Y-76400000D01*
X95900000Y-76352172D01*
X95899999Y-76352155D01*
X95893597Y-76292622D01*
X95893597Y-76292621D01*
X95875214Y-76243335D01*
X95870228Y-76173644D01*
X95875214Y-76156665D01*
X95893597Y-76107378D01*
X95893597Y-76107377D01*
X95899999Y-76047844D01*
X95900000Y-76047827D01*
X95900000Y-76000000D01*
X95200000Y-76000000D01*
X95200000Y-76400000D01*
X94800000Y-76400000D01*
X94800000Y-75600000D01*
X95200000Y-75600000D01*
X95900000Y-75600000D01*
X95900000Y-75552172D01*
X95899999Y-75552155D01*
X95893597Y-75492622D01*
X95893597Y-75492621D01*
X95875214Y-75443335D01*
X95870228Y-75373644D01*
X95875214Y-75356665D01*
X95893597Y-75307378D01*
X95893597Y-75307377D01*
X95899999Y-75247844D01*
X95900000Y-75247827D01*
X95900000Y-75200000D01*
X95200000Y-75200000D01*
X95200000Y-75600000D01*
X94800000Y-75600000D01*
X94800000Y-74800000D01*
X95200000Y-74800000D01*
X95900000Y-74800000D01*
X95900000Y-74752172D01*
X95899999Y-74752155D01*
X95893597Y-74692622D01*
X95893597Y-74692621D01*
X95875214Y-74643335D01*
X95870228Y-74573644D01*
X95875214Y-74556665D01*
X95893597Y-74507378D01*
X95893597Y-74507377D01*
X95899999Y-74447844D01*
X95900000Y-74447827D01*
X95900000Y-74400000D01*
X95200000Y-74400000D01*
X95200000Y-74800000D01*
X94800000Y-74800000D01*
X94800000Y-74000000D01*
X95200000Y-74000000D01*
X95900000Y-74000000D01*
X95900000Y-73952172D01*
X95899999Y-73952155D01*
X95893597Y-73892622D01*
X95893597Y-73892621D01*
X95875214Y-73843335D01*
X95870228Y-73773644D01*
X95875214Y-73756665D01*
X95893597Y-73707378D01*
X95893597Y-73707377D01*
X95899999Y-73647844D01*
X95900000Y-73647827D01*
X95900000Y-73600000D01*
X95200000Y-73600000D01*
X95200000Y-74000000D01*
X94800000Y-74000000D01*
X94800000Y-73200000D01*
X95200000Y-73200000D01*
X95900000Y-73200000D01*
X95900000Y-73152172D01*
X95899999Y-73152155D01*
X95893597Y-73092622D01*
X95893597Y-73092621D01*
X95875214Y-73043335D01*
X95870228Y-72973644D01*
X95875214Y-72956665D01*
X95893597Y-72907378D01*
X95893597Y-72907377D01*
X95899999Y-72847844D01*
X95900000Y-72847827D01*
X95900000Y-72800000D01*
X95200000Y-72800000D01*
X95200000Y-73200000D01*
X94800000Y-73200000D01*
X94800000Y-72430000D01*
X94790023Y-72420023D01*
X94756961Y-72410315D01*
X94711206Y-72357511D01*
X94700000Y-72306000D01*
X94700000Y-70600000D01*
X94552155Y-70600000D01*
X94492627Y-70606401D01*
X94492620Y-70606403D01*
X94467331Y-70615835D01*
X94397639Y-70620818D01*
X94336317Y-70587331D01*
X94302833Y-70526007D01*
X94300000Y-70499652D01*
X94300000Y-67528844D01*
X101118000Y-67528844D01*
X101124401Y-67588372D01*
X101124403Y-67588379D01*
X101174645Y-67723086D01*
X101174649Y-67723093D01*
X101260809Y-67838187D01*
X101260812Y-67838190D01*
X101375906Y-67924350D01*
X101375913Y-67924354D01*
X101510620Y-67974596D01*
X101510627Y-67974598D01*
X101570155Y-67980999D01*
X101570172Y-67981000D01*
X102168000Y-67981000D01*
X102668000Y-67981000D01*
X103265828Y-67981000D01*
X103265844Y-67980999D01*
X103325372Y-67974598D01*
X103325379Y-67974596D01*
X103460086Y-67924354D01*
X103460093Y-67924350D01*
X103575187Y-67838190D01*
X103575190Y-67838187D01*
X103661350Y-67723093D01*
X103661354Y-67723086D01*
X103711596Y-67588379D01*
X103711598Y-67588372D01*
X103717999Y-67528844D01*
X103718000Y-67528827D01*
X103718000Y-67306000D01*
X102668000Y-67306000D01*
X102668000Y-67981000D01*
X102168000Y-67981000D01*
X102168000Y-67306000D01*
X101118000Y-67306000D01*
X101118000Y-67528844D01*
X94300000Y-67528844D01*
X94300000Y-64833135D01*
X101117500Y-64833135D01*
X101117500Y-65778870D01*
X101117501Y-65778876D01*
X101123908Y-65838483D01*
X101174202Y-65973328D01*
X101174206Y-65973335D01*
X101260452Y-66088544D01*
X101265584Y-66093676D01*
X101299069Y-66154999D01*
X101294085Y-66224691D01*
X101265584Y-66269038D01*
X101260809Y-66273812D01*
X101174649Y-66388906D01*
X101174645Y-66388913D01*
X101124403Y-66523620D01*
X101124401Y-66523627D01*
X101118000Y-66583155D01*
X101118000Y-66806000D01*
X103718000Y-66806000D01*
X103718000Y-66583172D01*
X103717999Y-66583155D01*
X103711598Y-66523627D01*
X103711596Y-66523620D01*
X103661354Y-66388913D01*
X103661350Y-66388906D01*
X103575190Y-66273812D01*
X103570416Y-66269038D01*
X103536931Y-66207715D01*
X103541915Y-66138023D01*
X103570416Y-66093676D01*
X103575542Y-66088548D01*
X103575546Y-66088546D01*
X103661796Y-65973331D01*
X103712091Y-65838483D01*
X103718500Y-65778873D01*
X103718499Y-64833128D01*
X103712091Y-64773517D01*
X103686722Y-64705500D01*
X103661797Y-64638671D01*
X103661793Y-64638664D01*
X103575547Y-64523455D01*
X103575544Y-64523452D01*
X103460335Y-64437206D01*
X103460328Y-64437202D01*
X103325482Y-64386908D01*
X103325483Y-64386908D01*
X103265883Y-64380501D01*
X103265881Y-64380500D01*
X103265873Y-64380500D01*
X103265864Y-64380500D01*
X101570129Y-64380500D01*
X101570123Y-64380501D01*
X101510516Y-64386908D01*
X101375671Y-64437202D01*
X101375664Y-64437206D01*
X101260455Y-64523452D01*
X101260452Y-64523455D01*
X101174206Y-64638664D01*
X101174202Y-64638671D01*
X101123908Y-64773517D01*
X101117501Y-64833116D01*
X101117501Y-64833123D01*
X101117500Y-64833135D01*
X94300000Y-64833135D01*
X94300000Y-62123713D01*
X96668100Y-62123713D01*
X96668100Y-62336286D01*
X96700156Y-62538684D01*
X96701354Y-62546243D01*
X96752114Y-62702466D01*
X96767044Y-62748414D01*
X96863551Y-62937820D01*
X96988490Y-63109786D01*
X97138813Y-63260109D01*
X97310779Y-63385048D01*
X97310781Y-63385049D01*
X97310784Y-63385051D01*
X97500188Y-63481557D01*
X97702357Y-63547246D01*
X97912313Y-63580500D01*
X97912314Y-63580500D01*
X98124886Y-63580500D01*
X98124887Y-63580500D01*
X98334843Y-63547246D01*
X98537012Y-63481557D01*
X98726416Y-63385051D01*
X98760065Y-63360604D01*
X98898386Y-63260109D01*
X98898388Y-63260106D01*
X98898392Y-63260104D01*
X99048704Y-63109792D01*
X99048706Y-63109788D01*
X99048709Y-63109786D01*
X99173648Y-62937820D01*
X99173647Y-62937820D01*
X99173651Y-62937816D01*
X99270157Y-62748412D01*
X99335846Y-62546243D01*
X99369100Y-62336287D01*
X99369100Y-62123713D01*
X99335846Y-61913757D01*
X99270157Y-61711588D01*
X99173651Y-61522184D01*
X99173649Y-61522181D01*
X99173648Y-61522179D01*
X99161467Y-61505413D01*
X99110801Y-61435677D01*
X107737000Y-61435677D01*
X107737000Y-61459000D01*
X108462000Y-61459000D01*
X108462000Y-60759000D01*
X108962000Y-60759000D01*
X108962000Y-61459000D01*
X109404386Y-61459000D01*
X109423004Y-61448834D01*
X109449362Y-61446000D01*
X110240000Y-61446000D01*
X110740000Y-61446000D01*
X111464999Y-61446000D01*
X111464999Y-61422692D01*
X111464998Y-61422677D01*
X111454855Y-61323392D01*
X111401547Y-61162518D01*
X111401542Y-61162507D01*
X111312575Y-61018271D01*
X111312572Y-61018267D01*
X111192732Y-60898427D01*
X111192728Y-60898424D01*
X111048492Y-60809457D01*
X111048481Y-60809452D01*
X110887606Y-60756144D01*
X110788322Y-60746000D01*
X110740000Y-60746000D01*
X110740000Y-61446000D01*
X110240000Y-61446000D01*
X110240000Y-60746000D01*
X110239999Y-60745999D01*
X110191693Y-60746000D01*
X110191675Y-60746001D01*
X110092392Y-60756144D01*
X109931518Y-60809452D01*
X109931507Y-60809457D01*
X109787271Y-60898424D01*
X109787267Y-60898427D01*
X109682179Y-61003514D01*
X109620856Y-61036998D01*
X109551164Y-61032013D01*
X109506818Y-61003513D01*
X109414732Y-60911427D01*
X109414728Y-60911424D01*
X109270492Y-60822457D01*
X109270481Y-60822452D01*
X109109606Y-60769144D01*
X109010322Y-60759000D01*
X108962000Y-60759000D01*
X108462000Y-60759000D01*
X108461999Y-60758999D01*
X108413693Y-60759000D01*
X108413675Y-60759001D01*
X108314392Y-60769144D01*
X108153518Y-60822452D01*
X108153507Y-60822457D01*
X108009271Y-60911424D01*
X108009267Y-60911427D01*
X107889427Y-61031267D01*
X107889424Y-61031271D01*
X107800457Y-61175507D01*
X107800452Y-61175518D01*
X107747144Y-61336393D01*
X107737000Y-61435677D01*
X99110801Y-61435677D01*
X99048709Y-61350213D01*
X98898386Y-61199890D01*
X98726420Y-61074951D01*
X98537014Y-60978444D01*
X98537013Y-60978443D01*
X98537012Y-60978443D01*
X98334843Y-60912754D01*
X98334841Y-60912753D01*
X98334840Y-60912753D01*
X98173557Y-60887208D01*
X98124887Y-60879500D01*
X97912313Y-60879500D01*
X97863642Y-60887208D01*
X97702360Y-60912753D01*
X97500185Y-60978444D01*
X97310779Y-61074951D01*
X97138813Y-61199890D01*
X96988490Y-61350213D01*
X96863551Y-61522179D01*
X96767044Y-61711585D01*
X96701353Y-61913760D01*
X96668100Y-62123713D01*
X94300000Y-62123713D01*
X94300000Y-56250624D01*
X94319685Y-56183585D01*
X94372489Y-56137830D01*
X94424011Y-56126624D01*
X113362981Y-56128459D01*
G37*
%TD.AperFunction*%
%TA.AperFunction,Conductor*%
G36*
X133140694Y-67637499D02*
G01*
X133187371Y-67689490D01*
X133199500Y-67742977D01*
X133199500Y-78497902D01*
X133179815Y-78564941D01*
X133163181Y-78585583D01*
X130837481Y-80911282D01*
X130837479Y-80911285D01*
X130787361Y-80998094D01*
X130787359Y-80998096D01*
X130758425Y-81048209D01*
X130758424Y-81048210D01*
X130758423Y-81048215D01*
X130717499Y-81200943D01*
X130717499Y-81200945D01*
X130717499Y-81369046D01*
X130717500Y-81369059D01*
X130717500Y-81716234D01*
X130697815Y-81783273D01*
X130696602Y-81785125D01*
X130608609Y-81916814D01*
X130608602Y-81916827D01*
X130548264Y-82062498D01*
X130548261Y-82062510D01*
X130517500Y-82217153D01*
X130517500Y-82374846D01*
X130548261Y-82529489D01*
X130548264Y-82529501D01*
X130608602Y-82675172D01*
X130608609Y-82675185D01*
X130696210Y-82806288D01*
X130696213Y-82806292D01*
X130807707Y-82917786D01*
X130807711Y-82917789D01*
X130938814Y-83005390D01*
X130938827Y-83005397D01*
X131054962Y-83053501D01*
X131084503Y-83065737D01*
X131149147Y-83078595D01*
X131239849Y-83096638D01*
X131301760Y-83129023D01*
X131303339Y-83130574D01*
X132205181Y-84032416D01*
X132238666Y-84093739D01*
X132241500Y-84120097D01*
X132241500Y-88969947D01*
X132221815Y-89036986D01*
X132169011Y-89082741D01*
X132119703Y-89093927D01*
X127984724Y-89167391D01*
X127982383Y-89167411D01*
X122756439Y-89161582D01*
X122756439Y-89161581D01*
X122748163Y-89161571D01*
X122747892Y-89161500D01*
X122682107Y-89161500D01*
X122682106Y-89161500D01*
X122616666Y-89161427D01*
X122616665Y-89161427D01*
X122616652Y-89161427D01*
X122616115Y-89161497D01*
X122568378Y-89174288D01*
X122552645Y-89178504D01*
X122499115Y-89192783D01*
X122489326Y-89195395D01*
X122489185Y-89195453D01*
X122488962Y-89195546D01*
X122488820Y-89195604D01*
X122432250Y-89228264D01*
X122432133Y-89228332D01*
X122392275Y-89251285D01*
X122332597Y-89267809D01*
X121742782Y-89278289D01*
X121788914Y-96819785D01*
X121792909Y-97472741D01*
X121773635Y-97539900D01*
X121721111Y-97585977D01*
X121668911Y-97597500D01*
X117435519Y-97597500D01*
X117368480Y-97577815D01*
X117347838Y-97561181D01*
X116814819Y-97028162D01*
X116781334Y-96966839D01*
X116778500Y-96940481D01*
X116778500Y-88963519D01*
X116798185Y-88896480D01*
X116814819Y-88875838D01*
X117323838Y-88366819D01*
X117385161Y-88333334D01*
X117411519Y-88330500D01*
X118951007Y-88330500D01*
X120625726Y-88330500D01*
X120673178Y-88339939D01*
X120795590Y-88390643D01*
X120817545Y-88399737D01*
X120961009Y-88428274D01*
X120972195Y-88430499D01*
X120972198Y-88430500D01*
X120972200Y-88430500D01*
X121129886Y-88430500D01*
X121129887Y-88430499D01*
X121284539Y-88399737D01*
X121411595Y-88347109D01*
X121430214Y-88339397D01*
X121430214Y-88339396D01*
X121430221Y-88339394D01*
X121561331Y-88251789D01*
X121672831Y-88140289D01*
X121760436Y-88009179D01*
X121775404Y-87973044D01*
X121802535Y-87907542D01*
X121820235Y-87864809D01*
X121847112Y-87824584D01*
X122886333Y-86785364D01*
X122886338Y-86785360D01*
X122896541Y-86775156D01*
X122896543Y-86775156D01*
X125766114Y-83905585D01*
X125842775Y-83790853D01*
X125895580Y-83663370D01*
X125911733Y-83582164D01*
X125922500Y-83528038D01*
X125922500Y-78176513D01*
X127503700Y-78176513D01*
X127503700Y-78389087D01*
X127513004Y-78447827D01*
X127534662Y-78584577D01*
X127536954Y-78599043D01*
X127602249Y-78800000D01*
X127602644Y-78801214D01*
X127699151Y-78990620D01*
X127824090Y-79162586D01*
X127974413Y-79312909D01*
X128146379Y-79437848D01*
X128146381Y-79437849D01*
X128146384Y-79437851D01*
X128335788Y-79534357D01*
X128537957Y-79600046D01*
X128747913Y-79633300D01*
X128747914Y-79633300D01*
X128960486Y-79633300D01*
X128960487Y-79633300D01*
X129170443Y-79600046D01*
X129372612Y-79534357D01*
X129562016Y-79437851D01*
X129650390Y-79373644D01*
X129733986Y-79312909D01*
X129733988Y-79312906D01*
X129733992Y-79312904D01*
X129884304Y-79162592D01*
X129884306Y-79162588D01*
X129884309Y-79162586D01*
X130009248Y-78990620D01*
X130009247Y-78990620D01*
X130009251Y-78990616D01*
X130105757Y-78801212D01*
X130171446Y-78599043D01*
X130204700Y-78389087D01*
X130204700Y-78176513D01*
X130171446Y-77966557D01*
X130105757Y-77764388D01*
X130009251Y-77574984D01*
X130009249Y-77574981D01*
X130009248Y-77574979D01*
X129884309Y-77403013D01*
X129733986Y-77252690D01*
X129562020Y-77127751D01*
X129372614Y-77031244D01*
X129372613Y-77031243D01*
X129372612Y-77031243D01*
X129170443Y-76965554D01*
X129170441Y-76965553D01*
X129170440Y-76965553D01*
X128997618Y-76938181D01*
X128960487Y-76932300D01*
X128747913Y-76932300D01*
X128710782Y-76938181D01*
X128537960Y-76965553D01*
X128335785Y-77031244D01*
X128146379Y-77127751D01*
X127974413Y-77252690D01*
X127824090Y-77403013D01*
X127699151Y-77574979D01*
X127602644Y-77764385D01*
X127536953Y-77966560D01*
X127514167Y-78110425D01*
X127503700Y-78176513D01*
X125922500Y-78176513D01*
X125922500Y-76639004D01*
X125895581Y-76503677D01*
X125895580Y-76503676D01*
X125895580Y-76503672D01*
X125852638Y-76400000D01*
X125842776Y-76376190D01*
X125839905Y-76370819D01*
X125841205Y-76370123D01*
X125822520Y-76310438D01*
X125822500Y-76308230D01*
X125822500Y-75720500D01*
X125842185Y-75653461D01*
X125894989Y-75607706D01*
X125946500Y-75596500D01*
X128117331Y-75596500D01*
X128117347Y-75596501D01*
X128124943Y-75596501D01*
X128283054Y-75596501D01*
X128283057Y-75596501D01*
X128435785Y-75555577D01*
X128485904Y-75526639D01*
X128572716Y-75476520D01*
X128684520Y-75364716D01*
X128684521Y-75364714D01*
X129258520Y-74790716D01*
X129337577Y-74653784D01*
X129378501Y-74501057D01*
X129378501Y-74342942D01*
X129378501Y-74335347D01*
X129378500Y-74335329D01*
X129378500Y-74189180D01*
X129398185Y-74122141D01*
X129428187Y-74089914D01*
X129535546Y-74009546D01*
X129621796Y-73894331D01*
X129672091Y-73759483D01*
X129678500Y-73699873D01*
X129678499Y-72604128D01*
X129672091Y-72544517D01*
X129625717Y-72420183D01*
X129621797Y-72409671D01*
X129621793Y-72409664D01*
X129535547Y-72294455D01*
X129428188Y-72214085D01*
X129425451Y-72210429D01*
X129421297Y-72208532D01*
X129404705Y-72182714D01*
X129386318Y-72158151D01*
X129385302Y-72152523D01*
X129383523Y-72149754D01*
X129378500Y-72114819D01*
X129378500Y-71976000D01*
X129398185Y-71908961D01*
X129450989Y-71863206D01*
X129471188Y-71858811D01*
X129478000Y-71852000D01*
X129978000Y-71852000D01*
X130175828Y-71852000D01*
X130175844Y-71851999D01*
X130235372Y-71845598D01*
X130235379Y-71845596D01*
X130370086Y-71795354D01*
X130370093Y-71795350D01*
X130485187Y-71709190D01*
X130485190Y-71709187D01*
X130571350Y-71594093D01*
X130571354Y-71594086D01*
X130621596Y-71459379D01*
X130621598Y-71459372D01*
X130627999Y-71399844D01*
X130628000Y-71399827D01*
X130628000Y-71102000D01*
X129978000Y-71102000D01*
X129978000Y-71852000D01*
X129478000Y-71852000D01*
X129478000Y-70602000D01*
X129978000Y-70602000D01*
X130628000Y-70602000D01*
X130628000Y-70304172D01*
X130627999Y-70304155D01*
X130621598Y-70244627D01*
X130621596Y-70244620D01*
X130571354Y-70109913D01*
X130571350Y-70109906D01*
X130485190Y-69994812D01*
X130485187Y-69994809D01*
X130370093Y-69908649D01*
X130370086Y-69908645D01*
X130235379Y-69858403D01*
X130235372Y-69858401D01*
X130175844Y-69852000D01*
X129978000Y-69852000D01*
X129978000Y-70602000D01*
X129478000Y-70602000D01*
X129478000Y-69863641D01*
X129429386Y-69828152D01*
X129410260Y-69803232D01*
X129389706Y-69779511D01*
X129388776Y-69775239D01*
X129386847Y-69772725D01*
X129385983Y-69762401D01*
X129378500Y-69728000D01*
X129378500Y-69107060D01*
X129378501Y-69107047D01*
X129378501Y-68938944D01*
X129378501Y-68938943D01*
X129337577Y-68786216D01*
X129300607Y-68722181D01*
X129258524Y-68649290D01*
X129258518Y-68649282D01*
X128610446Y-68001210D01*
X128576961Y-67939887D01*
X128581945Y-67870195D01*
X128623817Y-67814262D01*
X128689281Y-67789845D01*
X128697261Y-67789532D01*
X131505245Y-67770496D01*
X131569949Y-67770360D01*
X131571096Y-67770050D01*
X131572284Y-67770042D01*
X131634728Y-67752855D01*
X131697171Y-67735983D01*
X131698185Y-67735393D01*
X131699333Y-67735078D01*
X131699342Y-67735072D01*
X131699344Y-67735072D01*
X131755237Y-67702294D01*
X131811159Y-67669850D01*
X131811996Y-67669009D01*
X131813023Y-67668407D01*
X131813024Y-67668405D01*
X131813046Y-67668393D01*
X131816709Y-67665571D01*
X131820181Y-67664220D01*
X131820289Y-67664148D01*
X131820494Y-67664029D01*
X131820526Y-67664085D01*
X131881825Y-67640240D01*
X131890195Y-67639808D01*
X133073323Y-67618997D01*
X133140694Y-67637499D01*
G37*
%TD.AperFunction*%
%TA.AperFunction,Conductor*%
G36*
X118598690Y-71401255D02*
G01*
X118654623Y-71443127D01*
X118673062Y-71478433D01*
X118722452Y-71627481D01*
X118722457Y-71627492D01*
X118811424Y-71771728D01*
X118811427Y-71771732D01*
X118820660Y-71780965D01*
X118854145Y-71842288D01*
X118849161Y-71911980D01*
X118820663Y-71956324D01*
X118811033Y-71965953D01*
X118811029Y-71965959D01*
X118722001Y-72110294D01*
X118721996Y-72110305D01*
X118668651Y-72271290D01*
X118658500Y-72370647D01*
X118658500Y-72917337D01*
X118658501Y-72917355D01*
X118668650Y-73016707D01*
X118668651Y-73016710D01*
X118721996Y-73177694D01*
X118722001Y-73177705D01*
X118811029Y-73322040D01*
X118811032Y-73322044D01*
X118930955Y-73441967D01*
X118930959Y-73441970D01*
X119075294Y-73530998D01*
X119075297Y-73530999D01*
X119075303Y-73531003D01*
X119236292Y-73584349D01*
X119335655Y-73594500D01*
X119358630Y-73594499D01*
X119425668Y-73614181D01*
X119446314Y-73630818D01*
X120008681Y-74193185D01*
X120021087Y-74215905D01*
X120036786Y-74236487D01*
X120039073Y-74248843D01*
X120042166Y-74254508D01*
X120044599Y-74270905D01*
X120045000Y-74275884D01*
X120045001Y-74404872D01*
X120051409Y-74464483D01*
X120062622Y-74494547D01*
X120064009Y-74511753D01*
X120060264Y-74529746D01*
X120061575Y-74548077D01*
X120056594Y-74565042D01*
X120051901Y-74577623D01*
X120051901Y-74577624D01*
X120045500Y-74637155D01*
X120045500Y-74746000D01*
X120188699Y-74746000D01*
X120255738Y-74765685D01*
X120263010Y-74770733D01*
X120303169Y-74800796D01*
X120303170Y-74800796D01*
X120303171Y-74800797D01*
X120348118Y-74817561D01*
X120438017Y-74851091D01*
X120497627Y-74857500D01*
X120908469Y-74857499D01*
X120917154Y-74860049D01*
X120926112Y-74858761D01*
X120932660Y-74859882D01*
X120998191Y-74872917D01*
X121060102Y-74905302D01*
X121094676Y-74966018D01*
X121098000Y-74994534D01*
X121098000Y-74997465D01*
X121078315Y-75064504D01*
X121025511Y-75110259D01*
X120998192Y-75119082D01*
X120943799Y-75129901D01*
X120932660Y-75132117D01*
X120908470Y-75134500D01*
X120497629Y-75134500D01*
X120497623Y-75134501D01*
X120438016Y-75140908D01*
X120303171Y-75191202D01*
X120303169Y-75191204D01*
X120263010Y-75221267D01*
X120197546Y-75245684D01*
X120188699Y-75246000D01*
X120045500Y-75246000D01*
X120045500Y-75354844D01*
X120051901Y-75414375D01*
X120051902Y-75414379D01*
X120056593Y-75426956D01*
X120061575Y-75496647D01*
X120056594Y-75513613D01*
X120051408Y-75527516D01*
X120051408Y-75527517D01*
X120045001Y-75587117D01*
X120045000Y-75587136D01*
X120045000Y-76304870D01*
X120045001Y-76304876D01*
X120051408Y-76364483D01*
X120101702Y-76499328D01*
X120101706Y-76499335D01*
X120187952Y-76614544D01*
X120187955Y-76614547D01*
X120303164Y-76700793D01*
X120303171Y-76700797D01*
X120348118Y-76717561D01*
X120438017Y-76751091D01*
X120497627Y-76757500D01*
X120908469Y-76757499D01*
X120932661Y-76759882D01*
X121016201Y-76776500D01*
X121016203Y-76776500D01*
X122153299Y-76776500D01*
X122261242Y-76755028D01*
X122313748Y-76744584D01*
X122464889Y-76681979D01*
X122600913Y-76591091D01*
X122600915Y-76591088D01*
X122605617Y-76587230D01*
X122607608Y-76589656D01*
X122656581Y-76562180D01*
X122726325Y-76566363D01*
X122782736Y-76607589D01*
X122783512Y-76608613D01*
X122787954Y-76614546D01*
X122787955Y-76614546D01*
X122787956Y-76614548D01*
X122903164Y-76700793D01*
X122903171Y-76700797D01*
X123038017Y-76751091D01*
X123038016Y-76751091D01*
X123043346Y-76751664D01*
X123097627Y-76757500D01*
X124298372Y-76757499D01*
X124357983Y-76751091D01*
X124357985Y-76751090D01*
X124357987Y-76751090D01*
X124365531Y-76749308D01*
X124366087Y-76751664D01*
X124423844Y-76747527D01*
X124485171Y-76781004D01*
X124518663Y-76842323D01*
X124521500Y-76868696D01*
X124521500Y-77827903D01*
X124512855Y-77857343D01*
X124506332Y-77887330D01*
X124502577Y-77892345D01*
X124501815Y-77894942D01*
X124485181Y-77915584D01*
X124367584Y-78033181D01*
X124306261Y-78066666D01*
X124279903Y-78069500D01*
X121126669Y-78069500D01*
X121126653Y-78069499D01*
X121119057Y-78069499D01*
X120960943Y-78069499D01*
X120853587Y-78098265D01*
X120808210Y-78110424D01*
X120808209Y-78110425D01*
X120758096Y-78139359D01*
X120758095Y-78139360D01*
X120714689Y-78164420D01*
X120671285Y-78189479D01*
X120671282Y-78189481D01*
X120242243Y-78618520D01*
X120242220Y-78618543D01*
X120241286Y-78619478D01*
X120241284Y-78619480D01*
X120129480Y-78731284D01*
X120122265Y-78743779D01*
X120111910Y-78754591D01*
X120094067Y-78764838D01*
X120079175Y-78779037D01*
X120059252Y-78787203D01*
X120045398Y-78791520D01*
X120045396Y-78791520D01*
X119899811Y-78879530D01*
X119779530Y-78999811D01*
X119691522Y-79145393D01*
X119640913Y-79307807D01*
X119634500Y-79378386D01*
X119634500Y-79891613D01*
X119640913Y-79962192D01*
X119640913Y-79962194D01*
X119640914Y-79962196D01*
X119691522Y-80124606D01*
X119763726Y-80244046D01*
X119779530Y-80270188D01*
X119881661Y-80372319D01*
X119915146Y-80433642D01*
X119910162Y-80503334D01*
X119881661Y-80547681D01*
X119779531Y-80649810D01*
X119779530Y-80649811D01*
X119725221Y-80739650D01*
X119673693Y-80786838D01*
X119619104Y-80799500D01*
X105541439Y-80799500D01*
X105532489Y-80796872D01*
X105523251Y-80798159D01*
X105490776Y-80784623D01*
X105474400Y-80779815D01*
X105471664Y-80776657D01*
X105467128Y-80774767D01*
X105442331Y-80756204D01*
X105442328Y-80756202D01*
X105335027Y-80716182D01*
X105279093Y-80674311D01*
X105254676Y-80608847D01*
X105269527Y-80540574D01*
X105318932Y-80491168D01*
X105335027Y-80483818D01*
X105442328Y-80443797D01*
X105442327Y-80443797D01*
X105442331Y-80443796D01*
X105467796Y-80424733D01*
X105480670Y-80419931D01*
X105491093Y-80410980D01*
X105512761Y-80407961D01*
X105533261Y-80400316D01*
X105542107Y-80400000D01*
X105700000Y-80400000D01*
X105700000Y-80352172D01*
X105699999Y-80352155D01*
X105693598Y-80292627D01*
X105675479Y-80244048D01*
X105670495Y-80174356D01*
X105675476Y-80157391D01*
X105694091Y-80107483D01*
X105700500Y-80047873D01*
X105700499Y-79552128D01*
X105694091Y-79492517D01*
X105675747Y-79443334D01*
X105670762Y-79373643D01*
X105675747Y-79356665D01*
X105680848Y-79342989D01*
X105694091Y-79307483D01*
X105700500Y-79247873D01*
X105700499Y-78791496D01*
X105720183Y-78724458D01*
X105745305Y-78696080D01*
X105753393Y-78689367D01*
X105768717Y-78680520D01*
X105791487Y-78657749D01*
X105795905Y-78654083D01*
X105822924Y-78642430D01*
X105848741Y-78628334D01*
X105857895Y-78627349D01*
X105860063Y-78626415D01*
X105862632Y-78626840D01*
X105875099Y-78625500D01*
X110936529Y-78625500D01*
X110936545Y-78625501D01*
X110944141Y-78625501D01*
X111102252Y-78625501D01*
X111102255Y-78625501D01*
X111254983Y-78584577D01*
X111305102Y-78555639D01*
X111391914Y-78505520D01*
X111503718Y-78393716D01*
X111503718Y-78393714D01*
X111513926Y-78383507D01*
X111513928Y-78383504D01*
X118467677Y-71429754D01*
X118528998Y-71396271D01*
X118598690Y-71401255D01*
G37*
%TD.AperFunction*%
%TA.AperFunction,Conductor*%
G36*
X119873039Y-66319685D02*
G01*
X119918794Y-66372489D01*
X119930000Y-66424000D01*
X119930000Y-67199999D01*
X120011581Y-67199999D01*
X120082102Y-67193591D01*
X120082106Y-67193591D01*
X120106606Y-67185956D01*
X120176466Y-67184802D01*
X120235860Y-67221602D01*
X120265930Y-67284670D01*
X120267500Y-67304340D01*
X120267500Y-70060591D01*
X120247815Y-70127630D01*
X120195011Y-70173385D01*
X120125853Y-70183329D01*
X120104496Y-70178297D01*
X120031606Y-70154144D01*
X119932322Y-70144000D01*
X119884000Y-70144000D01*
X119884000Y-70970000D01*
X119864315Y-71037039D01*
X119811511Y-71082794D01*
X119760000Y-71094000D01*
X119508000Y-71094000D01*
X119440961Y-71074315D01*
X119395206Y-71021511D01*
X119384000Y-70970000D01*
X119384000Y-70144000D01*
X119383999Y-70143999D01*
X119335693Y-70144000D01*
X119335675Y-70144001D01*
X119236392Y-70154144D01*
X119075518Y-70207452D01*
X119075507Y-70207457D01*
X119004597Y-70251196D01*
X118937205Y-70269637D01*
X118870541Y-70248715D01*
X118825771Y-70195073D01*
X118815500Y-70145658D01*
X118815500Y-67181457D01*
X118835185Y-67114418D01*
X118887989Y-67068663D01*
X118957147Y-67058719D01*
X119003650Y-67075340D01*
X119115604Y-67143019D01*
X119115603Y-67143019D01*
X119277894Y-67193590D01*
X119277892Y-67193590D01*
X119348418Y-67199999D01*
X119429999Y-67199998D01*
X119430000Y-67199998D01*
X119430000Y-66424000D01*
X119449685Y-66356961D01*
X119502489Y-66311206D01*
X119554000Y-66300000D01*
X119806000Y-66300000D01*
X119873039Y-66319685D01*
G37*
%TD.AperFunction*%
%TA.AperFunction,Conductor*%
G36*
X123060000Y-63034862D02*
G01*
X123101690Y-63026569D01*
X123101692Y-63026569D01*
X123283671Y-62951192D01*
X123283684Y-62951185D01*
X123412609Y-62865040D01*
X123479286Y-62844162D01*
X123546666Y-62862646D01*
X123593357Y-62914625D01*
X123605500Y-62968142D01*
X123605500Y-67477330D01*
X123605499Y-67477348D01*
X123605499Y-67643054D01*
X123605498Y-67643054D01*
X123612340Y-67668588D01*
X123646423Y-67795785D01*
X123667399Y-67832116D01*
X123720908Y-67924797D01*
X123725479Y-67932714D01*
X123725481Y-67932717D01*
X123844349Y-68051585D01*
X123844354Y-68051589D01*
X124613284Y-68820520D01*
X124613286Y-68820521D01*
X124613290Y-68820524D01*
X124750209Y-68899573D01*
X124750216Y-68899577D01*
X124902943Y-68940501D01*
X124902945Y-68940501D01*
X125068654Y-68940501D01*
X125068670Y-68940500D01*
X125115903Y-68940500D01*
X125182942Y-68960185D01*
X125203584Y-68976819D01*
X125905084Y-69678319D01*
X125938569Y-69739642D01*
X125933585Y-69809334D01*
X125891713Y-69865267D01*
X125826249Y-69889684D01*
X125817404Y-69890000D01*
X125685693Y-69890000D01*
X125685676Y-69890001D01*
X125586392Y-69900144D01*
X125425518Y-69953452D01*
X125425507Y-69953457D01*
X125281271Y-70042424D01*
X125182681Y-70141014D01*
X125121358Y-70174498D01*
X125051666Y-70169514D01*
X125007319Y-70141014D01*
X124908728Y-70042424D01*
X124764492Y-69953457D01*
X124764481Y-69953452D01*
X124603606Y-69900144D01*
X124504322Y-69890000D01*
X124456000Y-69890000D01*
X124456000Y-70590000D01*
X125860000Y-70590000D01*
X125927039Y-70609685D01*
X125972794Y-70662489D01*
X125984000Y-70714000D01*
X125984000Y-70966000D01*
X125964315Y-71033039D01*
X125911511Y-71078794D01*
X125860000Y-71090000D01*
X122552000Y-71090000D01*
X122484961Y-71070315D01*
X122439206Y-71017511D01*
X122428000Y-70966000D01*
X122428000Y-70840000D01*
X122302000Y-70840000D01*
X122234961Y-70820315D01*
X122189206Y-70767511D01*
X122178000Y-70716000D01*
X122178000Y-69890000D01*
X122678000Y-69890000D01*
X122678000Y-70590000D01*
X123956000Y-70590000D01*
X123956000Y-69890000D01*
X123955999Y-69889999D01*
X123907693Y-69890000D01*
X123907675Y-69890001D01*
X123808392Y-69900144D01*
X123647518Y-69953452D01*
X123647507Y-69953457D01*
X123503271Y-70042424D01*
X123404681Y-70141014D01*
X123343358Y-70174498D01*
X123273666Y-70169514D01*
X123229319Y-70141014D01*
X123130728Y-70042424D01*
X122986492Y-69953457D01*
X122986481Y-69953452D01*
X122825606Y-69900144D01*
X122726322Y-69890000D01*
X122678000Y-69890000D01*
X122178000Y-69890000D01*
X122177999Y-69889999D01*
X122129693Y-69890000D01*
X122129673Y-69890001D01*
X122065101Y-69896598D01*
X121996408Y-69883828D01*
X121945524Y-69835947D01*
X121928500Y-69773240D01*
X121928500Y-63763793D01*
X121948185Y-63696754D01*
X122000989Y-63650999D01*
X122017905Y-63644717D01*
X122150193Y-63606283D01*
X122150196Y-63606282D01*
X122291552Y-63522685D01*
X122291561Y-63522678D01*
X122407678Y-63406561D01*
X122407685Y-63406552D01*
X122491282Y-63265196D01*
X122491283Y-63265193D01*
X122537099Y-63107495D01*
X122537100Y-63107488D01*
X122537487Y-63102574D01*
X122560000Y-63043501D01*
X122560000Y-62231988D01*
X122569940Y-62249205D01*
X122625795Y-62305060D01*
X122694204Y-62344556D01*
X122770504Y-62365000D01*
X122849496Y-62365000D01*
X122925796Y-62344556D01*
X122994205Y-62305060D01*
X123050060Y-62249205D01*
X123060000Y-62231988D01*
X123060000Y-63034862D01*
G37*
%TD.AperFunction*%
%TA.AperFunction,Conductor*%
G36*
X124321894Y-56129521D02*
G01*
X124388930Y-56149212D01*
X124434679Y-56202020D01*
X124444616Y-56271180D01*
X124415585Y-56334733D01*
X124409561Y-56341202D01*
X123971883Y-56778880D01*
X123910560Y-56812365D01*
X123840868Y-56807381D01*
X123784935Y-56765509D01*
X123769641Y-56738651D01*
X123696192Y-56561328D01*
X123696185Y-56561315D01*
X123586751Y-56397537D01*
X123586748Y-56397533D01*
X123530349Y-56341134D01*
X123496864Y-56279811D01*
X123501848Y-56210119D01*
X123543720Y-56154186D01*
X123609184Y-56129769D01*
X123618024Y-56129453D01*
X124321894Y-56129521D01*
G37*
%TD.AperFunction*%
%TD*%
M02*
