M48
; DRILL file KiCad 10.0.1 date 2026-07-23T20:58:12
; FORMAT={-:-/ absolute / inch / decimal}
; #@! TF.CreationDate,2026-07-23T20:58:12+05:30
; #@! TF.GenerationSoftware,Kicad,Pcbnew,10.0.1
; #@! TF.FileFunction,Plated,1,2,PTH
FMAT,2
INCH
; #@! TA.AperFunction,Plated,PTH,ViaDrill
T1C0.0118
; #@! TA.AperFunction,Plated,PTH,ComponentDrill
T2C0.0236
%
G90
G05
T1
X3.8735Y-3.4535
X4.29Y-3.36
X4.2913Y-2.9524
X4.4339Y-2.9283
X4.6563Y-2.8984
X4.71Y-2.7358
X4.7658Y-3.45
X4.8961Y-3.2606
X4.8976Y-3.1827
X4.9406Y-2.7335
X5.096Y-3.397
X5.133Y-3.6315
X5.17Y-3.24
X5.1878Y-2.7339
X5.22Y-3.2
X5.2323Y-2.5602
T2
G00X4.4949Y-2.2691
M15
G01X4.4949Y-2.2455
M16
G05
G00X4.4949Y-2.4435
M15
G01X4.4949Y-2.4002
M16
G05
G00X4.835Y-2.2691
M15
G01X4.835Y-2.2455
M16
G05
G00X4.835Y-2.4435
M15
G01X4.835Y-2.4002
M16
G05
M30
