%TF.GenerationSoftware,KiCad,Pcbnew,10.0.1*%
%TF.CreationDate,2026-07-23T20:58:12+05:30*%
%TF.ProjectId,Carbon,43617262-6f6e-42e6-9b69-6361645f7063,rev?*%
%TF.SameCoordinates,Original*%
%TF.FileFunction,Copper,L2,Bot*%
%TF.FilePolarity,Positive*%
%FSLAX46Y46*%
G04 Gerber Fmt 4.6, Leading zero omitted, Abs format (unit mm)*
G04 Created by KiCad (PCBNEW 10.0.1) date 2026-07-23 20:58:12*
%MOMM*%
%LPD*%
G01*
G04 APERTURE LIST*
%TA.AperFunction,ComponentPad*%
%ADD10O,1.000000X1.600000*%
%TD*%
%TA.AperFunction,ComponentPad*%
%ADD11O,1.000000X2.100000*%
%TD*%
%TA.AperFunction,ViaPad*%
%ADD12C,0.600000*%
%TD*%
%TA.AperFunction,Conductor*%
%ADD13C,0.200000*%
%TD*%
G04 APERTURE END LIST*
D10*
%TO.P,J1,SH,SHIELD_SH*%
%TO.N,GND*%
X114170000Y-57335000D03*
D11*
X114170000Y-61515000D03*
D10*
X122810000Y-57335000D03*
D11*
X122810000Y-61515000D03*
%TD*%
D12*
%TO.N,+3V3*%
X121051042Y-87630000D03*
%TO.N,GND*%
X125490000Y-69430000D03*
X119634000Y-69490000D03*
X112620000Y-74380000D03*
X118270000Y-73620000D03*
X131770000Y-69440000D03*
%TO.N,+3V3*%
X98386880Y-87718880D03*
%TO.N,SDA*%
X124360000Y-82820000D03*
X131318000Y-82296000D03*
%TO.N,SCL*%
X124400000Y-80840000D03*
X132588000Y-81280000D03*
%TO.N,Net-(U3-IO9)*%
X108966000Y-85344000D03*
X109000000Y-74990000D03*
%TO.N,GND*%
X129438400Y-86283800D03*
%TO.N,SCL*%
X132900000Y-65030000D03*
%TO.N,GND*%
X130378200Y-92240000D03*
%TD*%
%TO.N,GND*%
D13*
X125490000Y-69430000D02*
X125500000Y-69440000D01*
X118494000Y-69490000D02*
X119634000Y-69490000D01*
X125430000Y-69490000D02*
X119634000Y-69490000D01*
X118270000Y-69714000D02*
X118494000Y-69490000D01*
X117510000Y-74380000D02*
X112620000Y-74380000D01*
X118270000Y-73620000D02*
X117510000Y-74380000D01*
X118270000Y-73620000D02*
X118270000Y-69714000D01*
X125490000Y-69430000D02*
X125430000Y-69490000D01*
X125500000Y-69440000D02*
X131770000Y-69440000D01*
%TO.N,SDA*%
X124360000Y-82410000D02*
X124360000Y-82820000D01*
X131318000Y-82296000D02*
X124474000Y-82296000D01*
X124474000Y-82296000D02*
X124360000Y-82410000D01*
%TO.N,SCL*%
X132578000Y-81290000D02*
X124850000Y-81290000D01*
X133258000Y-80610000D02*
X133258000Y-65388000D01*
X132588000Y-81280000D02*
X132578000Y-81290000D01*
X124850000Y-81290000D02*
X124400000Y-80840000D01*
X132588000Y-81280000D02*
X133258000Y-80610000D01*
%TO.N,Net-(U3-IO9)*%
X108966000Y-75024000D02*
X109000000Y-74990000D01*
X108966000Y-85344000D02*
X108966000Y-75024000D01*
%TO.N,+3V3*%
X120797042Y-87884000D02*
X121051042Y-87630000D01*
X105664000Y-87884000D02*
X120797042Y-87884000D01*
X98552000Y-87884000D02*
X98386880Y-87718880D01*
X105664000Y-87884000D02*
X98552000Y-87884000D01*
%TO.N,GND*%
X131350000Y-88195400D02*
X129438400Y-86283800D01*
X130807528Y-92240000D02*
X131350000Y-91697528D01*
X131350000Y-91697528D02*
X131350000Y-88195400D01*
%TO.N,SCL*%
X133258000Y-65388000D02*
X132900000Y-65030000D01*
%TO.N,GND*%
X130378200Y-92240000D02*
X130807528Y-92240000D01*
%TD*%
M02*
